<svg width="59" height="58" viewBox="0 0 59 58" fill="none" xmlns="http://www.w3.org/2000/svg">
<g clip-path="url(#clip0_20175_4201485)">
<path d="M51.351 36.6349C50.5351 44.2844 46.8443 53.6738 38.7246 55.8122C31.7995 57.1049 24.1557 56.1621 19.4548 50.3593C11.4128 40.6395 11.5585 45.2467 2.74918 40.4937C-0.611379 38.6858 4.05067 33.6898 6.32341 32.7859C11.0534 30.9585 18.1285 37.1814 19.0275 37.4222C23.5341 38.3942 20.97 16.3108 20.97 12.9282C20.4164 8.28217 22.7765 3.38337 27.39 1.81848C32.6834 0.204983 31.2751 7.35878 31.2751 10.5663C31.4207 16.2816 30.3038 22.6772 33.2176 27.8385C34.5169 27.4254 32.1927 18.6354 33.793 18.4649C41.2532 17.67 41.9283 23.0532 44.9601 28.3439C46.2141 27.7722 43.8529 23.9894 45.5234 24.6018C50.6614 25.8168 51.8172 32.1055 51.351 36.6349Z" fill="white"/>
<path d="M26.9794 0.453388C28.5535 -0.0264084 30.0129 0.040272 31.132 0.942829C32.1655 1.77641 32.5619 3.06291 32.7336 4.16518C32.9116 5.30813 32.894 6.57247 32.844 7.6839C32.7908 8.86627 32.709 9.79314 32.7082 10.5556C32.7446 12.0209 32.7011 13.5237 32.6629 14.988C32.6407 15.8367 32.6204 16.6749 32.6162 17.5039C32.8665 17.2757 33.2021 17.0932 33.6474 17.0457L33.7425 17.0359C35.7352 16.835 37.3956 17.0304 38.806 17.6087C40.2482 18.2001 41.3155 19.1456 42.1706 20.2476C42.934 21.2315 43.5465 22.366 44.1096 23.4986C44.212 23.4139 44.3311 23.3368 44.4695 23.2718C45.0464 23.0006 45.6076 23.1235 45.9295 23.2303C49.0532 23.9973 50.902 26.3061 51.8783 28.8674C52.8516 31.4211 53.0256 34.3619 52.7766 36.7814L52.7763 36.784L52.776 36.7867C52.3527 40.7553 51.1823 45.2163 49.0219 48.9986C46.8574 52.788 43.6341 55.9972 39.0938 57.1929L39.0434 57.2062L38.9921 57.2158C31.8417 58.5506 23.5414 57.6535 18.3606 51.2696L18.1763 51.0476C14.3385 46.4431 12.6103 45.4478 10.9633 44.9248C9.17086 44.3556 6.63215 44.208 2.077 41.7504C0.792009 41.0585 0.148438 39.9344 0.148438 38.6541C0.14844 37.517 0.653554 36.4163 1.23166 35.5246C1.82869 34.6037 2.61008 33.7423 3.3926 33.0492C4.15884 32.3704 5.01842 31.7712 5.80147 31.4598L5.80802 31.4572L5.81458 31.4547C7.36658 30.8551 9.01833 30.9494 10.524 31.3197C12.0344 31.6912 13.5125 32.3681 14.8047 33.0775C16.1033 33.7905 17.2659 34.5656 18.138 35.1601C18.5859 35.4654 18.9316 35.7054 19.2067 35.8861C19.2286 35.9005 19.2495 35.9139 19.2693 35.9267C19.4515 35.6417 19.6616 35.0922 19.8375 34.2038C20.2001 32.3729 20.3056 29.7242 20.267 26.8276C20.2286 23.9563 20.0512 20.9404 19.8816 18.4151C19.7206 16.0189 19.5582 13.9652 19.5485 13.0139C18.9713 7.87458 21.5779 2.28482 26.9371 0.466979L26.9581 0.45987L26.9794 0.453388ZM31.2807 10.5667C31.2807 7.35912 32.689 0.205339 27.3956 1.81883L27.2879 1.85612C22.7455 3.46025 20.4263 8.31877 20.9756 12.9286L20.9761 13.0113C21.0153 16.6548 23.5045 38.3869 19.0331 37.4226C18.1341 37.1817 11.0591 30.9589 6.32904 32.7862C4.05629 33.6901 -0.605787 38.6862 2.75477 40.4941C11.5641 45.2471 11.4184 40.6399 19.4604 50.3597C24.1613 56.1624 31.8051 57.1052 38.7302 55.8125C46.7865 53.6908 50.4828 44.4311 51.337 36.8149L51.3566 36.6353C51.8228 32.1058 50.667 25.8171 45.5291 24.6021C43.8585 23.9897 46.2197 27.7726 44.9657 28.3443L44.8951 28.2202C41.9229 22.9698 41.2005 17.6765 33.7986 18.4652C32.1984 18.6357 34.5225 27.4256 33.2232 27.8388L33.1557 27.7176C30.3268 22.5777 31.4252 16.2373 31.2807 10.5667Z" fill="#444444"/>
<path d="M28.6328 33.178C28.9732 33.1096 29.3239 33.1083 29.665 33.1731C29.9944 33.2356 30.308 33.3609 30.5908 33.5393L30.5918 33.5383C31.0452 33.7936 31.4263 34.1578 31.6992 34.5979C31.9381 34.983 32.0875 35.4148 32.1357 35.8625L32.1504 36.0559V36.0598C32.1795 36.8908 32.0428 37.7193 31.75 38.4993C31.5656 39.1742 31.1533 39.7654 30.5801 40.175L30.5625 40.1877L30.5449 40.1985C30.2633 40.3697 29.9511 40.4859 29.626 40.5432L29.627 40.5442C29.3777 40.5923 29.1249 40.6201 28.8711 40.6282L28.8584 40.6292C28.677 40.6309 28.2183 40.6113 28.0029 40.5784V40.5793C28.0013 40.5791 27.9997 40.5786 27.998 40.5784H27.9971V40.5774C27.5862 40.516 27.2006 40.3393 26.8896 40.0647L26.875 40.052L26.8613 40.0383C26.5981 39.772 26.3984 39.4503 26.2773 39.0969L26.2783 39.0959C25.9645 38.2893 25.8688 37.4165 26.0049 36.5627C26.1252 35.808 26.4219 35.0931 26.8682 34.4719L27.0684 34.2112C27.4489 33.712 27.9865 33.3521 28.5957 33.1868L28.6143 33.1819L28.6328 33.178Z" fill="white" stroke="#444444" stroke-width="1.14198"/>
<path d="M28.384 35.537C28.168 35.6164 27.9733 35.7419 27.8143 35.9042C27.6552 36.0665 27.5359 36.2614 27.4652 36.4746C27.3787 36.684 27.3408 36.9093 27.3542 37.1345C27.3676 37.3598 27.4319 37.5794 27.5426 37.7778C27.7634 38.1328 28.1056 38.4016 28.5097 38.5372C28.9045 38.6873 29.3431 38.6873 29.7379 38.5372C29.9624 38.4633 30.1664 38.3402 30.3341 38.1777C30.5017 38.0151 30.6286 37.8173 30.7049 37.5997C30.7913 37.3918 30.8291 37.168 30.8158 36.9443C30.8024 36.7206 30.7381 36.5026 30.6276 36.3058C30.4153 35.9417 30.0704 35.6675 29.6605 35.537C29.249 35.3874 28.7955 35.3874 28.384 35.537Z" fill="#08A521"/>
<path d="M39.1286 37.7854C39.1286 37.7854 40.0668 35.953 42.0604 35.953C44.054 35.953 44.9922 37.7854 44.9922 37.7854" stroke="#444444" stroke-width="1.28473" stroke-linecap="round"/>
<path d="M27.9219 47.1638C29.6022 48.5455 31.3543 49.4309 33.1757 49.8198C34.1928 50.0371 35.1975 50.0943 36.1899 49.9914C37.2367 49.8816 38.187 49.5979 39.0358 49.1403C39.8426 48.7103 40.6221 48.0857 41.3794 47.2667C41.857 46.752 42.4757 45.965 43.2404 44.9104" stroke="#444444" stroke-width="1.28473" stroke-linecap="round"/>
</g>
<defs>
<clipPath id="clip0_20175_4201485">
<rect width="58.5" height="58" fill="white"/>
</clipPath>
</defs>
</svg>
