<svg width="59" height="58" viewBox="0 0 59 58" fill="none" xmlns="http://www.w3.org/2000/svg">
<g clip-path="url(#clip0_12503_127399)">
<path d="M27.1904 1.59277C28.6375 1.15546 29.8163 1.2608 30.6797 1.95117C31.5021 2.60892 31.8609 3.66537 32.0244 4.70605C32.191 5.76649 32.1766 6.96244 32.127 8.05762C32.0755 9.19087 31.9912 10.1716 31.9912 10.9482H31.9902C32.0264 12.3822 31.9837 13.856 31.9453 15.3164C31.9066 16.7901 31.8731 18.2538 31.9238 19.6963C31.9968 21.7717 32.2465 23.7673 32.8916 25.623C32.8471 24.9526 32.7722 24.193 32.6963 23.4111C32.588 22.296 32.4825 21.1296 32.5117 20.2275C32.5261 19.7831 32.5743 19.3369 32.7051 18.9746C32.8332 18.6197 33.1251 18.1428 33.7275 18.0791C35.6771 17.8732 37.2422 18.0614 38.5371 18.5879C39.8369 19.1164 40.8094 19.9637 41.6074 20.9834C42.3967 21.9919 43.0262 23.1845 43.6338 24.4131C43.8264 24.8026 44.0184 25.1952 44.2119 25.5908C44.2102 25.5807 44.2077 25.5706 44.2061 25.5605C44.1749 25.3708 44.1458 25.1138 44.2002 24.8662C44.2296 24.7327 44.29 24.5712 44.4131 24.4248C44.5421 24.2715 44.7096 24.1714 44.8906 24.1221C45.1858 24.0418 45.4823 24.1065 45.7168 24.1855C48.5721 24.8614 50.2901 26.9394 51.2178 29.3525C52.1417 31.7559 52.3145 34.5569 52.0732 36.8809V36.8838C51.6573 40.7498 50.5075 45.0754 48.4062 48.7227C46.3026 52.374 43.2139 55.3941 38.915 56.5166L38.8906 56.5225L38.8652 56.5273C31.827 57.83 23.8549 56.9182 18.9131 50.876L18.1875 50.0195C14.6834 45.9472 12.9325 44.9099 11.1748 44.3564C9.24072 43.7475 6.88996 43.6565 2.40918 41.2598V41.2607C1.89758 40.9879 1.49981 40.6328 1.2334 40.1992C0.966501 39.7646 0.854505 39.2887 0.854492 38.8105C0.854492 37.8795 1.27763 36.9247 1.82422 36.0889C2.38041 35.2384 3.11693 34.4312 3.86035 33.7783C4.59578 33.1325 5.38407 32.597 6.05859 32.3311L6.06445 32.3281C8.6992 31.319 11.1634 31.9861 13.3652 33.1191C14.4649 33.685 15.5229 34.3795 16.5244 35.0625C17.4945 35.724 18.3993 36.3633 19.2793 36.9092C19.367 36.9143 19.4337 36.8993 19.4912 36.8721C19.5796 36.8302 19.696 36.7394 19.8281 36.5518C20.1031 36.1612 20.349 35.489 20.54 34.5322C20.9181 32.6395 21.0222 29.9498 20.9834 27.0693C20.9448 24.2016 20.7665 21.1942 20.5967 18.6865C20.4314 16.2467 20.2699 14.2289 20.2646 13.335C19.6983 8.47742 22.1855 3.27589 27.1699 1.59961L27.1807 1.59668L27.1904 1.59277Z" fill="white" stroke="#444444" stroke-width="1.41602"/>
<path d="M28.6436 33.3682C28.983 33.3005 29.3327 33.2993 29.6729 33.3633C30.0013 33.4251 30.3143 33.549 30.5967 33.7256L30.5977 33.7246C31.0503 33.9773 31.4319 34.3378 31.7051 34.7744C31.9442 35.1567 32.0933 35.5862 32.1416 36.0312L32.1562 36.2227V36.2275C32.1851 37.0452 32.0504 37.8599 31.7627 38.6279C31.5808 39.3071 31.1635 39.9007 30.585 40.3105L30.5684 40.3232L30.5498 40.334C30.2688 40.5033 29.9578 40.6182 29.6338 40.6748C29.3851 40.7224 29.1331 40.7508 28.8799 40.7588L28.8672 40.7598C28.6857 40.7615 28.2273 40.7425 28.0127 40.71C28.0111 40.7097 28.0094 40.7102 28.0078 40.71H28.0068V40.709C27.5977 40.6484 27.2139 40.4729 26.9033 40.2012L26.8887 40.1885L26.875 40.1748C26.6119 39.9109 26.4113 39.5922 26.29 39.2412L26.291 39.2402C25.9769 38.4397 25.8814 37.5732 26.0176 36.7256C26.1552 35.8691 26.5226 35.064 27.0811 34.3916C27.4618 33.8963 27.9996 33.5404 28.6074 33.377L28.625 33.3721L28.6436 33.3682Z" fill="white" stroke="#444444" stroke-width="1.13281"/>
<path d="M28.3845 35.7207C28.1685 35.7994 27.9736 35.9239 27.8145 36.0849C27.6554 36.2459 27.536 36.4393 27.4653 36.6507C27.3787 36.8585 27.3408 37.082 27.3542 37.3054C27.3676 37.5288 27.4319 37.7466 27.5427 37.9435C27.7636 38.2957 28.106 38.5622 28.5103 38.6968C28.9053 38.8456 29.3441 38.8456 29.7391 38.6968C29.9638 38.6234 30.1678 38.5014 30.3356 38.3401C30.5034 38.1789 30.6303 37.9827 30.7067 37.7668C30.7931 37.5606 30.8309 37.3386 30.8176 37.1167C30.8042 36.8948 30.7399 36.6785 30.6293 36.4833C30.4169 36.1221 30.0718 35.8501 29.6617 35.7207C29.25 35.5723 28.7962 35.5723 28.3845 35.7207Z" fill="#08A521"/>
<path d="M39.1178 37.9453C39.1178 37.9453 40.0564 36.1277 42.0511 36.1277C44.0457 36.1277 44.9844 37.9453 44.9844 37.9453" stroke="#444444" stroke-width="1.27441" stroke-linecap="round"/>
<path d="M27.9219 47.2509C29.6031 48.6216 31.3561 49.4998 33.1784 49.8856C34.1961 50.1012 35.2013 50.1579 36.1942 50.0558C37.2416 49.9469 38.1924 49.6655 39.0416 49.2116C39.8488 48.785 40.6288 48.1654 41.3864 47.353C41.8643 46.8424 42.4833 46.0618 43.2484 45.0156" stroke="#444444" stroke-width="1.27441" stroke-linecap="round"/>
</g>
<defs>
<clipPath id="clip0_12503_127399">
<rect width="58.5" height="58" fill="white"/>
</clipPath>
</defs>
</svg>
