<svg width="410" height="160" viewBox="0 0 410 160" fill="none" xmlns="http://www.w3.org/2000/svg">
<g clip-path="url(#clip0_14758_188191)">
<g clip-path="url(#clip1_14758_188191)">
<g opacity="0.5">
<g clip-path="url(#clip2_14758_188191)">
<path d="M-191.875 91.9573V120.477C-164.899 77.5962 -132.19 33.232 -93.6134 -9.44662C-51.3279 -56.1706 -6.3447 -96.1524 37.2896 -129.055H-118.567C-138.866 -87.1177 -157.615 -38.0339 -172.992 15.4324C-180.545 41.525 -186.817 67.1457 -191.875 91.9573Z" fill="url(#paint0_linear_14758_188191)"/>
<path opacity="0.34" d="M-191.875 91.9573V120.477C-164.899 77.5962 -132.19 33.232 -93.6134 -9.44662C-51.3279 -56.1706 -6.3447 -96.1524 37.2896 -129.055H-118.567C-138.866 -87.1177 -157.615 -38.0339 -172.992 15.4324C-180.545 41.525 -186.817 67.1457 -191.875 91.9573Z" fill="url(#paint1_linear_14758_188191)"/>
<path d="M-93.6134 -9.45731C-132.19 33.2213 -164.899 77.5181 -191.875 120.399V161.527C-159.031 133.681 -114.655 106.443 -61.5115 81.5635C-28.0607 49.0657 9.97603 16.2308 51.8569 -15.9973C59.6126 -56.8556 63.9288 -95.2191 64.9405 -129.133H37.2896C-6.3447 -96.2305 -51.3279 -56.2487 -93.6134 -9.52474V-9.45731Z" fill="url(#paint2_linear_14758_188191)"/>
<path opacity="0.34" d="M-93.6134 -9.45731C-132.19 33.2213 -164.899 77.5181 -191.875 120.399V161.527C-159.031 133.681 -114.655 106.443 -61.5115 81.5635C-28.0607 49.0657 9.97603 16.2308 51.8569 -15.9973C59.6126 -56.8556 63.9288 -95.2191 64.9405 -129.133H37.2896C-6.3447 -96.2305 -51.3279 -56.2487 -93.6134 -9.52474V-9.45731Z" fill="url(#paint3_linear_14758_188191)"/>
<path opacity="0.53" d="M-93.6134 -9.45731C-132.19 33.2213 -164.899 77.5181 -191.875 120.399V161.527C-159.031 133.681 -114.655 106.443 -61.5115 81.5635C-28.0607 49.0657 9.97603 16.2308 51.8569 -15.9973C59.6126 -56.8556 63.9288 -95.2191 64.9405 -129.133H37.2896C-6.3447 -96.2305 -51.3279 -56.2487 -93.6134 -9.52474V-9.45731Z" fill="url(#paint4_linear_14758_188191)"/>
<path d="M367.764 -129.055H242.66C217.572 -89.2752 182.638 -41.3376 140.555 10.7128C168.543 3.49857 197.407 -3.04144 227.082 -8.77238C239.423 -11.1322 251.697 -13.3571 263.837 -15.3798C294.927 -41.9444 337.348 -65.475 387.996 -84.4208V-108.828C387.996 -120.02 378.959 -129.055 367.764 -129.055Z" fill="url(#paint5_linear_14758_188191)"/>
<path opacity="0.49" d="M367.764 -129.055H242.66C217.572 -89.2752 182.638 -41.3376 140.555 10.7128C168.543 3.49857 197.407 -3.04144 227.082 -8.77238C239.423 -11.1322 251.697 -13.3571 263.837 -15.3798C294.927 -41.9444 337.348 -65.475 387.996 -84.4208V-108.828C387.996 -120.02 378.959 -129.055 367.764 -129.055Z" fill="url(#paint6_linear_14758_188191)"/>
<path d="M51.8693 -15.9192C48.3623 2.62206 44.181 21.7027 39.2578 41.1205C71.2923 30.0631 105.148 19.8149 140.554 10.7128C182.637 -41.2702 217.504 -89.2752 242.66 -129.055H219.865C216.695 -127.167 213.593 -125.346 210.423 -123.459C153.166 -89.2078 99.9547 -52.9343 51.9367 -15.9192H51.8693Z" fill="url(#paint7_linear_14758_188191)"/>
<path opacity="0.53" d="M51.8693 -15.9192C48.3623 2.62206 44.181 21.7027 39.2578 41.1205C71.2923 30.0631 105.148 19.8149 140.554 10.7128C182.637 -41.2702 217.504 -89.2752 242.66 -129.055H219.865C216.695 -127.167 213.593 -125.346 210.423 -123.459C153.166 -89.2078 99.9547 -52.9343 51.9367 -15.9192H51.8693Z" fill="url(#paint8_linear_14758_188191)"/>
<path opacity="0.49" d="M51.8693 -15.9192C48.3623 2.62206 44.181 21.7027 39.2578 41.1205C71.2923 30.0631 105.148 19.8149 140.554 10.7128C182.637 -41.2702 217.504 -89.2752 242.66 -129.055H219.865C216.695 -127.167 213.593 -125.346 210.423 -123.459C153.166 -89.2078 99.9547 -52.9343 51.9367 -15.9192H51.8693Z" fill="url(#paint9_linear_14758_188191)"/>
<path d="M-61.5029 81.6389C-30.6823 67.2104 3.03819 53.591 39.1866 41.1178C44.1098 21.7 48.2911 2.6194 51.7981 -15.9219C9.91719 16.3062 -28.1196 49.1411 -61.5703 81.6389H-61.5029Z" fill="url(#paint10_linear_14758_188191)"/>
<path opacity="0.34" d="M-61.5029 81.6389C-30.6823 67.2104 3.03819 53.591 39.1866 41.1178C44.1098 21.7 48.2911 2.6194 51.7981 -15.9219C9.91719 16.3062 -28.1196 49.1411 -61.5703 81.6389H-61.5029Z" fill="url(#paint11_linear_14758_188191)"/>
<path opacity="0.53" d="M-61.5029 81.6389C-30.6823 67.2104 3.03819 53.591 39.1866 41.1178C44.1098 21.7 48.2911 2.6194 51.7981 -15.9219C9.91719 16.3062 -28.1196 49.1411 -61.5703 81.6389H-61.5029Z" fill="url(#paint12_linear_14758_188191)"/>
<path opacity="0.49" d="M-61.5029 81.6389C-30.6823 67.2104 3.03819 53.591 39.1866 41.1178C44.1098 21.7 48.2911 2.6194 51.7981 -15.9219C9.91719 16.3062 -28.1196 49.1411 -61.5703 81.6389H-61.5029Z" fill="url(#paint13_linear_14758_188191)"/>
<path d="M206.301 93.9067C204.143 55.0037 225.319 17.4492 263.828 -15.4531C251.621 -13.4304 239.414 -11.2055 227.073 -8.84569C197.399 -3.11475 168.534 3.42525 140.546 10.6395C112.76 45.0251 81.8722 81.1638 48.6238 117.909C30.617 137.866 12.6777 157.082 -4.99187 175.488C-13.7592 196.726 -22.9986 216.684 -32.5078 235.023H349.411C264.233 201.985 209.538 152.025 206.301 93.9067Z" fill="url(#paint14_linear_14758_188191)"/>
<path opacity="0.49" d="M206.301 93.9067C204.143 55.0037 225.319 17.4492 263.828 -15.4531C251.621 -13.4304 239.414 -11.2055 227.073 -8.84569C197.399 -3.11475 168.534 3.42525 140.546 10.6395C112.76 45.0251 81.8722 81.1638 48.6238 117.909C30.617 137.866 12.6777 157.082 -4.99187 175.488C-13.7592 196.726 -22.9986 216.684 -32.5078 235.023H349.411C264.233 201.985 209.538 152.025 206.301 93.9067Z" fill="url(#paint15_linear_14758_188191)"/>
<path opacity="0.37" d="M206.301 93.9067C204.143 55.0037 225.319 17.4492 263.828 -15.4531C251.621 -13.4304 239.414 -11.2055 227.073 -8.84569C197.399 -3.11475 168.534 3.42525 140.546 10.6395C112.76 45.0251 81.8722 81.1638 48.6238 117.909C30.617 137.866 12.6777 157.082 -4.99187 175.488C-13.7592 196.726 -22.9986 216.684 -32.5078 235.023H349.411C264.233 201.985 209.538 152.025 206.301 93.9067Z" fill="url(#paint16_linear_14758_188191)"/>
<path d="M30.4818 73.4787C20.0285 109.752 8.02393 144.07 -4.99219 175.489C12.6774 157.083 30.5492 137.867 48.6234 117.91C81.8719 81.1649 112.76 45.0263 140.546 10.6406C105.139 19.7427 71.2162 29.991 39.2491 41.0483C36.5515 51.7685 33.6515 62.5562 30.4818 73.4113V73.4787Z" fill="url(#paint17_linear_14758_188191)"/>
<path opacity="0.53" d="M30.4818 73.4787C20.0285 109.752 8.02393 144.07 -4.99219 175.489C12.6774 157.083 30.5492 137.867 48.6234 117.91C81.8719 81.1649 112.76 45.0263 140.546 10.6406C105.139 19.7427 71.2162 29.991 39.2491 41.0483C36.5515 51.7685 33.6515 62.5562 30.4818 73.4113V73.4787Z" fill="url(#paint18_linear_14758_188191)"/>
<path opacity="0.49" d="M30.4818 73.4787C20.0285 109.752 8.02393 144.07 -4.99219 175.489C12.6774 157.083 30.5492 137.867 48.6234 117.91C81.8719 81.1649 112.76 45.0263 140.546 10.6406C105.139 19.7427 71.2162 29.991 39.2491 41.0483C36.5515 51.7685 33.6515 62.5562 30.4818 73.4113V73.4787Z" fill="url(#paint19_linear_14758_188191)"/>
<path opacity="0.37" d="M30.4818 73.4787C20.0285 109.752 8.02393 144.07 -4.99219 175.489C12.6774 157.083 30.5492 137.867 48.6234 117.91C81.8719 81.1649 112.76 45.0263 140.546 10.6406C105.139 19.7427 71.2162 29.991 39.2491 41.0483C36.5515 51.7685 33.6515 62.5562 30.4818 73.4113V73.4787Z" fill="url(#paint20_linear_14758_188191)"/>
<path d="M-4.98357 175.491C8.03256 144.072 20.0371 109.754 30.4904 73.4801C33.5927 62.6251 36.5602 51.77 39.2578 41.1172C3.10939 53.6578 -30.6786 67.2772 -61.4317 81.6383C-114.643 133.352 -156.119 184.323 -183.5 231.182C-180.195 233.609 -176.149 235.025 -171.698 235.025H-63.9945C-44.8412 216.416 -25.0135 196.527 -4.91612 175.491H-4.98357Z" fill="url(#paint21_linear_14758_188191)"/>
<path opacity="0.34" d="M-4.98357 175.491C8.03256 144.072 20.0371 109.754 30.4904 73.4801C33.5927 62.6251 36.5602 51.77 39.2578 41.1172C3.10939 53.6578 -30.6786 67.2772 -61.4317 81.6383C-114.643 133.352 -156.119 184.323 -183.5 231.182C-180.195 233.609 -176.149 235.025 -171.698 235.025H-63.9945C-44.8412 216.416 -25.0135 196.527 -4.91612 175.491H-4.98357Z" fill="url(#paint22_linear_14758_188191)"/>
<path opacity="0.53" d="M-4.98357 175.491C8.03256 144.072 20.0371 109.754 30.4904 73.4801C33.5927 62.6251 36.5602 51.77 39.2578 41.1172C3.10939 53.6578 -30.6786 67.2772 -61.4317 81.6383C-114.643 133.352 -156.119 184.323 -183.5 231.182C-180.195 233.609 -176.149 235.025 -171.698 235.025H-63.9945C-44.8412 216.416 -25.0135 196.527 -4.91612 175.491H-4.98357Z" fill="url(#paint23_linear_14758_188191)"/>
<path opacity="0.49" d="M-4.98357 175.491C8.03256 144.072 20.0371 109.754 30.4904 73.4801C33.5927 62.6251 36.5602 51.77 39.2578 41.1172C3.10939 53.6578 -30.6786 67.2772 -61.4317 81.6383C-114.643 133.352 -156.119 184.323 -183.5 231.182C-180.195 233.609 -176.149 235.025 -171.698 235.025H-63.9945C-44.8412 216.416 -25.0135 196.527 -4.91612 175.491H-4.98357Z" fill="url(#paint24_linear_14758_188191)"/>
<path opacity="0.37" d="M-4.98357 175.491C8.03256 144.072 20.0371 109.754 30.4904 73.4801C33.5927 62.6251 36.5602 51.77 39.2578 41.1172C3.10939 53.6578 -30.6786 67.2772 -61.4317 81.6383C-114.643 133.352 -156.119 184.323 -183.5 231.182C-180.195 233.609 -176.149 235.025 -171.698 235.025H-63.9945C-44.8412 216.416 -25.0135 196.527 -4.91612 175.491H-4.98357Z" fill="url(#paint25_linear_14758_188191)"/>
<rect x="204.5" y="-104" width="414" height="414" rx="207" fill="url(#paint26_linear_14758_188191)"/>
</g>
</g>
<g opacity="0.2" style="mix-blend-mode:plus-lighter">
<rect width="410" height="160" fill="white" fill-opacity="0.5"/>
</g>
</g>
</g>
<defs>
<linearGradient id="paint0_linear_14758_188191" x1="-191.875" y1="-4.3225" x2="37.2896" y2="-4.3225" gradientUnits="userSpaceOnUse">
<stop stop-color="white"/>
<stop offset="1" stop-color="#231F20"/>
</linearGradient>
<linearGradient id="paint1_linear_14758_188191" x1="-207.724" y1="-4.3225" x2="65.1428" y2="-4.3225" gradientUnits="userSpaceOnUse">
<stop stop-color="white"/>
<stop offset="1" stop-color="#231F20"/>
</linearGradient>
<linearGradient id="paint2_linear_14758_188191" x1="-191.875" y1="16.2308" x2="64.9405" y2="16.2308" gradientUnits="userSpaceOnUse">
<stop stop-color="white"/>
<stop offset="1" stop-color="#231F20"/>
</linearGradient>
<linearGradient id="paint3_linear_14758_188191" x1="-207.724" y1="16.2308" x2="65.1428" y2="16.2308" gradientUnits="userSpaceOnUse">
<stop stop-color="white"/>
<stop offset="1" stop-color="#231F20"/>
</linearGradient>
<linearGradient id="paint4_linear_14758_188191" x1="-288.653" y1="16.2308" x2="286.349" y2="16.2308" gradientUnits="userSpaceOnUse">
<stop stop-color="white"/>
<stop offset="1" stop-color="#231F20"/>
</linearGradient>
<linearGradient id="paint5_linear_14758_188191" x1="140.555" y1="-59.2047" x2="387.996" y2="-59.2047" gradientUnits="userSpaceOnUse">
<stop stop-color="white"/>
<stop offset="1" stop-color="#231F20"/>
</linearGradient>
<linearGradient id="paint6_linear_14758_188191" x1="-220.862" y1="-59.2047" x2="878.09" y2="-59.2047" gradientUnits="userSpaceOnUse">
<stop stop-color="white"/>
<stop offset="1" stop-color="#231F20"/>
</linearGradient>
<linearGradient id="paint7_linear_14758_188191" x1="39.2578" y1="-43.9671" x2="242.66" y2="-43.9671" gradientUnits="userSpaceOnUse">
<stop stop-color="white"/>
<stop offset="1" stop-color="#231F20"/>
</linearGradient>
<linearGradient id="paint8_linear_14758_188191" x1="-288.64" y1="-43.9671" x2="286.362" y2="-43.9671" gradientUnits="userSpaceOnUse">
<stop stop-color="white"/>
<stop offset="1" stop-color="#231F20"/>
</linearGradient>
<linearGradient id="paint9_linear_14758_188191" x1="-220.862" y1="-43.9671" x2="878.089" y2="-43.9671" gradientUnits="userSpaceOnUse">
<stop stop-color="white"/>
<stop offset="1" stop-color="#231F20"/>
</linearGradient>
<linearGradient id="paint10_linear_14758_188191" x1="-61.5029" y1="32.8922" x2="51.8655" y2="32.8922" gradientUnits="userSpaceOnUse">
<stop stop-color="white"/>
<stop offset="1" stop-color="#231F20"/>
</linearGradient>
<linearGradient id="paint11_linear_14758_188191" x1="-207.715" y1="32.8922" x2="65.1514" y2="32.8922" gradientUnits="userSpaceOnUse">
<stop stop-color="white"/>
<stop offset="1" stop-color="#231F20"/>
</linearGradient>
<linearGradient id="paint12_linear_14758_188191" x1="-288.644" y1="32.8922" x2="286.358" y2="32.8922" gradientUnits="userSpaceOnUse">
<stop stop-color="white"/>
<stop offset="1" stop-color="#231F20"/>
</linearGradient>
<linearGradient id="paint13_linear_14758_188191" x1="-220.866" y1="32.8922" x2="878.086" y2="32.8922" gradientUnits="userSpaceOnUse">
<stop stop-color="white"/>
<stop offset="1" stop-color="#231F20"/>
</linearGradient>
<linearGradient id="paint14_linear_14758_188191" x1="-32.5078" y1="109.818" x2="349.411" y2="109.818" gradientUnits="userSpaceOnUse">
<stop stop-color="white"/>
<stop offset="1" stop-color="#231F20"/>
</linearGradient>
<linearGradient id="paint15_linear_14758_188191" x1="-220.871" y1="109.818" x2="878.081" y2="109.818" gradientUnits="userSpaceOnUse">
<stop stop-color="white"/>
<stop offset="1" stop-color="#231F20"/>
</linearGradient>
<linearGradient id="paint16_linear_14758_188191" x1="-255.198" y1="109.818" x2="782.382" y2="109.818" gradientUnits="userSpaceOnUse">
<stop stop-color="white"/>
<stop offset="1" stop-color="#231F20"/>
</linearGradient>
<linearGradient id="paint17_linear_14758_188191" x1="-4.99219" y1="93.0987" x2="140.546" y2="93.0987" gradientUnits="userSpaceOnUse">
<stop stop-color="white"/>
<stop offset="1" stop-color="#231F20"/>
</linearGradient>
<linearGradient id="paint18_linear_14758_188191" x1="-288.649" y1="93.0987" x2="286.353" y2="93.0987" gradientUnits="userSpaceOnUse">
<stop stop-color="white"/>
<stop offset="1" stop-color="#231F20"/>
</linearGradient>
<linearGradient id="paint19_linear_14758_188191" x1="-220.871" y1="93.0987" x2="878.081" y2="93.0987" gradientUnits="userSpaceOnUse">
<stop stop-color="white"/>
<stop offset="1" stop-color="#231F20"/>
</linearGradient>
<linearGradient id="paint20_linear_14758_188191" x1="-255.198" y1="93.0987" x2="782.382" y2="93.0987" gradientUnits="userSpaceOnUse">
<stop stop-color="white"/>
<stop offset="1" stop-color="#231F20"/>
</linearGradient>
<linearGradient id="paint21_linear_14758_188191" x1="-183.567" y1="138.071" x2="39.2578" y2="138.071" gradientUnits="userSpaceOnUse">
<stop stop-color="white"/>
<stop offset="1" stop-color="#231F20"/>
</linearGradient>
<linearGradient id="paint22_linear_14758_188191" x1="-207.711" y1="138.071" x2="65.1551" y2="138.071" gradientUnits="userSpaceOnUse">
<stop stop-color="white"/>
<stop offset="1" stop-color="#231F20"/>
</linearGradient>
<linearGradient id="paint23_linear_14758_188191" x1="-288.641" y1="138.071" x2="286.362" y2="138.071" gradientUnits="userSpaceOnUse">
<stop stop-color="white"/>
<stop offset="1" stop-color="#231F20"/>
</linearGradient>
<linearGradient id="paint24_linear_14758_188191" x1="-220.862" y1="138.071" x2="878.09" y2="138.071" gradientUnits="userSpaceOnUse">
<stop stop-color="white"/>
<stop offset="1" stop-color="#231F20"/>
</linearGradient>
<linearGradient id="paint25_linear_14758_188191" x1="-255.19" y1="138.071" x2="782.391" y2="138.071" gradientUnits="userSpaceOnUse">
<stop stop-color="white"/>
<stop offset="1" stop-color="#231F20"/>
</linearGradient>
<linearGradient id="paint26_linear_14758_188191" x1="204.556" y1="102.947" x2="414.5" y2="102.947" gradientUnits="userSpaceOnUse">
<stop stop-color="#DADADA"/>
<stop offset="1" stop-color="#999999"/>
</linearGradient>
<clipPath id="clip0_14758_188191">
<rect width="410" height="160" rx="15" fill="white"/>
</clipPath>
<clipPath id="clip1_14758_188191">
<rect width="410" height="160" rx="15" fill="white"/>
</clipPath>
<clipPath id="clip2_14758_188191">
<rect width="410" height="160" rx="15" fill="white"/>
</clipPath>
</defs>
</svg>
