<svg width="580" height="160" viewBox="0 0 580 160" fill="none" xmlns="http://www.w3.org/2000/svg">
<g clip-path="url(#clip0_18567_257693)">
<path d="M23.4885 81.5635C51.4202 54.4275 82.5495 27.0565 116.444 0L0.500005 0L0.5 104.769C7.92195 97.0825 15.5342 89.2939 23.4885 81.5635Z" fill="url(#paint0_linear_18567_257693)"/>
<path d="M116.448 0C82.5531 27.0565 51.4239 54.4275 23.4922 81.5635C54.2453 67.2024 88.0418 53.6585 124.19 41.1178C127.716 27.2134 130.858 13.4845 133.649 0L116.448 0Z" fill="url(#paint1_linear_18567_257693)"/>
<path fill-rule="evenodd" clip-rule="evenodd" d="M86.25 160C96.8716 132.903 106.721 103.877 115.482 73.4786C118.584 62.6235 121.489 51.7705 124.187 41.1177C88.0382 53.6583 54.2416 67.2023 23.4885 81.5633C15.5342 89.2937 7.92195 97.0824 0.500002 104.768L0.5 160H86.25Z" fill="url(#paint2_linear_18567_257693)"/>
<path d="M225.547 10.6395C228.45 7.04854 231.328 3.55048 234.163 0L133.647 0C130.856 13.4845 127.713 27.2134 124.188 41.1178C156.222 30.0605 190.14 19.7416 225.547 10.6395Z" fill="url(#paint3_linear_18567_257693)"/>
<path d="M234.163 0C231.328 3.55048 228.45 7.04854 225.547 10.6395C240.03 6.90622 254.749 3.35349 269.692 0L234.163 0Z" fill="url(#paint4_linear_18567_257693)"/>
<path d="M269.693 0L316.904 0C299.47 30.3337 289.5 65.5025 289.5 103C289.5 122.77 292.271 141.892 297.447 160H94.7578C107.627 146.374 120.609 132.336 133.625 117.909C166.873 81.1638 197.761 45.0251 225.547 10.6395C240.031 6.90622 254.749 3.35349 269.693 0Z" fill="url(#paint5_linear_18567_257693)"/>
<path d="M225.546 10.6394C190.139 19.7415 156.221 30.0604 124.187 41.1177C121.489 51.7705 118.584 62.6235 115.482 73.4786C106.721 103.877 96.8717 132.903 86.25 160H94.7567C107.608 146.376 120.561 132.333 133.624 117.909C166.872 81.1637 197.76 45.025 225.546 10.6394Z" fill="url(#paint6_linear_18567_257693)"/>
<path d="M297.447 160C292.271 141.892 289.5 122.77 289.5 103C289.5 65.5025 299.47 30.3337 316.905 0L579.5 3.76452e-07V160H297.447Z" fill="url(#paint7_linear_18567_257693)"/>
</g>
<defs>
<linearGradient id="paint0_linear_18567_257693" x1="0.5" y1="52" x2="116.5" y2="52" gradientUnits="userSpaceOnUse">
<stop stop-color="#EEEDED"/>
<stop offset="1" stop-color="#CBCACA"/>
</linearGradient>
<linearGradient id="paint1_linear_18567_257693" x1="23.5" y1="40.8099" x2="133.5" y2="40.8099" gradientUnits="userSpaceOnUse">
<stop stop-color="white"/>
<stop offset="1" stop-color="#E1E0E0"/>
</linearGradient>
<linearGradient id="paint2_linear_18567_257693" x1="0.5" y1="101" x2="124.5" y2="101" gradientUnits="userSpaceOnUse">
<stop stop-color="white"/>
<stop offset="1" stop-color="#EAE9EA"/>
</linearGradient>
<linearGradient id="paint3_linear_18567_257693" x1="124.5" y1="21" x2="234.5" y2="21" gradientUnits="userSpaceOnUse">
<stop stop-color="#FBFAFB"/>
<stop offset="1" stop-color="#E2E1E1"/>
</linearGradient>
<linearGradient id="paint4_linear_18567_257693" x1="225.5" y1="5" x2="269.5" y2="5" gradientUnits="userSpaceOnUse">
<stop stop-color="white"/>
<stop offset="1" stop-color="#FBFBFB"/>
</linearGradient>
<linearGradient id="paint5_linear_18567_257693" x1="94.5" y1="80" x2="316.5" y2="80" gradientUnits="userSpaceOnUse">
<stop stop-color="white"/>
<stop offset="1" stop-color="#DFDEDE"/>
</linearGradient>
<linearGradient id="paint6_linear_18567_257693" x1="86.5" y1="84.9999" x2="225.5" y2="84.9999" gradientUnits="userSpaceOnUse">
<stop stop-color="#FDFDFD"/>
<stop offset="1" stop-color="#DFDEDE"/>
</linearGradient>
<linearGradient id="paint7_linear_18567_257693" x1="289.5" y1="102.947" x2="579.5" y2="102.947" gradientUnits="userSpaceOnUse">
<stop stop-color="white"/>
<stop offset="1" stop-color="#E7E7E7"/>
</linearGradient>
<clipPath id="clip0_18567_257693">
<rect width="580" height="160" fill="white"/>
</clipPath>
</defs>
</svg>
