<svg width="380" height="380" viewBox="0 0 380 380" fill="none" xmlns="http://www.w3.org/2000/svg">
<g clip-path="url(#clip0_12536_130795)">
<g filter="url(#filter0_d_12536_130795)">
<path d="M304.84 224.205C300.598 263.977 281.409 312.795 239.192 323.913C203.186 330.634 163.444 325.732 139.003 295.562C97.1897 245.026 97.9471 268.98 52.1449 244.268C34.6724 234.868 58.9117 208.893 70.7284 204.193C95.3212 194.692 117.288 216.271 136.781 228.298C160.212 233.352 146.88 118.534 146.88 100.947C144.002 76.7907 156.273 51.3205 180.26 43.1841C207.782 34.7951 200.459 71.9898 200.459 88.6668C201.217 118.382 195.409 151.635 210.559 178.47C217.315 176.322 205.231 130.62 213.551 129.734C252.339 125.601 255.848 153.59 271.612 181.098L272.42 180.794C276.943 174.539 265.855 158.457 274.541 161.641C301.255 167.958 307.264 200.655 304.84 224.205Z" fill="white"/>
<path d="M179.178 39.6348C186.71 37.3389 192.855 37.8875 197.356 41.5176C201.635 44.9685 203.498 50.5059 204.347 55.9551C205.212 61.5099 205.139 67.772 204.881 73.5117C204.615 79.4315 204.173 84.561 204.17 88.627C204.36 96.1541 204.136 103.89 203.937 111.558C203.735 119.283 203.557 126.957 203.821 134.52C204.199 145.338 205.478 155.746 208.789 165.428C208.556 161.95 208.163 158.024 207.774 153.984C207.212 148.139 206.663 142.027 206.814 137.302C206.889 134.974 207.138 132.639 207.816 130.744C208.477 128.898 209.995 126.381 213.158 126.044L214.103 125.948C223.804 125.027 231.649 126.037 238.178 128.714C244.942 131.488 250.001 135.931 254.147 141.275C258.249 146.562 261.518 152.813 264.676 159.252C265.646 161.23 266.606 163.227 267.58 165.235C267.419 164.243 267.275 162.907 267.556 161.62C267.708 160.924 268.017 160.083 268.656 159.315C269.329 158.508 270.206 157.976 271.16 157.715C272.755 157.277 274.354 157.647 275.592 158.078C290.386 161.654 299.28 172.531 304.085 185.139C308.885 197.731 309.785 212.408 308.531 224.585L308.53 224.599C306.369 244.859 300.397 267.529 289.479 286.645C278.549 305.779 262.494 321.614 240.137 327.502L240.006 327.536L239.873 327.562C203.282 334.392 161.833 329.609 136.144 297.928L134.229 295.631C114.77 272.459 105.373 266.761 95.9463 263.768C85.9053 260.579 73.6748 260.101 50.3828 247.534V247.533C44.8585 244.56 42.3047 239.945 42.3047 234.701C42.3048 229.83 44.4988 224.831 47.3398 220.449C50.2301 215.991 54.0571 211.761 57.9219 208.338C61.7443 204.952 65.8438 202.141 69.3564 200.744L69.374 200.737L69.3906 200.731C83.1058 195.433 95.93 198.938 107.377 204.879C113.094 207.846 118.593 211.485 123.798 215.064C128.835 218.529 133.525 221.884 138.093 224.743C138.535 224.768 138.868 224.683 139.157 224.545C139.608 224.33 140.212 223.86 140.899 222.875C142.329 220.827 143.61 217.301 144.604 212.284C146.569 202.36 147.108 188.26 146.906 173.162C146.706 158.13 145.777 142.369 144.895 129.225C144.035 116.426 143.197 105.844 143.171 101.165C140.233 75.73 153.142 48.4641 179.067 39.6699L179.123 39.6514L179.178 39.6348Z" stroke="#262626" stroke-width="7.42188"/>
</g>
<path d="M186.726 206.231C188.496 205.875 190.321 205.865 192.095 206.202C193.84 206.534 195.505 207.196 196.997 208.152C199.317 209.477 201.27 211.35 202.672 213.61C204.003 215.757 204.796 218.183 204.984 220.69L205.014 221.192V221.204L205.015 221.215C205.165 225.502 204.468 229.774 202.971 233.802C202.026 237.352 199.859 240.462 196.851 242.611L196.761 242.676L196.667 242.732C195.204 243.622 193.585 244.229 191.896 244.527C190.6 244.778 189.286 244.925 187.966 244.967L187.933 244.968L187.9 244.969C186.958 244.978 184.574 244.882 183.453 244.711V244.712C183.445 244.711 183.437 244.709 183.43 244.708C183.427 244.708 183.424 244.707 183.422 244.707V244.706C181.285 244.387 179.282 243.463 177.665 242.035L177.59 241.968L177.519 241.896C176.164 240.526 175.133 238.875 174.502 237.061C172.852 232.85 172.355 228.288 173.065 223.828C173.777 219.363 175.672 215.164 178.554 211.648C180.534 209.028 183.347 207.142 186.534 206.277L186.629 206.251L186.726 206.231Z" fill="white" stroke="#262626" stroke-width="5.9375"/>
<path d="M185.454 218.497C184.331 218.91 183.319 219.563 182.492 220.406C181.665 221.25 181.044 222.264 180.677 223.372C180.227 224.461 180.03 225.632 180.1 226.803C180.169 227.974 180.504 229.116 181.079 230.148C182.227 231.994 184.006 233.391 186.107 234.097C188.16 234.877 190.44 234.877 192.493 234.097C193.66 233.712 194.721 233.072 195.593 232.227C196.465 231.382 197.124 230.354 197.521 229.222C197.97 228.141 198.167 226.978 198.097 225.815C198.028 224.651 197.694 223.518 197.119 222.495C196.015 220.601 194.222 219.176 192.091 218.497C189.951 217.72 187.593 217.72 185.454 218.497Z" fill="#08A521"/>
<path d="M241.272 230.184C241.272 230.184 246.149 220.657 256.515 220.657C266.88 220.657 271.758 230.184 271.758 230.184" stroke="#262626" stroke-width="6.67969" stroke-linecap="round"/>
<path d="M182.992 278.946C191.729 286.131 200.838 290.734 210.308 292.756C215.597 293.886 220.821 294.183 225.98 293.648C231.423 293.077 236.364 291.602 240.777 289.223C244.971 286.987 249.025 283.74 252.962 279.482C255.445 276.805 258.662 272.714 262.638 267.23" stroke="#262626" stroke-width="6.67969" stroke-linecap="round"/>
</g>
<defs>
<filter id="filter0_d_12536_130795" x="-20.8368" y="-24.8797" width="393.017" height="418.283" filterUnits="userSpaceOnUse" color-interpolation-filters="sRGB">
<feFlood flood-opacity="0" result="BackgroundImageFix"/>
<feColorMatrix in="SourceAlpha" type="matrix" values="0 0 0 0 0 0 0 0 0 0 0 0 0 0 0 0 0 0 127 0" result="hardAlpha"/>
<feOffset/>
<feGaussianBlur stdDeviation="29.7153"/>
<feComposite in2="hardAlpha" operator="out"/>
<feColorMatrix type="matrix" values="0 0 0 0 0.14902 0 0 0 0 0.14902 0 0 0 0 0.14902 0 0 0 0.15 0"/>
<feBlend mode="normal" in2="BackgroundImageFix" result="effect1_dropShadow_12536_130795"/>
<feBlend mode="normal" in="SourceGraphic" in2="effect1_dropShadow_12536_130795" result="shape"/>
</filter>
<clipPath id="clip0_12536_130795">
<rect width="380" height="380" fill="white"/>
</clipPath>
</defs>
</svg>
