<svg width="739" height="807" viewBox="0 0 739 807" fill="none" xmlns="http://www.w3.org/2000/svg">
<path d="M717.464 511.067C706.033 618.242 654.322 749.794 540.559 779.754C443.534 797.866 336.438 784.657 270.575 703.356C157.901 567.174 159.942 631.724 36.5168 565.131C-10.5671 539.802 54.7516 469.804 86.5944 457.139C152.866 431.537 251.992 518.723 264.588 522.098C327.729 535.716 291.804 226.311 291.804 178.919C284.047 113.824 317.115 45.1887 381.753 23.2634C455.917 0.657211 436.185 100.887 436.185 145.827C438.226 225.902 422.577 315.51 463.401 387.822C481.606 382.035 449.043 258.88 471.464 256.491C575.986 245.355 585.444 320.777 627.922 394.904C645.492 386.895 612.409 333.894 635.815 342.474C707.802 359.497 723.995 447.606 717.464 511.067Z" fill="white"/>
<path d="M375.922 4.13233C397.976 -2.58996 418.423 -1.65572 434.102 10.9898C448.582 22.6689 454.137 40.6937 456.542 56.1372C459.036 72.1507 458.789 89.8652 458.089 105.437C457.344 122.003 456.197 134.989 456.186 145.672C456.696 166.202 456.086 187.256 455.551 207.773C455.241 219.664 454.956 231.408 454.897 243.022C458.403 239.825 463.106 237.268 469.345 236.603L470.678 236.465C498.596 233.651 521.86 236.388 541.62 244.491C561.827 252.777 576.781 266.024 588.761 281.463C599.457 295.249 608.038 311.144 615.928 327.012C617.363 325.825 619.031 324.746 620.97 323.834C629.053 320.035 636.916 321.758 641.426 323.253C685.191 333.999 711.095 366.347 724.772 402.233C738.41 438.012 740.848 479.215 737.358 513.115L737.354 513.151L737.351 513.188C731.42 568.791 715.022 631.294 684.753 684.286C654.426 737.379 609.266 782.341 545.652 799.094L544.946 799.28L544.229 799.415C444.046 818.116 327.752 805.548 255.166 716.105L252.583 712.995C198.814 648.481 174.599 634.537 151.524 627.209C126.411 619.235 90.8415 617.167 27.0205 582.733C9.0169 573.039 0 557.291 0 539.352C3.61493e-05 523.42 7.07705 507.999 15.1768 495.505C23.5415 482.603 34.4894 470.534 45.4531 460.823C56.1887 451.313 68.232 442.918 79.2031 438.554L79.2949 438.518L79.3867 438.483C101.131 430.082 124.274 431.403 145.369 436.591C166.532 441.796 187.24 451.28 205.345 461.22C223.539 471.209 239.829 482.069 252.047 490.398C258.322 494.675 263.166 498.039 267.021 500.571C267.326 500.772 267.619 500.96 267.896 501.139C270.45 497.146 273.394 489.448 275.858 477C280.938 451.348 282.417 414.238 281.875 373.654C281.338 333.425 278.852 291.17 276.476 255.789C274.221 222.216 271.945 193.442 271.81 180.115C263.722 108.109 300.242 29.792 375.328 4.32276L375.623 4.22315L375.922 4.13233ZM436.186 145.827C436.186 100.887 455.917 0.656986 381.753 23.2632L380.244 23.7857C316.601 46.2606 284.108 114.332 291.804 178.918L291.811 180.078C292.359 231.126 327.236 535.608 264.588 522.097C251.993 518.722 152.866 431.537 86.5947 457.138C54.7519 469.803 -10.5672 539.802 36.5166 565.131C159.942 631.724 157.901 567.174 270.575 703.356C336.438 784.656 443.533 797.866 540.559 779.753C653.433 750.027 705.221 620.292 717.188 513.583L717.464 511.067C723.996 447.606 707.802 359.496 635.815 342.473C612.41 333.894 645.492 386.894 627.923 394.904L626.933 393.166C585.291 319.603 575.169 245.441 471.464 256.491C449.043 258.88 481.606 382.033 463.401 387.822L462.455 386.124C422.821 314.109 438.211 225.276 436.186 145.827Z" fill="#262626"/>
<path d="M399.161 462.635C403.932 461.675 408.848 461.649 413.629 462.557C418.324 463.448 422.804 465.226 426.819 467.796C433.08 471.366 438.35 476.42 442.133 482.519C445.839 488.495 447.996 495.278 448.407 502.272L448.442 502.95L448.443 502.98L448.444 503.01C448.849 514.577 446.973 526.107 442.927 536.972C440.374 546.521 434.539 554.884 426.443 560.668L426.202 560.841L425.949 560.994C422.007 563.391 417.644 565.029 413.093 565.832L413.094 565.833C409.601 566.508 406.059 566.903 402.502 567.016L402.414 567.019L402.326 567.02C399.787 567.044 393.361 566.788 390.341 566.327C390.321 566.324 390.302 566.321 390.282 566.318C390.274 566.317 390.265 566.317 390.257 566.315V566.314C384.499 565.455 379.103 562.962 374.745 559.114L374.541 558.935L374.35 558.741C370.715 555.064 367.945 550.637 366.242 545.771C361.777 534.409 360.431 522.092 362.35 510.053C364.265 498.032 369.364 486.73 377.117 477.262C382.456 470.184 390.043 465.091 398.644 462.757L398.9 462.687L399.161 462.635Z" fill="white" stroke="#262626" stroke-width="16"/>
<path d="M395.738 495.685C392.713 496.797 389.985 498.555 387.756 500.83C385.528 503.104 383.856 505.835 382.866 508.821C381.654 511.756 381.123 514.912 381.31 518.068C381.497 521.223 382.399 524.3 383.95 527.08C387.044 532.055 391.838 535.82 397.499 537.721C403.031 539.823 409.176 539.823 414.707 537.721C417.853 536.684 420.711 534.96 423.06 532.683C425.41 530.405 427.188 527.634 428.257 524.585C429.467 521.673 429.997 518.537 429.809 515.403C429.622 512.269 428.722 509.214 427.173 506.457C424.199 501.355 419.367 497.513 413.623 495.685C407.858 493.589 401.504 493.589 395.738 495.685Z" fill="#08A521"/>
<path d="M546.152 527.184C546.152 527.184 559.297 501.511 587.228 501.511C615.16 501.511 628.305 527.184 628.305 527.184" stroke="#262626" stroke-width="18" stroke-linecap="round"/>
<path d="M389.117 658.583C412.66 677.943 437.208 690.347 462.727 695.796C476.978 698.841 491.055 699.642 504.958 698.2C519.625 696.661 532.939 692.687 544.832 686.276C556.135 680.25 567.057 671.5 577.667 660.025C584.359 652.814 593.027 641.788 603.741 627.012" stroke="#262626" stroke-width="18" stroke-linecap="round"/>
</svg>
