<svg width="324" height="265" viewBox="0 0 324 265" fill="none" xmlns="http://www.w3.org/2000/svg">
<g clip-path="url(#clip0_19640_185449)">
<path fill-rule="evenodd" clip-rule="evenodd" d="M161.985 113.687L146.242 0H177.728L161.985 113.687Z" fill="url(#paint0_linear_19640_185449)"/>
<path d="M161.992 113.688L323.986 11.5V58.217L161.992 113.688Z" fill="url(#paint1_linear_19640_185449)"/>
<path d="M162.008 113.688L0.0138855 11.5V58.217L162.008 113.688Z" fill="url(#paint2_linear_19640_185449)"/>
<path d="M161.992 131.914V113.685L324 94.9141V131.914H161.992Z" fill="url(#paint3_linear_19640_185449)"/>
<path d="M162.008 131.914V113.685L0 94.9141V131.914H162.008Z" fill="url(#paint4_linear_19640_185449)"/>
<path d="M161.992 113.687L221.215 0H252.7L161.992 113.687Z" fill="url(#paint5_linear_19640_185449)"/>
<path d="M162.008 113.687L102.785 0H71.2997L162.008 113.687Z" fill="url(#paint6_linear_19640_185449)"/>
<rect x="111.75" y="61.75" width="100.496" height="100.5" rx="50.2482" fill="#FFEFB9" stroke="#FFCF31" stroke-width="3.5"/>
<path fill-rule="evenodd" clip-rule="evenodd" d="M165.787 97.3584C166.97 97.5046 168.167 97.7468 169.378 98.0851C171.511 98.6383 173.644 99.5106 175.777 100.702L179.041 92.8511C176.908 91.5319 174.449 90.5532 171.663 89.9149C169.726 89.4413 167.767 89.1324 165.787 88.9883V82H159.258V89.0898C156.641 89.3677 154.355 89.9406 152.402 90.8085C149.573 92.0426 147.44 93.7234 146.003 95.8511C144.611 97.9362 143.914 100.255 143.914 102.809C143.914 105.191 144.393 107.149 145.351 108.681C146.352 110.213 147.636 111.447 149.203 112.383C150.77 113.319 152.489 114.085 154.361 114.681C156.009 115.194 157.642 115.643 159.258 116.03V126.698C157.332 126.521 155.416 126.132 153.512 125.532C150.857 124.638 148.55 123.511 146.591 122.149L143 129.936C145.046 131.468 147.745 132.723 151.096 133.702C153.723 134.436 156.444 134.882 159.258 135.041V142H165.787V134.885C168.317 134.598 170.515 134.034 172.381 133.191C175.254 131.915 177.409 130.234 178.845 128.149C180.282 126.064 181 123.766 181 121.255C181 118.915 180.499 116.979 179.498 115.447C178.541 113.915 177.278 112.681 175.711 111.745C174.144 110.809 172.403 110.064 170.488 109.511C168.936 109.052 167.369 108.637 165.787 108.266V97.3584ZM158.082 97.8936C158.446 97.7634 158.837 97.6514 159.258 97.5574V106.655C157.871 106.246 156.739 105.73 155.863 105.106C154.905 104.383 154.426 103.447 154.426 102.298C154.426 101.319 154.709 100.468 155.275 99.7447C155.841 98.9787 156.777 98.3617 158.082 97.8936ZM166.701 126.234C166.417 126.32 166.113 126.397 165.787 126.463V117.64C167.115 118.047 168.203 118.572 169.052 119.213C170.009 119.894 170.488 120.83 170.488 122.021C170.488 122.957 170.183 123.787 169.574 124.511C168.964 125.234 168.007 125.809 166.701 126.234Z" fill="#FFCF31"/>
<path d="M165.537 126.77L165.837 126.708C166.169 126.64 166.482 126.562 166.773 126.474L166.778 126.472C168.109 126.038 169.115 125.443 169.765 124.672C170.412 123.904 170.738 123.017 170.738 122.021C170.738 120.75 170.221 119.737 169.196 119.009H169.195C168.318 118.348 167.204 117.814 165.86 117.401L165.537 117.302V126.77ZM159.203 97.3135C158.774 97.4094 158.372 97.5242 157.998 97.6582C156.669 98.1347 155.684 98.7733 155.078 99.5908C154.476 100.361 154.176 101.267 154.176 102.298C154.176 103.529 154.695 104.537 155.712 105.306L155.718 105.311C156.623 105.954 157.782 106.48 159.187 106.895L159.508 106.989V97.2451L159.203 97.3135ZM159.508 115.833L159.315 115.787C157.705 115.402 156.079 114.953 154.436 114.442H154.437C152.582 113.852 150.88 113.094 149.331 112.168C147.798 111.252 146.543 110.046 145.562 108.548C144.637 107.067 144.164 105.159 144.164 102.809C144.164 100.304 144.845 98.0332 146.21 95.9902L146.211 95.9912C147.616 93.9103 149.707 92.257 152.502 91.0381L152.504 91.0371C154.428 90.1819 156.687 89.6146 159.284 89.3389L159.508 89.3145V82.25H165.537V89.2207L165.769 89.2373C167.734 89.3805 169.679 89.6879 171.604 90.1582H171.607C174.291 90.7731 176.663 91.7062 178.728 92.9531L175.651 100.351C173.584 99.219 171.514 98.3806 169.44 97.8428H169.439C168.219 97.5022 167.012 97.2579 165.817 97.1104L165.537 97.0752V108.464L165.729 108.51C167.307 108.88 168.87 109.293 170.417 109.75L170.419 109.751C172.315 110.299 174.036 111.035 175.583 111.959C177.116 112.875 178.35 114.081 179.286 115.579L179.289 115.584C180.257 117.065 180.75 118.95 180.75 121.255C180.75 123.714 180.047 125.963 178.64 128.007C177.235 130.046 175.121 131.701 172.28 132.963L172.278 132.964C170.44 133.793 168.269 134.352 165.759 134.637L165.537 134.661V141.75H159.508V134.805L159.271 134.791C156.475 134.633 153.772 134.19 151.163 133.461C147.92 132.514 145.307 131.308 143.312 129.854L146.694 122.521C148.622 123.823 150.868 124.906 153.433 125.769L153.437 125.771C155.357 126.376 157.291 126.769 159.235 126.947L159.508 126.972V115.833Z" stroke="black" stroke-opacity="0.1" stroke-width="0.5"/>
<path d="M0 152.242C0 152.242 6.53364 158.472 15.5923 159.72C24.6441 160.961 43.3875 151.06 52.0173 153.863C52.9701 154.172 54.0727 154.704 54.1067 155.629C54.1203 156.076 53.8685 156.522 53.991 156.956C54.0931 157.317 54.4198 157.573 54.7465 157.796C60.8649 162.011 69.2225 161.808 76.8655 161.368C84.5017 160.934 92.8253 160.613 99.0663 164.67C101.911 166.522 104.123 169.181 107.233 170.632C109.949 171.899 113.086 172.116 116.122 172.313C118.946 172.497 121.839 172.674 124.561 171.958C126.494 171.453 128.257 170.52 129.992 169.595C132.823 168.091 135.389 166.194 138.683 166.036C140.5 165.951 142.27 165.957 144.067 166.292C143.903 166.404 144.577 166.384 144.067 166.292C142 168.5 146.126 173 149.695 174.913C152.452 176.39 155.882 176.055 159.046 175.674C167.214 174.69 175.694 173.6 182.581 169.45C186.161 167.297 189.162 164.388 192.865 162.425C200.222 158.518 209.253 158.794 217.747 159.188C220.007 159.293 222.477 159.477 224.09 160.934C224.757 161.539 225.213 162.313 225.785 162.996C228.603 166.338 233.843 166.968 238.43 166.594C243.024 166.22 247.673 165.123 252.171 166.036C257.718 167.159 262.087 171.157 267.512 172.694C275.053 174.834 283.145 171.893 290.032 168.367C296.927 164.841 303.739 160.573 311.58 159.792C315.418 159.411 319.461 159.871 323 158.466V149.766L0 135V152.242Z" fill="#FAFAFA"/>
<path d="M0 119V149.492C2.35193 150.913 8.08517 153.439 18.6382 153.8C29.1912 154.162 38.4625 148.072 44.2707 147.782C56.2962 147.177 50.7266 150.814 63.986 153.537C65.704 153.892 75.2276 156.26 98.7196 156.359C111.215 156.412 111.624 151.308 124.468 152.695C137.312 154.083 144.033 158.536 160.299 158.964C176.572 159.391 179.128 153.827 195.183 151.308C211.237 148.782 228.662 156.004 235.622 157.813C242.582 159.621 245.8 154.919 257.894 155.701C269.987 156.477 267.22 160.522 277.936 159.944C288.646 159.358 288.919 157.457 299.363 156.911C309.807 156.372 324 158.358 324 158.358V119.013H0V119Z" fill="#F5F5F5"/>
<path d="M5 119.059C5 119.091 73.9472 119.117 158.984 119.117C244.047 119.117 312.981 119.091 312.981 119.059C312.981 119.026 244.047 119 158.984 119C73.9472 119 5 119.026 5 119.059Z" fill="#263238"/>
<rect width="40" height="265" fill="url(#paint7_linear_19640_185449)"/>
<rect width="40" height="265" transform="matrix(-1 0 0 1 324 0)" fill="url(#paint8_linear_19640_185449)"/>
<path d="M115.25 250.636C115.813 245.391 46.458 241.078 46.458 241.078C38.9801 240.34 24.4066 238.145 17.3563 236.287C6.00337 233.302 -0.437747 224.994 11.0707 219.652C18.9504 215.994 33.511 212.581 39.6799 211.357C73.2074 204.701 114.42 202.202 149.309 202.642C190.612 201.858 233.542 203.846 278.228 208.897C314.14 214.323 322.046 228.665 310.453 239.103C301.284 247.359 268.508 255.401 245.031 258.723C194.74 265.839 147.714 266.176 96.9372 260.938C93.0816 260.543 88.0466 258.84 89.3102 256.301C89.7055 255.505 90.6451 254.961 91.7467 254.553C92.9585 254.113 94.2286 253.88 95.5116 253.789C100.268 253.439 115.081 252.209 115.25 250.636Z" fill="#FFCF31"/>
<path d="M190.93 232.995L193.301 236.375H196.347L242.012 103.7L237.301 101.906C235.117 102.366 190.93 232.995 190.93 232.995Z" fill="#AE7461"/>
<path d="M221.023 138.484C221.373 139.333 232.791 208.332 232.791 208.332L237.768 207.632L226.117 138.484H221.023Z" fill="#AE7461"/>
<path d="M227.417 145.375C227.462 145.395 227.209 146.127 226.795 147.305C226.38 148.483 225.816 150.115 225.226 151.935C224.643 153.748 224.144 155.405 223.794 156.603C223.438 157.801 223.218 158.546 223.172 158.533C223.127 158.52 223.27 157.762 223.568 156.539C223.866 155.321 224.326 153.651 224.909 151.825C225.499 150.005 226.101 148.38 226.574 147.214C227.041 146.055 227.378 145.356 227.417 145.375Z" fill="#6F4439"/>
<path d="M241.005 103.312C241.005 103.312 284.149 110.047 301.917 106.084C301.917 106.084 292.586 192.825 276.535 194.502C275.764 194.58 214.1 187.975 213.931 188.078C213.763 188.182 225.453 172.35 231.609 157.017C237.771 141.691 241.005 103.312 241.005 103.312Z" fill="#63B4FF"/>
<path d="M270.617 240.265L271.965 243.49H275.691L306.147 106.094L301.067 104.164L270.617 240.265Z" fill="#AE7461"/>
<path d="M195.78 232.249C196.35 233.285 272.931 240.706 272.931 240.706V236.478L197.471 228.766C197.471 228.759 194.374 229.698 195.78 232.249Z" fill="#AE7461"/>
<path d="M195.762 122.705L192.451 120.076C192.451 120.076 191.103 116.457 190.267 115.09C189.424 113.724 181.985 110.435 181.985 110.435C181.985 110.435 176.678 109.062 176.205 109.658C175.732 110.247 175.771 111.231 176.16 111.387C176.542 111.548 181.098 113.51 181.098 113.51C181.098 113.51 180.463 113.808 179.031 113.323C177.598 112.837 177.009 112.474 176.601 113.323C176.192 114.171 176.529 114.307 177.177 115.317C177.177 115.317 176.367 116.845 178.525 118.308C178.525 118.308 177.832 119.15 179.432 120.329C181.033 121.507 182.407 122.537 183.586 122.971C184.759 123.404 186.735 124.201 186.735 124.201L188.556 126.318L195.762 122.705Z" fill="#FFA686"/>
<path d="M182.543 121.237C182.368 121.043 182.238 120.901 182.238 120.901C181.953 120.428 181.856 118.699 181.415 115.228C181.033 112.23 181.364 110.534 181.616 109.983C182.141 109.802 182.653 109.55 183.12 109.226C186.301 107.011 186.042 102.932 185.154 99.4549C184.344 96.295 183.1 93.5625 183.1 93.5625L178.577 94.1194L178.111 94.1776L173.588 94.7345C173.588 94.7345 173.043 97.6872 173.024 100.951C173.004 104.538 173.73 108.559 177.346 109.938C177.877 110.139 178.428 110.262 178.985 110.314C179.342 110.851 180.061 112.476 180.45 115.351C180.495 115.669 181.26 120.499 181.169 120.933C181.169 120.933 181.053 121.166 180.897 121.444C178.247 121.865 176.27 122.649 176.355 123.296C176.445 124.009 178.998 124.281 182.063 123.905C185.128 123.529 187.539 122.649 187.455 121.937C187.371 121.283 185.239 120.998 182.543 121.237Z" fill="white"/>
<path d="M182.544 121.238C182.544 121.238 183.088 121.16 184.125 121.141C184.643 121.135 185.285 121.135 186.03 121.232C186.399 121.29 186.807 121.355 187.196 121.568C187.293 121.627 187.378 121.698 187.442 121.801C187.488 121.912 187.501 122.048 187.436 122.151C187.319 122.365 187.118 122.507 186.911 122.637C186.062 123.122 185.012 123.407 183.872 123.647C182.725 123.88 181.468 124.048 180.114 124.1C179.44 124.126 178.74 124.12 178.02 124.042C177.664 124.003 177.301 123.938 176.945 123.822C176.77 123.763 176.588 123.679 176.439 123.543C176.368 123.472 176.31 123.368 176.31 123.265C176.31 123.155 176.355 123.051 176.413 122.973C176.666 122.65 177.036 122.488 177.385 122.326C177.742 122.164 178.118 122.035 178.5 121.925C179.265 121.691 180.068 121.53 180.891 121.394L180.852 121.426C180.936 121.271 181.027 121.089 181.118 120.914L181.111 120.927C181.105 120.131 180.949 119.263 180.839 118.402C180.71 117.534 180.58 116.654 180.444 115.747C180.314 114.841 180.172 113.928 179.939 113.015C179.699 112.108 179.42 111.176 178.928 110.347L178.973 110.373C177.023 110.237 175.085 109.026 174.152 107.148C173.173 105.296 172.96 103.108 172.953 100.971C172.973 98.8342 173.173 96.7427 173.517 94.716L173.523 94.6707L173.575 94.6642C176.88 94.2627 180.062 93.8677 183.088 93.4987L183.133 93.4922L183.153 93.5375C183.885 95.2146 184.481 96.8852 184.954 98.5234C185.421 100.162 185.764 101.78 185.784 103.354C185.803 104.914 185.518 106.455 184.721 107.64C183.95 108.832 182.79 109.635 181.623 110.03L181.649 110.004C181.371 110.716 181.325 111.474 181.286 112.166C181.26 112.866 181.286 113.533 181.332 114.161C181.448 115.411 181.604 116.505 181.701 117.437C181.915 119.296 182.019 120.513 182.239 120.901C182.492 121.18 182.544 121.238 182.544 121.238C182.544 121.238 182.492 121.186 182.232 120.908C181.993 120.519 181.883 119.302 181.656 117.444C181.552 116.511 181.39 115.423 181.267 114.167C181.215 113.539 181.189 112.872 181.209 112.166C181.241 111.467 181.286 110.71 181.572 109.971L181.578 109.952L181.597 109.946C182.744 109.551 183.878 108.754 184.637 107.582C185.414 106.417 185.693 104.895 185.673 103.354C185.647 101.8 185.304 100.187 184.837 98.5557C184.364 96.924 183.768 95.2599 183.036 93.5893L183.101 93.6282C180.081 93.9973 176.893 94.3922 173.588 94.8002L173.646 94.7484C173.303 96.7621 173.102 98.8536 173.083 100.977C173.089 103.101 173.303 105.27 174.262 107.09C175.176 108.929 177.068 110.114 178.98 110.25H179.012L179.025 110.276C179.537 111.13 179.809 112.063 180.049 112.982C180.282 113.902 180.425 114.828 180.554 115.728C180.69 116.628 180.82 117.515 180.943 118.383C181.053 119.257 181.209 120.079 181.209 120.947V120.953L181.202 120.966C181.105 121.147 181.014 121.322 180.93 121.484L180.917 121.51L180.891 121.517C180.068 121.653 179.271 121.814 178.513 122.041C178.131 122.151 177.761 122.281 177.411 122.436C177.068 122.598 176.705 122.766 176.485 123.051C176.375 123.187 176.368 123.375 176.498 123.491C176.621 123.608 176.789 123.692 176.958 123.744C177.301 123.861 177.658 123.925 178.014 123.964C178.727 124.042 179.42 124.048 180.094 124.029C181.442 123.984 182.693 123.815 183.84 123.589C184.974 123.356 186.023 123.071 186.859 122.598C187.06 122.475 187.261 122.332 187.365 122.145C187.429 122.054 187.41 121.944 187.378 121.853C187.319 121.769 187.242 121.698 187.151 121.64C186.781 121.432 186.373 121.361 186.01 121.303C185.272 121.199 184.63 121.193 184.112 121.193C183.593 121.199 183.198 121.219 182.932 121.232C182.68 121.238 182.544 121.238 182.544 121.238Z" fill="#263238"/>
<path d="M184.074 99.7266L174.133 100.95C174.107 105.36 175.287 107.963 177.743 108.902C178.455 109.174 179.239 109.284 180.004 109.219C180.898 109.141 181.754 108.831 182.486 108.326C184.644 106.81 185.162 104 184.074 99.7266Z" fill="#FF725E"/>
<g opacity="0.1">
<path d="M182.558 107.544C181.074 108.58 179.156 108.813 177.465 108.165C175.398 107.375 174.4 105.607 173.959 103.6L173.914 103.607C174.251 105.957 175.217 108.126 177.569 109.026C179.26 109.674 181.172 109.434 182.662 108.405C184.768 106.941 185.163 104.552 184.898 102.156L184.859 102.163C184.937 104.248 184.405 106.255 182.558 107.544Z" fill="black"/>
</g>
<path d="M181.817 109.967C181.85 110.025 181.234 110.368 180.385 110.465C179.536 110.569 178.856 110.368 178.875 110.303C178.888 110.232 179.549 110.303 180.359 110.206C181.156 110.122 181.785 109.896 181.817 109.967Z" fill="#263238"/>
<g opacity="0.3">
<path d="M179.555 110.627C179.756 111.151 179.956 111.676 180.151 112.2C180.196 112.317 180.255 112.453 180.371 112.504C180.52 112.569 180.702 112.466 180.779 112.323C180.857 112.181 180.864 112.012 180.877 111.85C180.915 111.41 181.045 110.853 181.207 110.445C180.708 110.62 180.08 110.717 179.555 110.627Z" fill="white"/>
</g>
<path d="M184.08 99.6908C184.126 100.073 181.942 100.662 179.194 100.999C176.447 101.335 174.179 101.297 174.134 100.915C174.088 100.533 176.272 99.9433 179.019 99.6066C181.767 99.2699 184.035 99.3023 184.08 99.6908Z" fill="#FF725E"/>
<g opacity="0.1">
<path d="M184.08 99.6908C184.126 100.073 181.942 100.662 179.194 100.999C176.447 101.335 174.179 101.297 174.134 100.915C174.088 100.533 176.272 99.9433 179.019 99.6066C181.767 99.2699 184.035 99.3023 184.08 99.6908Z" fill="black"/>
</g>
<g opacity="0.3">
<path d="M174.368 94.9766C174.368 94.9766 171.795 103.142 176.772 107.092C176.772 107.092 175.683 105.007 175.625 100.759C175.593 98.2854 176.675 95.2744 176.675 95.2744C175.852 95.2485 175.087 95.1449 174.368 94.9766Z" fill="white"/>
</g>
<path d="M187.45 114.229C184.845 113.186 182.215 112.209 179.558 111.289C179.389 111.231 179.195 111.173 179.033 111.244C178.832 111.328 178.748 111.574 178.78 111.788C178.813 112.001 178.942 112.183 179.078 112.358C180.122 113.691 181.651 114.63 183.31 114.954C182.843 115.55 182.973 116.417 183.258 117.117C184.113 119.228 186.258 120.749 188.533 120.872" fill="#FFA686"/>
<path d="M188.537 120.876C188.537 120.889 188.479 120.889 188.362 120.889C188.245 120.889 188.07 120.883 187.85 120.851C187.409 120.792 186.761 120.643 186.029 120.274C185.303 119.899 184.474 119.303 183.813 118.39C183.483 117.937 183.191 117.412 182.997 116.817C182.815 116.234 182.731 115.47 183.191 114.861L183.288 115.12C182.303 114.926 181.286 114.505 180.385 113.844C180.035 113.592 179.718 113.307 179.426 113.003C179.284 112.854 179.141 112.692 179.011 112.53C178.882 112.375 178.746 112.2 178.668 111.973C178.584 111.753 178.597 111.468 178.765 111.254C178.843 111.144 178.979 111.067 179.115 111.054C179.245 111.034 179.368 111.06 179.465 111.086C179.847 111.216 180.178 111.352 180.528 111.481C181.876 111.999 183.1 112.465 184.157 112.873C185.141 113.262 185.958 113.585 186.593 113.838C187.163 114.071 187.474 114.214 187.468 114.233C187.461 114.252 187.131 114.155 186.548 113.961C185.906 113.734 185.077 113.449 184.079 113.1C183.022 112.718 181.791 112.271 180.431 111.779C180.094 111.656 179.731 111.513 179.387 111.403C179.219 111.358 179.102 111.371 179.031 111.468C178.953 111.572 178.934 111.727 178.992 111.876C179.115 112.174 179.42 112.491 179.679 112.776C179.957 113.067 180.262 113.333 180.599 113.579C181.454 114.207 182.426 114.615 183.366 114.803L183.625 114.855L183.463 115.062C183.1 115.528 183.146 116.188 183.308 116.732C183.483 117.289 183.755 117.794 184.059 118.235C184.675 119.115 185.459 119.711 186.146 120.099C187.539 120.851 188.55 120.812 188.537 120.876Z" fill="#AE7461"/>
<path d="M192.45 120.086L210.302 132.81C220.094 134.085 240.778 126.386 241.005 127.267L231.738 142.289C231.732 142.296 231.738 142.302 231.732 142.309C231.401 142.632 207.555 144.976 203.576 142.186C198.826 138.851 186.773 124.211 186.773 124.211L192.45 120.086Z" fill="#FFA686"/>
<path d="M265.344 186.086L265.959 190.275L301.528 227.242L305.183 223.888L268.577 186.086H265.344Z" fill="#AE7461"/>
<path d="M295.562 140.005L301.531 227.239H305.963C306.637 227.912 300.682 135.725 299.567 135.758C298.453 135.79 295.562 140.005 295.562 140.005Z" fill="#AE7461"/>
<path d="M279.125 107.039C279.125 107.039 303.658 94.8659 309.076 96.7243C314.493 98.5826 311.104 104.838 309.076 109.571C307.047 114.304 295.565 132.227 295.565 132.227L284.374 127.662L284.685 119.795L293.511 111.604L279.131 114.382V107.039H279.125Z" fill="#FFA686"/>
<path d="M301.188 104.425C301.246 104.522 299.101 105.655 296.95 107.688C294.785 109.702 293.515 111.774 293.425 111.709C293.392 111.69 293.658 111.146 294.215 110.337C294.766 109.527 295.621 108.472 296.716 107.442C297.811 106.419 298.92 105.629 299.762 105.131C300.604 104.626 301.168 104.392 301.188 104.425Z" fill="#AE7461"/>
<path d="M228.033 165.03C228.033 165.03 236.017 147.113 235.531 146.272C235.31 145.89 224.087 147.787 223.07 144.588C221.832 140.69 222.629 132.344 223.167 131.223C223.167 131.223 237.261 127.177 238.084 126.956C241.123 126.147 245.912 125.266 249.806 126.62C253.701 127.973 271.488 128.193 272.843 127.52C274.197 126.846 286.684 116.797 286.684 116.797C286.684 116.797 288.887 131.223 294.81 130.712C294.81 130.712 298.024 129.19 297.35 129.695C296.676 130.2 291.006 139.071 287.112 142.788C283.217 146.505 276.705 173.655 276.705 173.655C276.705 173.655 274.508 185.323 270.95 185.492C267.399 185.66 264.354 183.633 264.354 183.633L228.033 165.03Z" fill="#455A64"/>
<path d="M237.743 133.523C237.833 133.536 237.438 136.67 236.855 140.517C236.272 144.369 235.727 147.477 235.63 147.458C235.539 147.445 235.935 144.311 236.518 140.465C237.108 136.619 237.652 133.511 237.743 133.523Z" fill="#263238"/>
<path d="M283.201 140.796C283.195 140.816 283.013 140.757 282.702 140.634C282.385 140.511 281.944 140.291 281.426 139.98C280.382 139.365 279.047 138.297 277.92 136.814C276.799 135.325 276.125 133.758 275.814 132.586C275.658 132.003 275.561 131.517 275.529 131.181C275.49 130.844 275.483 130.656 275.503 130.656C275.561 130.65 275.671 131.388 276.034 132.521C276.397 133.654 277.084 135.163 278.179 136.613C279.281 138.057 280.551 139.126 281.542 139.78C282.54 140.44 283.227 140.738 283.201 140.796Z" fill="#263238"/>
<path d="M198.818 228.932C198.798 228.984 198.364 228.803 197.638 228.751C197.276 228.731 196.841 228.757 196.407 228.926C195.973 229.087 195.565 229.411 195.332 229.89C195.098 230.363 195.066 230.9 195.26 231.302C195.448 231.703 195.818 231.949 196.142 232.105C196.803 232.396 197.276 232.487 197.256 232.545C197.25 232.578 196.777 232.584 196.044 232.325C195.688 232.189 195.241 231.936 194.982 231.438C194.722 230.946 194.755 230.292 195.034 229.741C195.299 229.185 195.811 228.79 196.31 228.634C196.809 228.466 197.289 228.459 197.671 228.518C198.429 228.628 198.831 228.9 198.818 228.932Z" fill="#6F4439"/>
<path d="M282.458 187.336C282.549 187.355 279.97 199.218 276.704 213.832C273.432 228.447 270.71 240.277 270.62 240.257C270.529 240.238 273.108 228.375 276.374 213.755C279.646 199.147 282.368 187.317 282.458 187.336Z" fill="#6F4439"/>
<path d="M300.711 130.648C300.801 130.668 295.274 155.947 288.373 187.099C281.465 218.264 275.795 243.504 275.704 243.484C275.614 243.465 281.141 218.192 288.049 187.027C294.943 155.876 300.62 130.629 300.711 130.648Z" fill="#6F4439"/>
<path d="M206.617 163.484C206.617 163.484 212.313 171.734 210.829 178.908C209.345 186.089 207.797 187.643 209.488 188.083C224.82 192.072 234.98 190.427 237.767 187.811C237.767 187.811 248.75 190.777 257.919 189.294C267.082 187.811 269.538 184.846 269.538 184.846C269.538 184.846 268.054 169.254 261.859 166.534C255.664 163.808 242.652 163.756 238.693 164.255C234.727 164.747 228.15 165.233 226.167 165.233C224.184 165.233 206.617 163.484 206.617 163.484Z" fill="#263238"/>
<path d="M230.609 179.652C230.557 179.659 230.434 178.959 230.136 177.859C229.844 176.758 229.345 175.262 228.581 173.702C227.81 172.148 226.922 170.84 226.229 169.933C225.535 169.027 225.049 168.509 225.088 168.47C225.114 168.444 225.658 168.91 226.41 169.784C227.162 170.658 228.095 171.966 228.879 173.553C229.657 175.139 230.13 176.674 230.369 177.807C230.609 178.934 230.648 179.646 230.609 179.652Z" fill="#455A64"/>
<path d="M228.979 172.114C228.888 172.14 228.603 171.473 228.337 170.625C228.071 169.777 227.929 169.064 228.02 169.032C228.11 169.006 228.395 169.673 228.661 170.521C228.927 171.376 229.069 172.088 228.979 172.114Z" fill="#455A64"/>
<path d="M206.552 183.969C206.545 184.131 204.699 186.546 211.367 190.735C218.948 195.494 259.137 199.865 275.732 195.864L275.849 191.286L268.183 185.542L206.552 183.969Z" fill="#63B4FF"/>
<g opacity="0.3">
<path d="M206.552 183.969C206.545 184.131 204.699 186.546 211.367 190.735C218.948 195.494 259.137 199.865 275.732 195.864L275.849 191.286L268.183 185.542L206.552 183.969Z" fill="black"/>
</g>
<path d="M266.32 190.113C266.32 190.126 266.132 190.126 265.769 190.113C265.38 190.094 264.855 190.074 264.188 190.042C262.782 189.971 260.812 189.873 258.388 189.75C253.49 189.504 246.724 189.206 239.24 188.993C231.756 188.779 224.984 188.688 220.079 188.65C217.649 188.63 215.672 188.617 214.273 188.604C213.612 188.598 213.087 188.585 212.691 188.585C212.329 188.578 212.141 188.565 212.141 188.552C212.141 188.54 212.329 188.527 212.691 188.514C213.08 188.501 213.612 188.488 214.273 188.475C215.646 188.442 217.629 188.423 220.085 188.41C224.99 188.391 231.769 188.442 239.253 188.656C246.737 188.87 253.509 189.206 258.401 189.511C260.851 189.66 262.827 189.802 264.201 189.906C264.862 189.964 265.387 190.003 265.776 190.035C266.132 190.081 266.32 190.1 266.32 190.113Z" fill="#263238"/>
<path d="M274 117.687C275.678 115.46 277.357 113.207 278.627 110.727C279.897 108.24 280.752 105.495 280.687 102.704C280.674 102.283 280.35 99.3564 279.942 99.2593C279.651 99.188 279.573 101.785 279.346 101.985C277.162 103.87 275.814 106.576 275.095 109.373C274.369 112.164 274.097 114.8 274 117.687Z" fill="#263238"/>
<path d="M253.782 85.5689C255.648 85.1804 259.782 85.7114 264.299 88.3467C266.897 86.9157 270.545 84.9279 271.615 84.8761C273.5 84.7789 281.523 91.2994 283.201 94.4787C284.063 96.1104 283.136 99.1732 282.436 101.349C287.458 105.37 291.644 111.191 291.366 112.344C290.925 114.176 289.188 114.96 289.214 114.862C288.54 115.568 287.283 115.905 285.663 115.983C280.389 116.248 273.39 111.638 273.39 111.638L256.108 99.212C256.108 99.212 247.885 92.2966 249.356 89.331C249.349 89.3245 250.509 86.2488 253.782 85.5689Z" fill="#AE7461"/>
<path d="M271.86 91.9689L271.238 91.7941C264.965 90.0069 258.368 93.3352 256.087 99.4347C253.962 105.113 251.687 111.414 250.832 114.548C249.069 121.029 255.245 123.872 255.245 123.872C255.258 123.878 253.936 127.323 253.936 127.323L256.755 135.767L268.808 127.867L277.711 107.716C280.206 101.17 278.476 94.2741 271.86 91.9689Z" fill="#FFA686"/>
<path d="M255.251 123.864C255.251 123.864 259.256 125.263 264.375 123.773C264.375 123.773 260.967 128.054 254.688 125.638L255.251 123.864Z" fill="#AE7461"/>
<path d="M256.192 105.666C256.036 106.145 256.315 106.676 256.814 106.851C257.313 107.019 257.844 106.773 257.999 106.287C258.155 105.808 257.876 105.277 257.377 105.102C256.878 104.927 256.347 105.18 256.192 105.666Z" fill="#263238"/>
<path d="M256.656 102.677C256.733 102.832 257.582 102.508 258.574 102.8C259.572 103.072 260.155 103.79 260.297 103.7C260.369 103.661 260.31 103.408 260.058 103.091C259.811 102.774 259.345 102.398 258.723 102.223C258.101 102.048 257.518 102.133 257.155 102.275C256.779 102.418 256.61 102.605 256.656 102.677Z" fill="#263238"/>
<path d="M264.129 108.647C263.974 109.126 264.252 109.657 264.751 109.832C265.25 110.007 265.781 109.754 265.937 109.268C266.092 108.789 265.814 108.258 265.315 108.083C264.816 107.915 264.285 108.168 264.129 108.647Z" fill="#263238"/>
<path d="M266.31 105.669C266.388 105.824 267.237 105.507 268.228 105.792C269.226 106.064 269.809 106.782 269.952 106.692C270.017 106.653 269.965 106.4 269.712 106.083C269.466 105.766 268.999 105.39 268.377 105.216C267.755 105.041 267.172 105.125 266.809 105.267C266.44 105.41 266.271 105.598 266.31 105.669Z" fill="#263238"/>
<path d="M260.58 112.29C260.599 112.231 260.016 111.953 259.051 111.538C258.804 111.441 258.578 111.325 258.584 111.137C258.578 110.936 258.759 110.697 258.966 110.431C259.381 109.887 259.815 109.318 260.269 108.715C262.096 106.268 263.489 104.222 263.392 104.15C263.295 104.079 261.733 106.002 259.912 108.456C259.472 109.065 259.044 109.641 258.642 110.192C258.467 110.451 258.208 110.729 258.228 111.15C258.241 111.357 258.39 111.551 258.539 111.642C258.688 111.739 258.83 111.778 258.953 111.823C259.938 112.16 260.56 112.341 260.58 112.29Z" fill="#263238"/>
<path d="M266.877 102.481C266.942 102.773 267.978 102.779 269.158 103.09C270.344 103.375 271.264 103.86 271.458 103.634C271.542 103.524 271.413 103.239 271.056 102.915C270.707 102.591 270.123 102.255 269.41 102.073C268.704 101.898 268.024 101.918 267.564 102.041C267.104 102.151 266.851 102.339 266.877 102.481Z" fill="#263238"/>
<path d="M257.44 99.743C257.576 100.028 258.451 100.041 259.423 100.319C260.402 100.572 261.166 101.006 261.426 100.831C261.542 100.74 261.484 100.481 261.186 100.157C260.894 99.8401 260.356 99.4905 259.689 99.3092C259.021 99.1279 258.38 99.1538 257.978 99.2833C257.563 99.4128 257.382 99.607 257.44 99.743Z" fill="#263238"/>
<path d="M274.896 112.339C275.019 112.319 279.711 112.293 278.311 116.664C276.911 121.035 271.546 118.309 271.578 118.179C271.611 118.05 274.896 112.339 274.896 112.339Z" fill="#FFA686"/>
<path d="M274.332 117.131C274.358 117.125 274.391 117.209 274.501 117.306C274.611 117.403 274.812 117.513 275.065 117.5C275.583 117.481 276.205 116.872 276.477 116.089C276.613 115.694 276.652 115.286 276.613 114.93C276.581 114.567 276.445 114.276 276.225 114.159C276.011 114.03 275.803 114.12 275.706 114.224C275.609 114.327 275.609 114.425 275.583 114.425C275.57 114.431 275.512 114.321 275.602 114.153C275.648 114.068 275.732 113.984 275.862 113.932C275.991 113.881 276.16 113.887 276.322 113.958C276.652 114.088 276.86 114.496 276.898 114.891C276.963 115.292 276.931 115.752 276.775 116.192C276.464 117.066 275.751 117.746 275.058 117.727C274.721 117.707 274.494 117.533 274.397 117.39C274.306 117.241 274.313 117.138 274.332 117.131Z" fill="#AE7461"/>
<path d="M261.294 93.1399C260.717 92.5183 263.588 90.9319 265.584 90.7118C268.597 90.388 272.848 90.9708 275.038 92.4536C277.675 94.2342 279.619 96.4811 280.209 99.6086C280.799 102.736 280.332 106.006 279.25 109.004C278.919 109.917 278.505 110.849 277.76 111.465C276.833 112.229 275.459 112.449 275.077 113.796C274.934 114.288 274.636 114.735 274.183 114.981C273.107 115.57 272.388 114.45 272.206 113.498C271.811 111.471 272.375 109.399 272.938 107.418C273.34 106.006 273.748 104.569 274.584 103.358C275.038 102.704 275.608 102.127 276.023 101.448C276.438 100.768 276.69 99.9194 276.431 99.1683C276.386 99.0453 276.308 98.8834 276.198 98.6956C275.317 97.2063 273.697 96.3128 271.966 96.3516C269.225 96.4099 264.599 96.3257 263.776 95.1343C262.596 93.4184 262.473 92.5118 262.473 92.5118L261.294 93.1399Z" fill="#263238"/>
<path d="M263.457 113.909C263.308 113.85 262.971 114.848 261.876 115.275C260.781 115.702 259.75 115.23 259.699 115.366C259.666 115.424 259.874 115.638 260.314 115.799C260.748 115.961 261.442 116.039 262.116 115.78C262.783 115.521 263.204 115.016 263.373 114.614C263.561 114.213 263.528 113.928 263.457 113.909Z" fill="#263238"/>
<path d="M259.523 94.1736C263.619 96.3622 267.74 99.9171 271.453 102.688C275.166 105.46 278.477 108.866 280.259 112.68L283.61 109.682L281.082 101.983C281.082 101.983 281.238 94.2384 277.946 92.257C271.66 88.469 259.53 91.3375 259.53 91.3375L259.523 94.1736Z" fill="#AE7461"/>
<path d="M258.118 93.4397C258.111 93.4526 258.202 93.5109 258.37 93.6145C258.571 93.7375 258.824 93.88 259.122 94.0548C259.776 94.4304 260.722 94.9872 261.869 95.6995C264.17 97.1176 267.267 99.209 270.442 101.831C272.024 103.152 273.475 104.473 274.752 105.723C276.022 106.979 277.123 108.145 278.018 109.161C278.912 110.171 279.618 111.007 280.091 111.596C280.312 111.861 280.499 112.082 280.648 112.269C280.778 112.418 280.849 112.496 280.862 112.49C280.869 112.483 280.817 112.392 280.7 112.231C280.564 112.036 280.396 111.803 280.188 111.525C279.748 110.91 279.067 110.048 278.193 109.012C277.324 107.976 276.229 106.785 274.966 105.509C273.695 104.247 272.244 102.906 270.656 101.585C267.468 98.9435 264.332 96.878 261.993 95.5052C260.826 94.8189 259.867 94.2879 259.187 93.9512C258.876 93.7958 258.616 93.6663 258.409 93.5627C258.221 93.4721 258.124 93.4267 258.118 93.4397Z" fill="#263238"/>
<path d="M249.477 89.6728C249.496 89.7116 250.079 89.3101 251.291 89.0511C252.49 88.7986 254.343 88.7857 256.41 89.5691C258.49 90.3203 260.693 91.816 263.149 93.4154C265.599 95.0342 268.243 96.886 270.945 98.9257C276.362 102.999 280.976 107.058 284.209 110.102C285.823 111.623 287.106 112.886 287.994 113.76C288.421 114.181 288.758 114.518 289.011 114.764C289.244 114.991 289.374 115.107 289.38 115.101C289.387 115.094 289.277 114.965 289.056 114.719C288.81 114.46 288.486 114.11 288.084 113.67C287.229 112.77 285.972 111.481 284.371 109.94C281.17 106.851 276.576 102.753 271.146 98.6732C268.437 96.627 265.78 94.7816 263.318 93.1758C260.855 91.5894 258.626 90.1001 256.494 89.3619C254.375 88.5914 252.477 88.6367 251.272 88.9346C250.662 89.0835 250.209 89.2713 249.917 89.4202C249.768 89.4914 249.664 89.5627 249.593 89.6015C249.509 89.6404 249.477 89.6663 249.477 89.6728Z" fill="#263238"/>
<path d="M263.5 87.8378C263.487 87.8573 263.773 88.0256 264.297 88.3041C264.822 88.5825 265.574 88.9904 266.494 89.5084C268.341 90.538 270.849 92.0337 273.499 93.8662C276.149 95.6987 278.437 97.5182 280.057 98.878C280.867 99.5578 281.515 100.115 281.962 100.503C282.409 100.892 282.662 101.099 282.681 101.08C282.694 101.067 282.474 100.827 282.046 100.413C281.625 99.9917 280.996 99.4089 280.206 98.7031C278.625 97.2915 276.344 95.4397 273.68 93.6007C271.017 91.7618 268.477 90.2919 266.598 89.3077C265.658 88.8156 264.887 88.4336 264.349 88.194C263.811 87.9479 263.507 87.8184 263.5 87.8378Z" fill="#263238"/>
<path d="M230.477 217.487C229.103 215.907 227.237 214.851 225.416 213.828L215.573 217.7C217.42 221.236 215.962 224.583 213.357 228.656C211.698 231.246 207.674 234.011 207.078 237.029C206.617 239.353 208.069 241.814 210.201 242.843C212.333 243.873 214.957 243.594 217.024 242.429C219.091 241.27 220.627 239.321 221.645 237.177C222.811 234.723 223.394 231.913 225.209 229.886C227.347 227.484 231.054 226.338 232.038 223.275C232.674 221.294 231.857 219.067 230.477 217.487Z" fill="#FFA686"/>
<path d="M183.945 161.341C182.753 161.664 173.169 162.325 178.372 178.416C183.576 194.506 218.004 221.236 218.004 221.236L227.121 215.117C227.121 215.117 209.347 188.335 206.373 184.845H209.561C210.876 181.019 211.544 177.159 210.85 173.132C210.131 169.797 208.582 165.841 207.085 163.536C207.092 163.536 188.689 160.052 183.945 161.341Z" fill="#FFA686"/>
<path d="M194.822 174.025C194.835 174.006 195.068 174.167 195.476 174.472C195.884 174.776 196.461 175.229 197.154 175.806C198.554 176.958 200.427 178.622 202.377 180.584C204.328 182.546 205.987 184.431 207.134 185.836C207.71 186.535 208.157 187.111 208.462 187.526C208.767 187.934 208.922 188.167 208.903 188.18C208.883 188.193 208.689 187.992 208.358 187.61C207.982 187.176 207.509 186.632 206.952 185.998C205.76 184.638 204.088 182.786 202.144 180.83C200.2 178.875 198.36 177.191 196.999 175.993C196.364 175.43 195.819 174.957 195.392 174.582C195.009 174.239 194.802 174.044 194.822 174.025Z" fill="#AE7461"/>
<path d="M198.672 177.202C198.575 177.209 198.445 176.341 198.16 175.305C197.882 174.262 197.558 173.446 197.648 173.408C197.726 173.369 198.199 174.146 198.484 175.221C198.776 176.289 198.756 177.202 198.672 177.202Z" fill="#AE7461"/>
<path d="M248.504 165.422C248.504 165.422 234.131 159.608 232.148 173.963C230.165 188.319 231.345 210.761 230.172 219.943L239.963 223.886C239.963 223.886 246.761 204.901 249.981 199.456C253.202 194.01 252.21 184.11 252.21 184.11C252.21 184.11 258.405 179.901 256.422 174.209C254.439 168.518 251.64 166.465 248.504 165.422Z" fill="#FFA686"/>
<path d="M239.632 218.572C237.856 217.459 235.769 216.992 233.728 216.539L230.495 217.497C229.659 220.457 222.596 240.996 222.9 244.058C223.133 246.415 225.233 248.351 227.572 248.72C229.912 249.09 232.342 248.06 233.981 246.351C235.62 244.641 236.528 242.33 236.884 239.992C237.292 237.305 237.033 234.449 238.18 231.982C239.534 229.062 242.748 226.893 242.8 223.675C242.826 221.577 241.401 219.68 239.632 218.572Z" fill="#FFA686"/>
<path d="M251.323 173.32C251.414 173.314 251.719 175.91 252.004 179.116C252.289 182.327 252.438 184.937 252.347 184.943C252.256 184.95 251.952 182.353 251.667 179.148C251.382 175.936 251.233 173.327 251.323 173.32Z" fill="#AE7461"/>
<path d="M231.183 185.492C231.196 185.492 231.203 185.667 231.209 185.997C231.209 186.36 231.209 186.845 231.216 187.454C231.203 188.756 231.19 190.575 231.17 192.809C231.099 197.361 231.002 203.59 230.898 210.473C230.853 212.85 230.807 215.148 230.769 217.279V217.298L230.762 217.311C230.159 219.882 229.414 222.219 228.695 224.304C227.982 226.383 227.308 228.209 226.77 229.73C226.226 231.252 225.811 232.469 225.533 233.305C225.397 233.7 225.293 234.017 225.209 234.263C225.131 234.483 225.092 234.593 225.079 234.587C225.073 234.587 225.099 234.464 225.157 234.243C225.228 233.991 225.319 233.667 225.429 233.266C225.675 232.417 226.064 231.187 226.576 229.659C227.574 226.59 229.239 222.342 230.445 217.24L230.438 217.272C230.477 215.142 230.516 212.843 230.555 210.467C230.697 203.584 230.827 197.355 230.924 192.809C230.989 190.575 231.041 188.756 231.073 187.454C231.099 186.845 231.118 186.366 231.131 185.997C231.157 185.667 231.177 185.492 231.183 185.492Z" fill="#AE7461"/>
<path d="M88.5823 132.453C88.5823 132.453 69.9912 222.496 71.0345 223.286C72.0778 224.076 75.2984 224.4 75.2984 224.4L91.0577 139.802L88.5823 132.453Z" fill="#AE7461"/>
<path d="M18.2109 223.844L73.5437 219.072L72.2865 214.539L23.7967 219.195L18.2109 223.844Z" fill="#AE7461"/>
<path d="M71.5358 219.375C71.458 219.31 72.3976 218.455 72.6568 216.998C72.9484 215.548 72.3912 214.408 72.4884 214.376C72.5208 214.357 72.7152 214.609 72.8772 215.088C73.0392 215.567 73.1364 216.286 72.9873 217.057C72.8383 217.827 72.4884 218.462 72.1579 218.844C71.8339 219.245 71.5617 219.407 71.5358 219.375Z" fill="#6F4439"/>
<path d="M122.164 184.811L154.972 232.183L159.191 229.794L126.525 181.211L122.164 184.811Z" fill="#AE7461"/>
<path d="M153.638 229.68C133.297 232.355 112.956 235.029 92.6091 237.703L89.4922 233.98L152.432 226.242L153.638 229.68Z" fill="#AE7461"/>
<path d="M152.94 229.712C152.921 229.653 153.329 229.615 153.692 229.168C153.867 228.948 154.016 228.637 154.029 228.274C154.049 227.918 153.906 227.517 153.647 227.186C153.109 226.494 152.247 226.338 151.677 226.364C151.094 226.384 150.731 226.513 150.711 226.461C150.698 226.429 151.029 226.215 151.657 226.124C151.968 226.086 152.357 226.086 152.765 226.209C153.174 226.325 153.601 226.584 153.912 226.973C154.223 227.361 154.385 227.847 154.347 228.294C154.308 228.734 154.1 229.09 153.874 229.323C153.394 229.802 152.927 229.744 152.94 229.712Z" fill="#6F4439"/>
<path d="M24.1719 103.827C42.7176 106.993 61.9632 106.592 80.334 102.648C80.334 102.648 89.9633 151.341 108.872 169.796L69.0848 197.632C69.0848 197.632 61.0236 184.319 47.5193 165.58C34.015 146.835 24.1719 103.827 24.1719 103.827Z" fill="#FF725E"/>
<path d="M24.1719 103.827C42.7176 106.993 61.9632 106.592 80.334 102.648C80.334 102.648 89.9633 151.341 108.872 169.796L69.0848 197.632C69.0848 197.632 61.0236 184.319 47.5193 165.58C34.015 146.835 24.1719 103.827 24.1719 103.827Z" fill="#08A521"/>
<path d="M132.996 116.004L134.274 114.906C134.274 114.906 135.651 112.012 136.445 110.942C137.238 109.872 143.634 107.704 143.634 107.704C143.634 107.704 148.122 106.957 148.467 107.482C148.818 108.007 148.71 108.812 148.379 108.919C148.048 109.025 144.147 110.313 144.147 110.313C144.147 110.313 144.65 110.608 145.873 110.308C147.096 110.009 147.606 109.758 147.88 110.484C148.159 111.211 147.871 111.304 147.258 112.092C147.258 112.092 147.817 113.415 145.925 114.469C145.925 114.469 146.434 115.216 145.03 116.07C143.62 116.924 142.409 117.676 141.403 117.948C140.402 118.22 138.222 118.883 138.222 118.883L136 120.004L132.996 116.004Z" fill="#FFBF9D"/>
<path d="M145.525 118.296C145.37 118.082 145.26 117.927 145.26 117.927C145.033 117.428 145.137 115.693 145.098 112.196C145.065 109.172 145.59 107.528 145.901 107.01C146.446 106.887 146.977 106.699 147.482 106.433C150.897 104.601 151.111 100.515 150.632 96.9603C150.197 93.7292 149.277 90.8672 149.277 90.8672L144.722 90.8931H144.249L139.693 90.919C139.693 90.919 138.806 93.7875 138.41 97.025C137.976 100.586 138.229 104.666 141.663 106.453C142.169 106.718 142.7 106.9 143.251 107.01C143.542 107.586 144.067 109.282 144.126 112.183C144.132 112.501 144.333 117.389 144.197 117.81C144.197 117.81 144.054 118.03 143.866 118.289C141.184 118.399 139.136 118.95 139.136 119.604C139.143 120.323 141.65 120.886 144.735 120.866C147.826 120.847 150.321 120.251 150.321 119.533C150.321 118.898 148.234 118.367 145.525 118.296Z" fill="white"/>
<path d="M145.53 118.298C145.53 118.298 146.08 118.285 147.111 118.382C147.623 118.434 148.264 118.512 148.99 118.693C149.353 118.79 149.748 118.907 150.111 119.159C150.195 119.231 150.279 119.315 150.331 119.418C150.364 119.528 150.364 119.671 150.279 119.768C150.137 119.969 149.923 120.085 149.703 120.189C148.802 120.571 147.726 120.733 146.566 120.843C145.4 120.946 144.13 120.966 142.782 120.862C142.108 120.804 141.415 120.726 140.708 120.564C140.358 120.48 140.002 120.383 139.665 120.221C139.497 120.144 139.328 120.04 139.199 119.885C139.134 119.807 139.095 119.697 139.101 119.593C139.114 119.483 139.173 119.386 139.237 119.315C139.523 119.023 139.911 118.907 140.274 118.784C140.65 118.667 141.039 118.583 141.428 118.512C142.218 118.369 143.035 118.298 143.864 118.259L143.819 118.285C143.916 118.136 144.033 117.974 144.143 117.806L144.136 117.819C144.221 117.023 144.169 116.148 144.156 115.281C144.13 114.407 144.097 113.513 144.072 112.6C144.046 111.687 144.013 110.761 143.884 109.822C143.754 108.896 143.586 107.931 143.19 107.057L143.236 107.09C141.318 106.727 139.529 105.303 138.816 103.328C138.058 101.372 138.103 99.177 138.343 97.0532C138.609 94.9358 139.056 92.8832 139.626 90.9083L139.639 90.863H139.691C143.022 90.8435 146.229 90.8241 149.275 90.8047H149.32L149.333 90.85C149.871 92.5983 150.266 94.3272 150.545 96.0107C150.817 97.6878 150.973 99.3389 150.811 100.906C150.649 102.453 150.189 103.956 149.262 105.037C148.355 106.131 147.117 106.798 145.912 107.057L145.938 107.038C145.581 107.711 145.445 108.456 145.329 109.142C145.218 109.835 145.167 110.502 145.147 111.13C145.115 112.386 145.147 113.494 145.134 114.426C145.128 116.297 145.089 117.521 145.264 117.929C145.491 118.233 145.53 118.298 145.53 118.298C145.53 118.298 145.484 118.24 145.257 117.929C145.069 117.515 145.095 116.291 145.089 114.42C145.095 113.481 145.056 112.38 145.082 111.117C145.102 110.489 145.154 109.822 145.257 109.123C145.374 108.43 145.504 107.685 145.873 106.986L145.879 106.967L145.899 106.96C147.085 106.701 148.303 106.041 149.191 104.966C150.098 103.897 150.552 102.421 150.707 100.886C150.863 99.3389 150.707 97.7007 150.435 96.0236C150.156 94.3466 149.754 92.6242 149.223 90.8824L149.281 90.9277C146.236 90.9471 143.028 90.9666 139.698 90.9925L139.762 90.9471C139.192 92.9091 138.745 94.9617 138.479 97.0726C138.24 99.1835 138.201 101.366 138.946 103.282C139.646 105.218 141.382 106.61 143.268 106.967L143.3 106.973L143.313 106.999C143.722 107.906 143.884 108.864 144.02 109.803C144.143 110.742 144.182 111.681 144.201 112.587C144.227 113.5 144.253 114.394 144.285 115.268C144.292 116.148 144.35 116.984 144.253 117.845V117.851L144.246 117.858C144.13 118.026 144.02 118.195 143.916 118.337L143.903 118.363H143.877C143.048 118.402 142.238 118.473 141.454 118.609C141.065 118.674 140.676 118.758 140.313 118.874C139.95 118.991 139.574 119.12 139.322 119.373C139.192 119.496 139.166 119.677 139.289 119.813C139.399 119.943 139.555 120.046 139.717 120.118C140.047 120.273 140.391 120.377 140.741 120.454C141.434 120.616 142.128 120.7 142.801 120.759C144.143 120.869 145.413 120.849 146.573 120.752C147.726 120.649 148.802 120.487 149.69 120.118C149.904 120.021 150.117 119.904 150.24 119.723C150.312 119.638 150.312 119.528 150.286 119.431C150.24 119.341 150.169 119.263 150.085 119.198C149.742 118.952 149.346 118.836 148.99 118.732C148.264 118.544 147.629 118.46 147.117 118.402C146.605 118.343 146.21 118.324 145.944 118.305C145.666 118.311 145.53 118.298 145.53 118.298Z" fill="#263238"/>
<path d="M149.546 97.1094L139.528 97.1741C138.99 101.551 139.865 104.271 142.192 105.488C142.872 105.844 143.637 106.039 144.401 106.064C145.296 106.09 146.183 105.883 146.967 105.462C149.294 104.206 150.136 101.48 149.546 97.1094Z" fill="#FF725E"/>
<g opacity="0.1">
<path d="M147.134 104.685C145.54 105.539 143.609 105.552 142.002 104.717C140.038 103.694 139.254 101.823 139.053 99.7764H139.008C139.073 102.146 139.779 104.413 142.015 105.585C143.622 106.42 145.546 106.407 147.147 105.552C149.408 104.341 150.076 102.01 150.095 99.6016H150.056C149.881 101.693 149.123 103.623 147.134 104.685Z" fill="black"/>
</g>
<path d="M146.125 107.011C146.151 107.07 145.496 107.348 144.641 107.342C143.786 107.342 143.131 107.07 143.157 107.011C143.176 106.94 143.831 107.096 144.641 107.089C145.451 107.089 146.099 106.94 146.125 107.011Z" fill="#263238"/>
<g opacity="0.3">
<path d="M143.797 107.406C143.933 107.95 144.069 108.494 144.212 109.038C144.244 109.161 144.283 109.297 144.393 109.362C144.536 109.446 144.724 109.362 144.821 109.232C144.918 109.103 144.944 108.934 144.976 108.773C145.06 108.339 145.261 107.801 145.469 107.419C144.937 107.536 144.302 107.555 143.797 107.406Z" fill="white"/>
</g>
<path d="M138.847 110.439C141.08 109.768 143.327 109.15 145.587 108.585C145.73 108.549 145.895 108.514 146.024 108.583C146.183 108.669 146.237 108.876 146.193 109.053C146.148 109.224 146.026 109.371 145.905 109.503C144.945 110.529 143.612 111.191 142.217 111.341C142.557 111.871 142.389 112.579 142.102 113.134C141.241 114.816 139.357 115.917 137.466 115.851" fill="#FFBF9D"/>
<path d="M137.461 115.85C137.453 115.792 138.29 115.901 139.517 115.376C140.112 115.108 140.805 114.675 141.381 113.99C141.664 113.65 141.929 113.252 142.111 112.802C142.288 112.363 142.369 111.82 142.103 111.409L141.99 111.23L142.201 111.208C142.994 111.121 143.821 110.852 144.577 110.396C144.869 110.219 145.146 110.021 145.392 109.8C145.628 109.579 145.906 109.344 146.027 109.102C146.085 108.984 146.08 108.852 146.026 108.761C145.972 108.674 145.873 108.654 145.73 108.679C145.438 108.746 145.128 108.837 144.841 108.914C143.681 109.222 142.632 109.502 141.733 109.737C140.882 109.952 140.175 110.132 139.627 110.271C139.127 110.392 138.851 110.448 138.847 110.432C138.842 110.416 139.109 110.323 139.6 110.17C140.138 110.01 140.841 109.803 141.683 109.551C142.584 109.295 143.627 108.999 144.783 108.67C145.081 108.588 145.364 108.501 145.688 108.425C145.773 108.408 145.873 108.402 145.983 108.428C146.087 108.453 146.194 108.526 146.253 108.618C146.371 108.802 146.361 109.038 146.28 109.213C146.199 109.394 146.072 109.525 145.956 109.646C145.84 109.772 145.714 109.888 145.583 110.003C145.321 110.234 145.033 110.442 144.73 110.629C143.942 111.104 143.072 111.382 142.242 111.467L142.341 111.267C142.675 111.807 142.548 112.427 142.36 112.897C142.155 113.377 141.874 113.785 141.569 114.14C140.955 114.844 140.226 115.275 139.6 115.532C138.963 115.783 138.418 115.86 138.049 115.875C137.864 115.888 137.722 115.877 137.623 115.873C137.512 115.868 137.46 115.86 137.461 115.85Z" fill="#FF9A6C"/>
<path d="M149.548 97.0644C149.548 97.4529 147.306 97.7767 144.539 97.7961C141.772 97.8156 139.523 97.5112 139.523 97.1227C139.523 96.7342 141.766 96.4105 144.532 96.391C147.299 96.3781 149.548 96.6759 149.548 97.0644Z" fill="#FF725E"/>
<g opacity="0.1">
<path d="M149.548 97.0644C149.548 97.4529 147.306 97.7767 144.539 97.7961C141.772 97.8156 139.523 97.5112 139.523 97.1227C139.523 96.7342 141.766 96.4105 144.532 96.391C147.299 96.3781 149.548 96.6759 149.548 97.0644Z" fill="black"/>
</g>
<g opacity="0.3">
<path d="M140.459 91.2734C140.459 91.2734 136.953 99.0825 141.444 103.589C141.444 103.589 140.601 101.394 141.042 97.1658C141.295 94.7053 142.72 91.8368 142.72 91.8368C141.897 91.7137 141.146 91.526 140.459 91.2734Z" fill="white"/>
</g>
<path d="M180.236 214.808C180.152 213.811 179.16 213.138 178.195 212.866C177.229 212.594 176.192 212.568 175.292 212.128L157.64 211.454C156.824 211.435 155.988 211.642 155.327 212.128C154.672 212.613 154.212 213.397 154.219 214.213C154.225 215.611 155.528 216.706 156.882 217.062C158.236 217.418 159.662 217.243 161.062 217.269C163.213 217.314 165.313 217.858 167.406 218.357C169.499 218.849 171.637 219.302 173.782 219.166C175.927 219.03 178.117 218.234 179.504 216.596C179.938 216.091 180.294 215.462 180.236 214.808Z" fill="#6F4439"/>
<path d="M120 154.997C131.5 151.496 136.476 151.251 146.203 169.725C155.185 186.775 160.046 198.312 161 199.996L152.5 200.496C152.5 200.496 146.456 196.092 141.894 189.332C140.287 186.953 138.967 183.42 137.621 179.819C135.146 173.194 132.584 166.341 128 166.034L120 154.997Z" fill="#FFBF9D"/>
<path d="M177.193 211.44C171.004 209.18 164.454 206.754 161 200L152.5 200.5C158.76 205.149 155.601 212.839 157.377 214.03C159.068 215.163 161.226 214.451 163.189 214.658C167.012 215.066 168.924 217.844 172.754 218.2C175.022 218.414 176.83 217.999 178.599 216.432C179.299 215.811 180.005 214.969 179.94 213.972C179.843 212.567 178.391 211.874 177.193 211.44Z" fill="#FFBF9D"/>
<path d="M175.239 210.118C175.557 210.131 175.563 211.497 176.561 212.98L177.261 214.022H175.894C174.766 214.022 173.425 214.1 172.012 214.378C170.094 214.741 168.442 215.401 167.25 215.926C166.064 216.463 165.312 216.852 165.157 216.664C165.014 216.496 165.513 215.764 166.64 214.903C167.762 214.061 169.55 213.128 171.688 212.727C173.27 212.41 174.786 212.436 176.011 212.623L175.337 213.666C174.844 212.636 174.773 211.685 174.844 211.056C174.909 210.428 175.097 210.105 175.239 210.118Z" fill="#6F4439"/>
<path d="M93.1006 153.409C93.1071 153.416 93.0293 153.506 92.8673 153.662C92.7053 153.817 92.4721 154.05 92.1545 154.335C91.526 154.912 90.5993 155.727 89.407 156.679C88.2147 157.631 86.7567 158.725 85.0784 159.846C84.2425 160.409 83.3482 160.979 82.4021 161.542C81.9291 161.827 81.4496 162.105 80.9506 162.384C80.4581 162.63 79.9657 163.051 79.2529 162.98C78.89 162.941 78.5854 162.598 78.566 162.241C78.5401 161.892 78.6632 161.594 78.7928 161.328C79.0973 160.817 79.4019 160.364 79.7389 159.917C80.4063 159.03 81.1256 158.246 81.8578 157.54C83.3353 156.148 84.8192 155.08 86.0957 154.238C87.3723 153.396 88.435 152.775 89.1737 152.347C89.5172 152.153 89.8023 151.998 90.0291 151.868C90.23 151.765 90.3337 151.713 90.3401 151.719C90.3466 151.732 90.2494 151.797 90.0615 151.926C89.8412 152.069 89.569 152.244 89.2385 152.464C88.5193 152.924 87.476 153.578 86.2253 154.439C84.9747 155.3 83.5167 156.381 82.0717 157.767C81.3589 158.466 80.6525 159.243 79.9981 160.118C79.6741 160.545 79.3565 161.018 79.0844 161.484C78.9677 161.717 78.877 161.976 78.8965 162.209C78.9159 162.429 79.0779 162.617 79.3047 162.643C79.7907 162.701 80.2961 162.351 80.7821 162.086C81.2746 161.808 81.7541 161.529 82.2272 161.251C83.1668 160.694 84.061 160.131 84.9034 159.58C86.5882 158.479 88.0462 157.411 89.258 156.485C90.4633 155.559 91.4158 154.776 92.0703 154.232C92.3749 153.979 92.6211 153.772 92.8285 153.604C92.9969 153.468 93.0941 153.396 93.1006 153.409Z" fill="#263238"/>
<path fill-rule="evenodd" clip-rule="evenodd" d="M95.5135 180.196C92.8437 180.669 68.939 193.555 69.0945 194.027C69.0945 194.027 69.9758 197.569 71.7124 198.359C73.4426 199.143 112.53 196.462 115.673 195.679C118.112 195.065 130.147 187.782 136 184.186V178.615C126.588 178.367 97.7858 179.795 95.5135 180.196Z" fill="#08A521"/>
<g opacity="0.3">
<path fill-rule="evenodd" clip-rule="evenodd" d="M95.5135 180.196C92.8437 180.669 68.939 193.555 69.0945 194.027C69.0945 194.027 69.9758 197.569 71.7124 198.359C73.4426 199.143 112.53 196.462 115.673 195.679C118.112 195.065 130.147 187.782 136 184.186V178.615C126.588 178.367 97.7858 179.795 95.5135 180.196Z" fill="black"/>
</g>
<path d="M128.644 181.73C128.651 181.821 121.497 182.216 112.665 182.604C103.832 182.993 96.6784 183.232 96.6719 183.142C96.6654 183.051 103.819 182.656 112.652 182.268C121.477 181.879 128.644 181.639 128.644 181.73Z" fill="#263238"/>
<path fill-rule="evenodd" clip-rule="evenodd" d="M40.1663 116.754L27.1484 115.056C29.9784 111.094 56.0141 106 56.0141 106L50.9202 111.66L40.1663 116.754Z" fill="#FFBF9D"/>
<path d="M18.2109 102.747L89.8992 242.435L95.7377 240.356L22.7081 100.461L18.2109 102.747Z" fill="#AE7461"/>
<path d="M77.4858 218.637C77.4015 218.676 76.1056 216.261 74.5957 213.237C73.0794 210.213 71.926 207.727 72.0037 207.688C72.088 207.649 73.384 210.064 74.8938 213.088C76.4101 216.112 77.57 218.599 77.4858 218.637Z" fill="#6F4439"/>
<path d="M95.4892 239.784C95.4763 239.784 95.392 239.629 95.2495 239.351C95.081 239.033 94.8607 238.619 94.582 238.101C93.9859 236.981 93.1564 235.414 92.1326 233.484C90.059 229.554 87.2272 224.179 84.0974 218.242C80.987 212.291 78.1747 206.904 76.1205 202.967C75.1226 201.031 74.3126 199.451 73.7359 198.324C73.4702 197.793 73.2628 197.372 73.1008 197.055C72.9583 196.764 72.887 196.608 72.8999 196.602C72.9129 196.595 72.9971 196.744 73.1591 197.023C73.3341 197.333 73.5609 197.748 73.8525 198.266C74.4551 199.386 75.2975 200.947 76.3343 202.863C78.4144 206.787 81.2591 212.155 84.4019 218.093C87.5318 224.05 90.3376 229.457 92.3529 233.381C93.3573 235.342 94.1608 236.935 94.7051 238.043C94.9773 238.599 95.1847 239.027 95.3143 239.325C95.4374 239.629 95.5022 239.784 95.4892 239.784Z" fill="#6F4439"/>
<path d="M40.4766 140.758C40.4766 140.758 15.0426 230.108 16.0859 230.898C17.1292 231.688 20.3498 232.012 20.3498 232.012L42.952 148.107L40.4766 140.758Z" fill="#AE7461"/>
<path d="M24.6654 216.774C24.7561 216.8 24.2895 218.606 23.6221 220.814C22.9611 223.016 22.3455 224.784 22.2613 224.758C22.1706 224.732 22.6371 222.925 23.3046 220.717C23.9655 218.509 24.5746 216.741 24.6654 216.774Z" fill="#6F4439"/>
<path d="M42.5889 150.131C42.5371 150.105 42.8805 149.503 43.1915 148.454C43.4961 147.418 43.7683 145.883 43.4702 144.265C43.3406 143.63 43.0166 143.073 42.55 142.762C42.0899 142.439 41.5197 142.458 41.0985 142.659C40.6708 142.859 40.3663 143.183 40.1459 143.462C39.9256 143.747 39.796 143.999 39.7118 144.167L39.6923 144.2H39.6664C39.4396 144.2 39.3359 144.187 39.3359 144.174C39.3359 144.154 39.4396 144.129 39.6599 144.096L39.6146 144.129C39.6729 143.941 39.7766 143.662 39.9839 143.345C40.1913 143.034 40.4959 142.665 40.9754 142.413C41.4419 142.154 42.1612 142.108 42.7185 142.49C43.2823 142.846 43.6581 143.5 43.7942 144.193C44.1052 145.916 43.7812 147.483 43.4119 148.532C43.2239 149.063 43.0166 149.464 42.8611 149.736C42.712 150.008 42.6019 150.144 42.5889 150.131Z" fill="#6F4439"/>
<path d="M71.4951 94.3203L45.6715 102.66C44.0386 110.912 45.9917 123.275 49.4144 130.962C60.7625 130.485 71.0555 124.147 81.3611 119.372C79.0187 110.674 75.6211 102.315 71.4951 94.3203Z" fill="#DB9651"/>
<path d="M45.975 100.85C47.4006 96.093 50.4527 92.4219 55.0121 90.4326C57.5869 89.3093 58.8806 89.4034 60.953 89.1273C63.0254 88.8512 65.1293 89.1524 66.9002 90.2632C69.0041 91.5873 70.9886 93.2189 72.1881 95.3901C73.419 97.6242 74.6624 99.8707 75.4663 102.293C76.2701 104.715 76.6155 107.345 76.0315 109.823L70.4862 113.35C67.2331 114.837 63.9298 116.344 60.3941 116.927C56.8647 117.517 53.015 117.09 50.1136 114.994C46.0818 112.083 44.5494 105.606 45.975 100.85Z" fill="#DB9651"/>
<path d="M57 124C60.5 124.5 57.6067 118.945 57.6067 118.945L50.0685 101.603C49.6289 100.436 50.1564 99.124 51.2868 98.5906L57.9374 92.1082L60.1229 91.4807C64.8141 89.5478 70.2024 93.357 71.8164 97.1348C73.6062 101.333 75.6284 106.523 76.2564 109.905C77.5124 116.708 72.3942 119.444 72.3942 119.444L73.5976 123.791L76.2564 124.5L76.5 133.5H69.5L57 124Z" fill="#FFBF9D"/>
<path d="M66.2632 112.352C66.169 112.006 66.2318 111.636 66.3825 111.341C66.684 110.745 67.3497 110.425 67.9902 110.563C68.6308 110.701 69.2149 111.285 69.397 111.981C69.2777 112.483 68.9574 112.923 68.4989 113.161C68.4298 113.199 68.3545 113.23 68.2791 113.262C67.9149 113.4 67.5004 113.431 67.111 113.28C66.7279 113.13 66.3825 112.778 66.2632 112.352Z" fill="#FF9A6C"/>
<path d="M72.0594 103.458C72.229 103.891 72.0029 104.387 71.557 104.575C71.1111 104.763 70.6087 104.562 70.4392 104.129C70.2696 103.696 70.4957 103.201 70.9416 103.012C71.3875 102.83 71.8899 103.031 72.0594 103.458Z" fill="#263238"/>
<path d="M71.2553 99.844C71.1925 99.9883 70.4012 99.7436 69.5094 100.064C68.6177 100.365 68.1278 101.055 67.9897 100.98C67.9269 100.948 67.9583 100.716 68.1718 100.409C68.379 100.101 68.7872 99.7373 69.3399 99.5427C69.8925 99.3482 70.4326 99.3859 70.778 99.5051C71.1234 99.6118 71.2867 99.7749 71.2553 99.844Z" fill="#263238"/>
<path d="M68.506 108.974C68.4808 108.923 69.0021 108.635 69.8562 108.202C70.076 108.095 70.277 107.976 70.2581 107.806C70.2518 107.624 70.0697 107.411 69.8687 107.185C69.4605 106.714 69.0335 106.212 68.5813 105.698C66.7789 103.571 65.3848 101.782 65.4727 101.713C65.5606 101.644 67.0929 103.307 68.8953 105.441C69.3349 105.968 69.7557 106.47 70.1576 106.953C70.3335 107.179 70.5847 107.424 70.591 107.8C70.591 107.988 70.4654 108.17 70.3335 108.264C70.2016 108.359 70.076 108.409 69.9692 108.453C69.0837 108.823 68.5248 109.024 68.506 108.974Z" fill="#263238"/>
<path d="M72.3812 119.438C72.3812 119.438 68.1422 121.251 62.9297 120.191C62.9297 120.191 66.704 124.244 72.9464 121.364L72.3812 119.438Z" fill="#FF9A6C"/>
<path d="M66.1059 110.518C66.2504 110.462 66.5895 111.422 67.6634 111.817C68.731 112.212 69.7233 111.742 69.7798 111.873C69.8175 111.93 69.6165 112.143 69.1895 112.306C68.7687 112.47 68.0967 112.558 67.4436 112.313C66.7905 112.074 66.376 111.591 66.2001 111.202C66.0117 110.813 66.0369 110.537 66.1059 110.518Z" fill="#263238"/>
<path d="M69.6944 96.9162C69.619 97.186 68.8906 97.2802 68.1181 97.6316C67.3331 97.9516 66.7616 98.4223 66.5167 98.2905C66.4036 98.2215 66.4162 97.983 66.6172 97.663C66.8118 97.3492 67.2138 96.9852 67.7476 96.753C68.2814 96.5209 68.8215 96.4832 69.1794 96.5585C69.5437 96.6275 69.7258 96.7844 69.6944 96.9162Z" fill="#DB9651"/>
<path d="M62.9772 106.624C63.1342 107.057 63.6303 107.289 64.0888 107.132C64.5472 106.981 64.7921 106.498 64.6351 106.065C64.4781 105.632 63.982 105.4 63.5236 105.557C63.0651 105.708 62.8202 106.184 62.9772 106.624Z" fill="#263238"/>
<path d="M59.3261 104.4C59.4705 104.469 59.9038 103.767 60.7831 103.421C61.656 103.064 62.4787 103.258 62.5289 103.114C62.554 103.045 62.3782 102.894 62.014 102.806C61.656 102.712 61.1096 102.7 60.5632 102.919C60.0169 103.139 59.6401 103.522 59.458 103.836C59.2758 104.143 59.257 104.369 59.3261 104.4Z" fill="#263238"/>
<path d="M58.6881 101.403C58.9393 101.534 59.5359 101.057 60.3461 100.725C61.1436 100.367 61.9035 100.26 61.9789 99.9906C62.0103 99.8651 61.8219 99.7082 61.4451 99.6391C61.0746 99.5701 60.5156 99.614 59.963 99.8462C59.4103 100.085 58.9959 100.455 58.7949 100.775C58.5877 101.095 58.5751 101.34 58.6881 101.403Z" fill="#DB9651"/>
<path d="M55.5685 111.738C55.3989 111.262 54.4443 110.327 53.9419 110.421C52.6043 110.672 50.356 111.582 51.4738 114.801C52.9999 119.2 57.1134 116.759 57.0757 116.633C57.0443 116.533 56.1588 113.395 55.5685 111.738Z" fill="#FFBF9D"/>
<path d="M55.2914 115.44C55.2663 115.434 55.2349 115.522 55.1218 115.622C55.0151 115.722 54.8141 115.842 54.5503 115.835C54.0228 115.829 53.376 115.227 53.0808 114.436C52.9301 114.041 52.8798 113.626 52.9175 113.262C52.9426 112.892 53.0682 112.597 53.288 112.472C53.5016 112.34 53.7151 112.422 53.8156 112.522C53.9161 112.622 53.9223 112.723 53.9475 112.723C53.9663 112.729 54.0165 112.616 53.9161 112.447C53.8658 112.365 53.7779 112.277 53.646 112.233C53.5078 112.183 53.3383 112.196 53.1813 112.271C52.8484 112.415 52.6538 112.829 52.6161 113.231C52.5596 113.639 52.6098 114.103 52.7731 114.549C53.1059 115.427 53.8533 116.099 54.5503 116.061C54.8895 116.036 55.1155 115.854 55.2097 115.704C55.3228 115.547 55.3102 115.44 55.2914 115.44Z" fill="#FF9A6C"/>
<path fill-rule="evenodd" clip-rule="evenodd" d="M72.4775 105.795C69.9346 106.427 68.5593 104.392 67.9691 102.019C67.4655 99.9928 74.2116 97.675 74.7366 99.7869C75.326 102.157 75.0205 105.162 72.4775 105.795Z" fill="#263238"/>
<path fill-rule="evenodd" clip-rule="evenodd" d="M62.7577 108.669C59.7978 109.465 58.1599 107.294 57.3777 104.148C56.9603 102.101 64.4698 100.829 64.952 102.769C65.6485 105.57 65.7176 107.873 62.7577 108.669Z" fill="#263238"/>
<path fill-rule="evenodd" clip-rule="evenodd" d="M62.8971 109.229C66.4313 108.351 66.2629 105.28 65.4165 101.875L67.356 101.393C68.2346 104.927 69.5781 107.202 72.8538 106.388C76.1295 105.573 75.6932 101.426 75.0396 98.7965C71.9518 97.3616 69.3886 99.2305 67.576 100.552C67.5054 100.604 67.436 100.654 67.3677 100.704L64.6092 101.39C61.9819 100.578 58.3724 101.338 56.5493 103.577L53.7477 104.273L53.961 105.868L56.7403 105.634C57.0726 106.971 59.3628 110.108 62.8971 109.229ZM72.4775 105.795C69.9346 106.427 68.5593 104.392 67.9691 102.019C67.4655 99.9928 74.2116 97.675 74.7366 99.7869C75.326 102.157 75.0205 105.162 72.4775 105.795ZM62.7577 108.669C59.7978 109.465 58.1599 107.294 57.3777 104.148C56.9603 102.101 64.4698 100.829 64.952 102.769C65.6485 105.57 65.7176 107.873 62.7577 108.669Z" fill="white"/>
<path d="M53.7595 110.499L55.3232 111.177C58.1555 104.707 62.6646 89.5899 62.426 90.4747C62.426 90.4747 58.6454 90.4936 55.386 92.5519C52.1266 94.6102 46.2108 99.1284 48.0383 103.214C49.8658 107.299 53.7595 110.499 53.7595 110.499Z" fill="#DB9651"/>
<g opacity="0.3">
<path d="M45.4556 111.689C49.1922 111.13 52.4955 109.198 54.9196 106.305C56.1254 104.868 57.0925 103.186 58.5935 102.063C60.7789 100.425 63.7117 100.249 66.4436 100.337C69.1754 100.425 71.9952 100.707 74.57 99.7846L73.791 98.3744L72.9686 96.8854C72.9686 96.8854 62.2171 96.4461 62.1103 96.5152C62.0036 96.5842 56.6215 96.8478 56.452 96.9356C56.2824 97.0235 45.2734 109.173 45.2734 109.173L45.4556 111.689Z" fill="black"/>
<path d="M73.791 98.3744L74.57 99.7846L75.2179 99.5495L75.0414 98.7904C74.4469 98.5279 74.2244 98.4862 73.791 98.3744Z" fill="black"/>
</g>
<path d="M90.741 89.7113C82.2503 88.6382 76.7113 92.3971 69.1438 90.9287C59.9209 94.5995 51.4588 98.1607 44.0486 103.134C41.6873 105.142 35.1749 108.324 32.0976 108.675C31.3817 108.757 30.6406 108.795 30.0064 109.127C29.3658 109.46 28.8634 110.188 29.0581 110.878C29.2214 111.462 29.8054 111.819 30.358 112.07C33.5483 113.545 37.2975 113.62 40.6511 112.566C44.0047 111.512 46.9626 109.391 49.2988 106.761C51.8233 103.919 53.8393 100.335 57.331 98.8168C60.1507 97.5931 63.3661 97.9885 66.4371 98.1265C75.0785 98.5219 83.8141 96.6832 91.5637 92.8427C92.0661 92.5917 92.6187 92.2779 92.7695 91.732C93.0583 90.7091 91.8023 89.8493 90.741 89.7113Z" fill="#6F4439"/>
<path d="M63.8203 86.6409C59.2045 85.2979 53.9166 86.051 50.1486 89.038C46.3805 92.0251 45.4071 97.014 44.8984 102.643C54.1302 96.7065 64.1971 94.4474 74.9612 95.3009C72.3549 91.2595 68.4299 87.9838 63.8203 86.6409Z" fill="#6F4439"/>
<path d="M69.7049 90.3606C69.7111 90.3731 69.6169 90.417 69.4411 90.4861C69.2276 90.5676 68.9701 90.6743 68.6624 90.7936C67.9841 91.0508 67.0044 91.4274 65.7987 91.9106C63.3871 92.8644 60.0775 94.2638 56.5167 95.9896C52.9496 97.7153 49.8159 99.4598 47.5802 100.784C46.4623 101.443 45.5643 101.989 44.9488 102.372C44.6662 102.541 44.4276 102.685 44.2329 102.805C44.0696 102.899 43.9754 102.943 43.9691 102.936C43.9628 102.924 44.0382 102.861 44.1952 102.748C44.3836 102.616 44.6097 102.459 44.8797 102.265C45.4763 101.851 46.3555 101.273 47.4608 100.583C49.6714 99.2088 52.7989 97.4266 56.3723 95.6946C59.9456 93.9626 63.2741 92.5946 65.717 91.6909C66.9354 91.2391 67.9339 90.894 68.6247 90.668C68.9387 90.5676 69.2025 90.4861 69.4223 90.417C69.6044 90.3731 69.6986 90.3543 69.7049 90.3606Z" fill="#263238"/>
<path d="M92.1461 91.5869C92.1461 91.5931 92.1022 91.6245 92.0017 91.6873C91.8824 91.7563 91.7379 91.8379 91.5558 91.9446C91.1601 92.1705 90.5698 92.4842 89.7911 92.8545C88.2399 93.595 85.9226 94.5739 82.9332 95.3521C79.9502 96.1365 76.2701 96.6636 72.1943 96.6072C70.1596 96.6072 68.0243 96.5444 65.8138 96.6197C63.6094 96.695 61.3235 96.9398 59.0878 97.5924C57.9762 97.9313 56.896 98.3454 55.9101 98.8977C54.9178 99.4436 54.0198 100.109 53.1971 100.837C51.558 102.299 50.214 103.968 48.8324 105.468C48.1479 106.221 47.4508 106.936 46.7286 107.589C46.0064 108.242 45.2402 108.794 44.474 109.296C42.9291 110.269 41.3403 110.915 39.8519 111.335C36.8563 112.164 34.2878 112.07 32.5921 111.812C30.884 111.549 29.9922 111.185 29.9922 111.185C29.9922 111.179 30.055 111.191 30.168 111.216C30.2999 111.248 30.4632 111.285 30.6704 111.335C30.8902 111.398 31.1603 111.455 31.4868 111.511C31.8134 111.574 32.1839 111.643 32.611 111.687C34.3003 111.906 36.8375 111.963 39.7891 111.116C41.2524 110.689 42.8161 110.036 44.3296 109.07C45.0769 108.574 45.8243 108.028 46.5339 107.382C47.2436 106.742 47.9281 106.026 48.6063 105.273C49.9691 103.774 51.313 102.098 52.9773 100.605C53.8125 99.8641 54.7294 99.1801 55.7468 98.6216C56.7579 98.0568 57.8569 97.63 58.9873 97.2849C61.267 96.6197 63.578 96.3812 65.7949 96.3059C68.0181 96.2369 70.1533 96.3059 72.188 96.3122C76.2512 96.3812 79.8937 95.8855 82.8704 95.1324C85.8535 94.3857 88.1645 93.4507 89.7283 92.7478C90.5133 92.3964 91.1099 92.1014 91.5118 91.8944C91.7002 91.8002 91.851 91.7249 91.9766 91.6684C92.0896 91.6057 92.1461 91.5806 92.1461 91.5869Z" fill="#263238"/>
<path d="M88.5 180.498L124.915 178.734C124.915 179.123 126.671 196.632 130.559 202.841C134.447 209.051 138.666 223.419 139.405 228.722L146 224.5C146 224.5 140.166 189.244 139 182.497C137.834 175.75 136.445 168.544 132 164.497C127.561 160.45 126.153 161.685 125.764 161.685C125.375 161.685 90.9624 166.907 88.5 180.498Z" fill="#FFBF9D"/>
<path d="M127 163.427C126.994 163.414 127.078 163.376 127.247 163.298C127.415 163.227 127.668 163.142 128.011 163.078C128.685 162.942 129.728 162.948 130.895 163.395C132.061 163.829 133.273 164.787 134.226 166.108C135.191 167.435 135.917 169.087 136.526 170.848C137.109 172.628 137.485 174.37 137.764 175.957C138.049 177.543 138.263 178.981 138.457 180.185C138.651 181.344 138.813 182.302 138.937 183.028C139.06 183.694 139.118 184.07 139.092 184.077C139.066 184.083 138.969 183.72 138.807 183.053C138.651 182.387 138.444 181.422 138.224 180.224C138.003 179.006 137.744 177.582 137.459 176.015C137.161 174.435 136.785 172.706 136.208 170.951C135.606 169.21 134.899 167.578 133.979 166.283C133.066 164.981 131.919 164.055 130.811 163.609C129.703 163.149 128.698 163.11 128.037 163.201C127.357 163.298 127.013 163.46 127 163.427Z" fill="#FF9A6C"/>
<path d="M159.109 245.527C159.362 244.562 158.655 243.591 157.839 243.008C157.022 242.426 156.05 242.056 155.35 241.338L138.956 234.772C138.191 234.481 137.336 234.39 136.552 234.63C135.768 234.869 135.075 235.452 134.809 236.222C134.342 237.543 135.204 239.013 136.358 239.803C137.511 240.593 138.917 240.904 140.226 241.402C142.235 242.167 144.03 243.39 145.838 244.556C147.639 245.728 149.499 246.868 151.566 247.463C153.633 248.052 155.96 248.039 157.826 246.965C158.396 246.634 158.94 246.168 159.109 245.527Z" fill="#6F4439"/>
<path d="M157.382 241.328C152.314 237.119 146.985 232.018 146 224.5L138.337 223.852C141.033 231.337 136.568 235.39 137.844 237.106C139.056 238.744 141.331 238.796 143.106 239.651C146.573 241.321 147.435 244.578 150.921 246.197C152.982 247.156 154.822 247.376 157.019 246.495C157.887 246.145 158.833 245.595 159.112 244.63C159.501 243.283 158.367 242.15 157.382 241.328Z" fill="#FFBF9D"/>
<path d="M155.989 239.422C156.28 239.539 155.833 240.834 156.267 242.563L156.572 243.78L155.282 243.32C154.226 242.945 152.93 242.563 151.504 242.356C149.58 242.058 147.798 242.116 146.502 242.213C145.206 242.323 144.363 242.433 144.279 242.207C144.201 242 144.921 241.475 146.269 241.048C147.61 240.633 149.599 240.355 151.757 240.692C153.351 240.925 154.777 241.462 155.865 242.045L154.88 242.802C154.764 241.663 155.017 240.75 155.289 240.18C155.574 239.61 155.859 239.364 155.989 239.422Z" fill="#6F4439"/>
<path d="M117.527 126.902C116.395 127.468 79.0391 124.072 79.0391 124.072L85.265 135.392C85.265 135.392 119.791 135.392 122.055 133.694C124.319 131.996 136 120 136 120L133 116C133 116 118.659 126.336 117.527 126.902Z" fill="#FFBF9D"/>
<path fill-rule="evenodd" clip-rule="evenodd" d="M57.5006 139.499C60.0006 126.999 54.1461 123.507 54.1461 123.507L40.1663 116.753L30.5625 115.5L35.1144 124.225C44.1566 131.262 57.5006 139.499 57.5006 139.499Z" fill="#FFBF9D"/>
<path d="M73.5 191C60.5 181.5 71.5633 166 70.5 158.5C69.4367 151 57.5 139.5 57.5 139.5C59.764 127.048 54 123.5 54 123.5L57 124C57 124 70.5545 132.99 74.5164 132C78.4784 131.01 74.5164 124.074 74.5164 124.074H79.0444C79.0444 124.074 88.6663 129.734 90.3643 134.262C92.0622 138.79 88.6663 144.45 88.6663 144.45C89.2323 153.506 92.104 165.538 95.5 169.5C98.896 173.462 97 179 97 179L73.5 191Z" fill="white"/>
<path fill-rule="evenodd" clip-rule="evenodd" d="M90.3643 134.266C92.0622 138.794 88.6663 144.454 88.6663 144.454C88.9647 149.229 89.9042 154.831 91.2237 159.642C92.5 164.004 93.5 166.504 93.5 166.504L89 167.504L87.5 161.004C87.5 161.004 84.5 147.504 65.1756 148.504L57.5 139.504C57.6694 138.572 57.7939 137.69 57.8791 136.856C68.5 147.004 86 142.504 90.3643 134.266Z" fill="black" fill-opacity="0.07"/>
<path d="M127.996 153.506L126.498 163.006L118.409 169.006L73.6734 191.229C72.0947 189.823 65.4954 185.504 67.9977 175.504C70.5 165.504 127.996 152.006 127.996 153.506Z" fill="#FFBF9D"/>
<path d="M119 167.5C110.636 172.391 101 177.5 97 179.5C101.5 177 111.5 171.5 119 167.5Z" fill="#FF9A6C"/>
<path d="M130 152.998C142.5 152.498 154 183.998 154 183.998C154 183.998 150.5 207 132.5 211.5C114.5 216 113.5 218 113.5 218C115 206 113.5 188.5 118 179.5L96 180.5L73.4986 191.498C73.4986 191.498 63.9986 186.998 67.9986 172.498C72.5 164.998 117.5 153.498 130 152.998Z" fill="white"/>
<path d="M100 178.003L121.5 166.003C114 171.004 109 174.004 100 178.003Z" fill="black" fill-opacity="0.07"/>
<path d="M138 177.003C139.5 189.004 140 192.004 142 200.003L138 177.003Z" fill="black" fill-opacity="0.07"/>
<path d="M127 163.503C136.5 161 137 172.003 137 172.003C135.5 164.5 132.5 163 127 163.503Z" fill="black" fill-opacity="0.07"/>
<path d="M110.5 209.5C110.5 211 114.5 211 114.5 211L118 179.5C114.5 183 110.5 208 110.5 209.5Z" fill="white"/>
<path d="M114 210C114.5 198.5 115.5 193 117.503 183L114 210Z" fill="black" fill-opacity="0.07"/>
<path d="M130.5 153C125 153 109.5 156.498 104 157.997C125.376 153.494 126.982 153.494 130.931 153.494L131 153.494C136 153.494 143 160.5 151.5 177.997C145 162.994 137 153 130.5 153Z" fill="black" fill-opacity="0.1"/>
<path d="M43.2507 118.255C43.2507 118.255 40.0001 116.004 36 115.5C40 116.5 43.2507 118.255 43.2507 118.255Z" fill="#FF9A6C"/>
</g>
<defs>
<linearGradient id="paint0_linear_19640_185449" x1="161.992" y1="-1.20456e-06" x2="161.984" y2="113.687" gradientUnits="userSpaceOnUse">
<stop stop-color="#FFEFB9" stop-opacity="0"/>
<stop offset="1" stop-color="#FFEFB9"/>
</linearGradient>
<linearGradient id="paint1_linear_19640_185449" x1="161.447" y1="113.386" x2="323.967" y2="58.2621" gradientUnits="userSpaceOnUse">
<stop stop-color="#FFEFB9"/>
<stop offset="1" stop-color="#FFEFB9" stop-opacity="0"/>
</linearGradient>
<linearGradient id="paint2_linear_19640_185449" x1="162.553" y1="113.386" x2="0.032973" y2="58.2621" gradientUnits="userSpaceOnUse">
<stop stop-color="#FFEFB9"/>
<stop offset="1" stop-color="#FFEFB9" stop-opacity="0"/>
</linearGradient>
<linearGradient id="paint3_linear_19640_185449" x1="161.447" y1="116.107" x2="265.61" y2="38.1246" gradientUnits="userSpaceOnUse">
<stop stop-color="#FFEFB9"/>
<stop offset="1" stop-color="#FFEFB9" stop-opacity="0"/>
</linearGradient>
<linearGradient id="paint4_linear_19640_185449" x1="162.553" y1="116.107" x2="58.3895" y2="38.1246" gradientUnits="userSpaceOnUse">
<stop stop-color="#FFEFB9"/>
<stop offset="1" stop-color="#FFEFB9" stop-opacity="0"/>
</linearGradient>
<linearGradient id="paint5_linear_19640_185449" x1="221.5" y1="2.54e-06" x2="178.536" y2="119.154" gradientUnits="userSpaceOnUse">
<stop stop-color="#FFEFB9" stop-opacity="0"/>
<stop offset="1" stop-color="#FFEFB9"/>
</linearGradient>
<linearGradient id="paint6_linear_19640_185449" x1="102.5" y1="2.54e-06" x2="145.464" y2="119.154" gradientUnits="userSpaceOnUse">
<stop stop-color="#FFEFB9" stop-opacity="0"/>
<stop offset="1" stop-color="#FFEFB9"/>
</linearGradient>
<linearGradient id="paint7_linear_19640_185449" x1="0" y1="132.5" x2="40" y2="132.5" gradientUnits="userSpaceOnUse">
<stop offset="0.15014" stop-color="white"/>
<stop offset="1" stop-color="white" stop-opacity="0"/>
</linearGradient>
<linearGradient id="paint8_linear_19640_185449" x1="0" y1="132.5" x2="40" y2="132.5" gradientUnits="userSpaceOnUse">
<stop offset="0.15014" stop-color="white"/>
<stop offset="1" stop-color="white" stop-opacity="0"/>
</linearGradient>
<clipPath id="clip0_19640_185449">
<rect width="324" height="265" fill="white"/>
</clipPath>
</defs>
</svg>
