<svg width="50" height="50" viewBox="0 0 50 50" fill="none" xmlns="http://www.w3.org/2000/svg">
<g clip-path="url(#clip0_19381_189511)">
<rect width="50" height="50" rx="10" fill="#63B4FF"/>
<path d="M38.2031 24.4004C38.5345 24.4004 38.8027 24.6686 38.8027 25C38.8027 25.3314 38.5345 25.5996 38.2031 25.5996H35.2031C34.8718 25.5996 34.6035 25.3314 34.6035 25C34.6035 24.6686 34.8718 24.4004 35.2031 24.4004H38.2031Z" fill="white"/>
<path d="M34.6763 30.2162C34.835 29.9253 35.1989 29.8183 35.4898 29.977L38.2398 31.477C38.5307 31.6356 38.6378 31.9995 38.4791 32.2904C38.3204 32.5813 37.9565 32.6884 37.6656 32.5297L34.9156 31.0297C34.6247 30.871 34.5177 30.5071 34.6763 30.2162Z" fill="white"/>
<path d="M34.6768 19.7871C34.8354 20.078 35.1993 20.185 35.4902 20.0264L38.2402 18.5264C38.5311 18.3677 38.6382 18.0038 38.4795 17.7129C38.3208 17.422 37.9569 17.315 37.666 17.4736L34.916 18.9736C34.6251 19.1323 34.5181 19.4962 34.6768 19.7871Z" fill="white"/>
<path d="M29.8297 25.0073C29.8297 28.1015 29.8297 31.1956 29.8297 34.2897C29.8297 34.5053 29.8047 34.7082 29.6172 34.8603C29.4047 35.0379 29.1547 35.0506 28.8672 34.873C28.4672 34.6321 28.0672 34.4038 27.6672 34.1629C25.0547 32.6158 22.4422 31.0815 19.8297 29.5344C19.5047 29.3442 19.1797 29.154 18.8547 28.9638C18.6047 28.8243 18.4922 28.6214 18.4922 28.3297C18.4922 26.1106 18.4922 23.8787 18.4922 21.6596C18.4922 21.3679 18.6172 21.165 18.8672 21.0255C20.3047 20.1759 21.7547 19.3136 23.1922 18.464C25.0797 17.3481 26.9672 16.2322 28.8547 15.129C29.3797 14.8246 29.8297 15.0782 29.8297 15.6869C29.8297 18.7937 29.8297 21.8878 29.8297 24.9946V25.0073Z" fill="white"/>
<path d="M14.6416 28.968C15.2166 29.0441 15.7916 29.0188 16.3666 29.0441H17.7666C17.9416 29.0441 18.0041 28.9934 17.9666 28.8032C17.9291 28.613 17.9041 28.4101 17.9041 28.2199V22.095C17.9041 21.8414 17.9166 21.5751 17.9541 21.3215C17.9916 21.0552 17.9916 21.0425 17.7291 21.0425C16.8541 21.0425 15.9791 21.0172 15.1041 21.0425C14.6916 21.0552 14.2666 21.1059 13.8791 21.2454C11.6916 22.0189 10.6291 24.3776 11.5166 26.546C12.0916 27.9536 13.1541 28.7652 14.6416 28.968Z" fill="white"/>
<path d="M15.4775 34.6993C15.065 34.6993 14.6525 34.6993 14.24 34.6993C13.6775 34.6993 13.4275 34.3062 13.6525 33.7736C13.865 33.279 14.09 32.7845 14.3025 32.2899C14.665 31.4783 15.0275 30.6668 15.3775 29.8425C15.4525 29.665 15.5525 29.6016 15.74 29.6016C16.6525 29.6016 17.565 29.6142 18.49 29.6016C18.7775 29.6016 18.99 29.7411 19.215 29.8805C19.365 29.9693 19.29 30.1088 19.24 30.2229C19.0275 30.6921 18.815 31.1613 18.615 31.6305C18.215 32.5182 17.8275 33.3931 17.4275 34.2808C17.3025 34.5471 17.1025 34.7 16.815 34.7C16.3775 34.7 15.9275 34.6993 15.4775 34.6993Z" fill="white"/>
<path d="M30.4375 25.0089C30.4375 24.2861 30.4375 23.5633 30.4375 22.8405C30.4375 22.5488 30.4625 22.5234 30.75 22.5234C30.9875 22.5234 31.225 22.5234 31.4625 22.5234C31.8375 22.5234 32.0625 22.739 32.075 23.1194C32.0875 23.4999 32.075 23.893 32.075 24.2861C32.075 25.085 32.075 25.8839 32.075 26.6954C32.075 26.8349 32.075 26.9744 32.0375 27.1139C31.975 27.3422 31.7625 27.4943 31.5 27.4943C31.2375 27.4943 30.975 27.4943 30.7125 27.4943C30.5125 27.4943 30.45 27.4182 30.45 27.228C30.45 26.4925 30.4375 25.7571 30.4375 25.0089Z" fill="white"/>
</g>
<defs>
<clipPath id="clip0_19381_189511">
<rect width="50" height="50" fill="white"/>
</clipPath>
</defs>
</svg>
