<svg width="50" height="50" viewBox="0 0 50 50" fill="none" xmlns="http://www.w3.org/2000/svg">
<g clip-path="url(#clip0_19382_138096)">
<rect width="50" height="50" rx="10" fill="#FCBC45"/>
<path fill-rule="evenodd" clip-rule="evenodd" d="M19.6113 37.8955C17.5296 37.8955 15.708 37.1648 14.2334 35.6816C12.7589 34.1985 12 32.4141 12 30.3506C12.0001 28.2873 12.7374 26.482 14.2334 25.0205L18.5488 20.7422L20.3174 22.5088L15.9932 26.7959L15.9805 26.8086C14.9764 27.7895 14.5001 28.9456 14.5 30.3506C14.5 31.729 14.9803 32.8864 16.0068 33.9189C16.9973 34.9151 18.1738 35.3955 19.6113 35.3955C21.038 35.3955 22.2044 34.9224 23.2295 33.9062L27.5439 29.6289L29.3047 31.4043L24.9893 35.6816L24.7051 35.9512C23.2669 37.2535 21.5629 37.8955 19.6113 37.8955ZM31.4512 29.2549L35.7666 24.9775C37.1693 23.6072 37.9047 21.9343 37.9912 20.0303L38 19.6465C38 17.5829 37.2412 15.7986 35.7666 14.3154C34.3843 12.9251 32.697 12.1962 30.7764 12.1104L30.3887 12.1016C28.3069 12.1016 26.507 12.8323 25.0107 14.3154L20.6953 18.5928L22.4561 20.3682L26.7705 16.0908C27.7956 15.0747 28.962 14.6016 30.3887 14.6016C31.8261 14.6016 33.0028 15.082 33.9932 16.0781C35.0197 17.1106 35.5 18.2681 35.5 19.6465C35.5 21.0515 35.0236 22.2075 34.0195 23.1885L34.0068 23.2021L29.6914 27.4795L31.4512 29.2549Z" fill="white"/>
<path d="M30.1572 21.5566L21.5645 30.1494L19.7969 28.3818L28.3896 19.7891L30.1572 21.5566Z" fill="white"/>
</g>
<defs>
<clipPath id="clip0_19382_138096">
<rect width="50" height="50" fill="white"/>
</clipPath>
</defs>
</svg>
