<svg width="50" height="50" viewBox="0 0 50 50" fill="none" xmlns="http://www.w3.org/2000/svg">
<g clip-path="url(#clip0_19382_138107)">
<rect width="50" height="50" rx="10" fill="#FC9A45"/>
<path d="M23.6199 30.8407C24.0628 30.9449 24.5245 31 24.9991 31V35L24.9991 38H22.857C22.3634 38 21.9437 37.6399 21.8686 37.1521L21.4371 34.347C20.4337 33.9644 19.5078 33.4249 18.6894 32.7585L16.0398 33.7891C15.5798 33.968 15.0581 33.7845 14.8113 33.3571L12.6692 29.6469C12.4224 29.2195 12.5244 28.6759 12.9093 28.367L15.1247 26.5892C15.042 26.0717 14.9991 25.5408 14.9991 25C14.9991 24.4614 15.0417 23.9327 15.1237 23.4171L12.9054 21.637C12.5205 21.3281 12.4185 20.7845 12.6653 20.3571L14.8074 16.6469C15.0542 16.2195 15.5759 16.036 16.0359 16.2149L18.6848 17.2452C19.5044 16.5771 20.4319 16.0363 21.4371 15.653L21.8686 12.8479C21.9437 12.3601 22.3634 12 22.857 12H27.1412C27.6347 12 28.0545 12.3601 28.1295 12.8479L28.5611 15.653C29.5657 16.0361 30.4926 16.5764 31.3117 17.2439L33.9573 16.2149C34.4173 16.036 34.9391 16.2195 35.1859 16.6469L37.3279 20.3571C37.5747 20.7845 37.4727 21.3281 37.0878 21.637L34.8739 23.4136C34.9563 23.9303 34.9991 24.4601 34.9991 25L32.8926 25.0036L30.9991 25C30.9991 24.4038 30.9121 23.8279 30.7502 23.2844C30.4796 22.3758 29.9995 21.5575 29.3661 20.8854C28.575 20.0461 27.5446 19.4348 26.384 19.1606C25.9394 19.0556 25.4757 19 24.9991 19C24.5213 19 24.0566 19.0558 23.6111 19.1613C22.4517 19.4359 21.4225 20.0469 20.6321 20.8854C19.9998 21.5562 19.5204 22.3727 19.2495 23.2792C19.0866 23.8243 18.9991 24.4019 18.9991 25C18.9991 25.6015 19.0876 26.1824 19.2523 26.7302C19.5237 27.6329 20.002 28.4461 20.6321 29.1146C21.4245 29.9553 22.457 30.5672 23.6199 30.8407Z" fill="white"/>
<path d="M38.0137 30.3867C38.0135 31.013 37.8065 31.522 37.373 31.9619L35.3125 34.0088L36.3965 35.0938L38.4111 33.0977C39.1226 32.4017 39.4999 31.541 39.5439 30.5732L39.5479 30.3877L39.543 30.1904C39.4975 29.223 39.1131 28.3789 38.4121 27.6738C37.7098 26.9676 36.842 26.5955 35.8662 26.5518L35.6748 26.5469C34.619 26.5475 33.7014 26.9215 32.9424 27.6738L30.9492 29.6475L32.0303 30.7354L34.0225 28.7627C34.4929 28.2964 35.0229 28.0811 35.6777 28.0811C36.3381 28.0812 36.8716 28.2999 37.3242 28.7549C37.7969 29.2304 38.0137 29.7572 38.0137 30.3867Z" fill="white"/>
<path fill-rule="evenodd" clip-rule="evenodd" d="M30.418 39.4473C31.4076 39.4472 32.2823 39.1153 33.0137 38.4531L33.1543 38.3193L35.1211 36.3672L34.0361 35.2852L32.0732 37.2324C31.6028 37.6986 31.0727 37.914 30.418 37.9141C29.7578 37.9139 29.224 37.695 28.7715 37.2402C28.2989 36.7649 28.0812 36.2386 28.0811 35.6094C28.0811 34.968 28.296 34.4462 28.751 33.999L30.7539 32.0098L29.6738 30.9209L27.6846 32.8945C26.924 33.6378 26.547 34.5615 26.5469 35.6094C26.547 36.6585 26.9348 37.5687 27.6816 38.3203L27.8252 38.458C28.5487 39.1201 29.4279 39.4471 30.418 39.4473Z" fill="white"/>
<path d="M30.29 34.6465L31.373 35.7295L31.4854 35.6201L35.6787 31.4287L35.79 31.3164L34.7041 30.2314L30.29 34.6465Z" fill="white"/>
</g>
<defs>
<clipPath id="clip0_19382_138107">
<rect width="50" height="50" fill="white"/>
</clipPath>
</defs>
</svg>
