<svg width="50" height="50" viewBox="0 0 50 50" fill="none" xmlns="http://www.w3.org/2000/svg">
<g clip-path="url(#clip0_19381_189497)">
<rect width="50" height="50" rx="10" fill="#63B4FF"/>
<path d="M25 37.3328C17.8375 37.3328 12 31.5329 12 24.4164C12 17.3 17.825 11.5 25 11.5C32.175 11.5 38 17.3 38 24.4164C37.975 25.8074 37.7625 27.1736 37.35 28.49C37.1625 29.0738 36.5375 29.4091 35.9375 29.2228C35.35 29.0365 35.0125 28.4155 35.2 27.8194C35.55 26.714 35.725 25.559 35.75 24.3916C35.75 18.5171 30.925 13.7231 25 13.7231C19.075 13.7231 14.25 18.5171 14.25 24.404C14.25 30.2909 19.075 35.0849 25 35.0849C25.625 35.0849 26.125 35.5816 26.125 36.2026C26.125 36.8236 25.625 37.3204 25 37.3204V37.3328Z" fill="white"/>
<path d="M25.4094 33.5695C20.1344 33.5695 15.8219 29.3096 15.7969 24.0685L16.7344 24.0312C16.7594 28.788 20.6469 32.638 25.4094 32.638V33.5695Z" fill="white"/>
<path d="M33.7531 24.7883H33.2781C33.2781 20.044 29.4031 16.1939 24.6406 16.1815V15.25C29.9156 15.25 34.2031 19.5224 34.2156 24.751L33.7406 24.7759L33.7531 24.7883Z" fill="white"/>
<path d="M27.2156 29.8864H22.2656V28.3215L22.9406 28.3712C23.1281 28.396 23.3031 28.3712 23.4906 28.3215C23.5281 28.0731 23.5406 27.8247 23.5281 27.5763V22.2483C23.5406 21.8385 23.5281 21.4535 23.4781 21.0809C23.3531 21.1057 23.2281 21.143 23.1031 21.2051L22.5656 21.4659L21.8281 20.137L24.9656 18.6094H25.9781V27.5142C25.9656 27.7999 25.9781 28.0483 26.0156 28.3091C26.1906 28.3588 26.3906 28.3836 26.5781 28.3836L27.2281 28.3588V29.9112L27.2156 29.8864Z" fill="white"/>
<path d="M31.6156 38.495V34.3344H27.5156V32.6205H31.6156V28.5469H33.3281V32.6205H37.4281V34.322H33.3281V38.4826H31.6156V38.495Z" fill="white"/>
</g>
<defs>
<clipPath id="clip0_19381_189497">
<rect width="50" height="50" fill="white"/>
</clipPath>
</defs>
</svg>
