<svg width="50" height="50" viewBox="0 0 50 50" fill="none" xmlns="http://www.w3.org/2000/svg">
<g clip-path="url(#clip0_19381_138084)">
<rect width="50" height="50" rx="10" fill="#FCBC45"/>
<path d="M25.0999 35.6378C25.4241 35.3136 25.874 35.1919 26.291 35.2721C26.5431 35.3206 26.7842 35.4433 26.9787 35.6378C27.4975 36.1568 27.4976 36.9977 26.9787 37.5166L25.9838 38.5115C25.4649 39.0303 24.6239 39.0303 24.105 38.5115C23.5861 37.9926 23.5861 37.1508 24.105 36.6319L25.0999 35.6378ZM22.0903 32.6282C22.6092 32.1093 23.4501 32.1093 23.969 32.6282C24.488 33.1471 24.488 33.988 23.969 34.507L23.3227 35.1542L22.9741 35.5018C22.4552 36.0207 21.6143 36.0208 21.0954 35.5018C20.5765 34.9829 20.5765 34.142 21.0954 33.6231L21.4431 33.2745L22.0903 32.6282ZM19.0806 29.6185C19.5995 29.0996 20.4413 29.0996 20.9602 29.6185C21.4789 30.1374 21.4788 30.9784 20.9602 31.4973L19.9653 32.4922C19.4464 33.0111 18.6046 33.0111 18.0857 32.4922C17.567 31.9733 17.5669 31.1323 18.0857 30.6134L19.0806 29.6185ZM16.0709 26.6089C16.5899 26.0899 17.4316 26.0899 17.9506 26.6089C18.4695 27.1278 18.4695 27.9696 17.9506 28.4885L17.3034 29.1348L16.9557 29.4834C16.4367 30.0022 15.595 30.0023 15.076 29.4834C14.5571 28.9645 14.5572 28.1227 15.076 27.6038L15.4246 27.2561L16.0709 26.6089Z" fill="white"/>
<path d="M24.1988 17.962L21.3079 20.8529C20.5061 21.6549 20.361 22.8664 20.875 23.8161C20.9874 24.0236 21.1316 24.219 21.3079 24.3953C21.4843 24.5717 21.6804 24.7158 21.888 24.8282C22.8377 25.3422 24.0493 25.1972 24.8512 24.3953L27.9848 21.2617C28.49 20.7565 29.3093 20.7565 29.8145 21.2617L36.0077 27.4549C36.5811 28.0287 36.5811 28.9586 36.0077 29.5325C35.4338 30.1063 34.5031 30.1063 33.9292 29.5325L30.8137 26.4178L29.9574 27.2741L33.0729 30.3897C33.6465 30.9636 33.6467 31.8943 33.0729 32.4681C32.4991 33.0419 31.5683 33.0417 30.9944 32.4681L27.8789 29.3526L27.0226 30.2089L30.1372 33.3244C30.7111 33.8983 30.7111 34.829 30.1372 35.4029C29.7219 35.818 29.1205 35.9317 28.6036 35.7471L28.4254 35.6834L28.3462 35.5122C28.2243 35.2479 28.0547 34.9995 27.8359 34.7806C27.7348 34.6795 27.627 34.5889 27.5149 34.5087C27.0709 34.191 26.5469 34.0336 26.0225 34.037L25.5672 34.0396L25.5698 33.5843C25.5741 32.9279 25.3266 32.2713 24.8262 31.771C24.3259 31.2707 23.6693 31.0231 23.0129 31.0274L22.5576 31.03L22.5602 30.5747C22.5644 29.9184 22.3168 29.2625 21.8166 28.7622C21.3162 28.2618 20.6596 28.0134 20.0032 28.0177L19.5479 28.0212L19.5514 27.565C19.5556 26.9087 19.3072 26.2528 18.8069 25.7525C17.8233 24.7689 16.2334 24.7599 15.2396 25.7267L15.2129 25.7542L14.2636 26.7035L12.8799 25.3198C11.7373 24.1772 11.7373 22.3246 12.8799 21.182L18.0804 15.9815C19.2231 14.8388 21.0756 14.8388 22.2183 15.9815L24.1988 17.962Z" fill="white"/>
<path d="M30.6708 20.4054C29.973 19.7076 28.9656 19.5066 28.0889 19.8055C27.7384 19.925 27.409 20.1248 27.1284 20.4054L23.994 23.539C23.4888 24.0439 22.6703 24.0439 22.1651 23.539C21.6599 23.0338 21.6599 22.2145 22.1651 21.7092L27.8817 15.9926C29.0244 14.85 30.8769 14.85 32.0196 15.9926L37.1142 21.0873C38.2569 22.23 38.2569 24.0825 37.1142 25.2252L36.3029 26.0365L30.6708 20.4054Z" fill="white"/>
<path fill-rule="evenodd" clip-rule="evenodd" d="M33.2032 12.6858C32.4415 13.4475 32.4409 14.6831 33.2027 15.4449L37.6693 19.9115C38.4311 20.6733 39.6667 20.6727 40.4284 19.911C41.1902 19.1492 41.1907 17.9136 40.429 17.1519L35.9623 12.6852C35.2006 11.9235 33.965 11.924 33.2032 12.6858ZM38.5027 17.9885C38.2587 18.2325 38.2587 18.6283 38.5027 18.8723C38.7468 19.1164 39.1425 19.1164 39.3866 18.8723C39.6307 18.6283 39.6307 18.2325 39.3866 17.9885C39.1425 17.7444 38.7468 17.7444 38.5027 17.9885Z" fill="white"/>
<path fill-rule="evenodd" clip-rule="evenodd" d="M16.9096 12.6728C17.6713 13.4345 17.6713 14.6695 16.9096 15.4312L12.3296 20.0112C11.5679 20.7729 10.333 20.7729 9.57127 20.0112C8.80958 19.2495 8.80958 18.0146 9.57127 17.2529L14.1513 12.6728C14.913 11.9111 16.1479 11.9111 16.9096 12.6728ZM10.5379 18.1603C10.2938 18.4044 10.2938 18.8001 10.5379 19.0442C10.782 19.2883 11.1777 19.2883 11.4218 19.0442C11.6659 18.8001 11.6659 18.4044 11.4218 18.1603C11.1777 17.9163 10.782 17.9163 10.5379 18.1603Z" fill="white"/>
</g>
<defs>
<clipPath id="clip0_19381_138084">
<rect width="50" height="50" fill="white"/>
</clipPath>
</defs>
</svg>
