<svg width="50" height="50" viewBox="0 0 50 50" fill="none" xmlns="http://www.w3.org/2000/svg">
<g clip-path="url(#clip0_19382_138083)">
<rect width="50" height="50" rx="10" fill="#FCBC45"/>
<path d="M11 26.5C11 34.232 17.268 40.5 25 40.5C32.732 40.5 39 34.232 39 26.5C39 18.768 32.732 12.5 25 12.5C17.268 12.5 11 18.768 11 26.5Z" fill="white"/>
<path fill-rule="evenodd" clip-rule="evenodd" d="M42 24.5C42.5523 24.5 43.0032 24.0511 42.9692 23.4998C42.4734 15.46 36.0401 9.02664 28.0002 8.53075C27.4489 8.49675 27 8.94772 27 9.5V23.5C27 24.0523 27.4477 24.5 28 24.5H42Z" fill="white"/>
<path d="M33.6314 22.215C33.5563 22.215 33.4949 22.1911 33.4471 22.1433C33.3993 22.0956 33.3754 22.0341 33.3754 21.959V21.2526C32.8567 21.1911 32.4232 21.0648 32.0751 20.8737C31.727 20.6758 31.4642 20.4369 31.2867 20.157C31.1092 19.8771 31.0137 19.5836 31 19.2765C31 19.2218 31.0205 19.1741 31.0614 19.1331C31.1092 19.0853 31.1638 19.0614 31.2253 19.0614H32.3208C32.4096 19.0614 32.4778 19.0819 32.5256 19.1229C32.5734 19.157 32.6177 19.2014 32.6587 19.256C32.7065 19.372 32.7816 19.4846 32.884 19.5939C32.9932 19.7031 33.1399 19.7952 33.3242 19.8703C33.5085 19.9386 33.7372 19.9727 34.0102 19.9727C34.4539 19.9727 34.785 19.901 35.0034 19.7577C35.2287 19.6143 35.3413 19.4198 35.3413 19.1741C35.3413 18.9966 35.2799 18.8532 35.157 18.744C35.041 18.6348 34.8532 18.5358 34.5939 18.4471C34.3413 18.3584 34 18.2628 33.57 18.1604C33.058 18.0512 32.6246 17.9113 32.2696 17.7406C31.9147 17.5631 31.6451 17.3379 31.4608 17.0648C31.2833 16.785 31.1945 16.4403 31.1945 16.0307C31.1945 15.4915 31.3857 15.0341 31.7679 14.6587C32.157 14.2833 32.6928 14.0512 33.3754 13.9625V13.256C33.3754 13.1809 33.3993 13.1195 33.4471 13.0717C33.4949 13.0239 33.5563 13 33.6314 13H34.3584C34.4266 13 34.4846 13.0239 34.5324 13.0717C34.5802 13.1195 34.6041 13.1809 34.6041 13.256V13.9829C35.0751 14.058 35.4676 14.2014 35.7816 14.413C36.1024 14.6177 36.3447 14.8532 36.5085 15.1195C36.6792 15.3788 36.7679 15.6314 36.7747 15.8771C36.7747 15.9317 36.7543 15.9829 36.7133 16.0307C36.6724 16.0717 36.6212 16.0921 36.5597 16.0921H35.4027C35.3413 16.0921 35.2833 16.0785 35.2287 16.0512C35.1741 16.0239 35.1263 15.9761 35.0853 15.9078C35.0512 15.7304 34.9317 15.5768 34.727 15.4471C34.5222 15.3106 34.2628 15.2423 33.9488 15.2423C33.6143 15.2423 33.3481 15.3038 33.1502 15.4266C32.9522 15.5495 32.8532 15.7372 32.8532 15.9898C32.8532 16.1536 32.9044 16.2935 33.0068 16.4096C33.1092 16.5188 33.2765 16.6177 33.5085 16.7065C33.7406 16.7884 34.0546 16.8805 34.4505 16.9829C35.0512 17.1058 35.5392 17.2526 35.9147 17.4232C36.2901 17.5939 36.5631 17.8157 36.7338 18.0887C36.9113 18.3549 37 18.6928 37 19.1024C37 19.4983 36.901 19.8498 36.7031 20.157C36.5051 20.4573 36.2253 20.6997 35.8635 20.884C35.5085 21.0683 35.0887 21.1911 34.6041 21.2526V21.959C34.6041 22.0341 34.5802 22.0956 34.5324 22.1433C34.4846 22.1911 34.4266 22.215 34.3584 22.215H33.6314Z" fill="#FCBC45"/>
<path d="M25 23.251V10.75L27 10.751V23.5001C27 24.0523 27.4477 24.5 27.9999 24.5001L41.25 24.501V26.501H28.25H26C25.4477 26.501 25 26.0533 25 25.501V23.251Z" fill="#FCBC45"/>
</g>
<defs>
<clipPath id="clip0_19382_138083">
<rect width="50" height="50" fill="white"/>
</clipPath>
</defs>
</svg>
