<svg width="50" height="50" viewBox="0 0 50 50" fill="none" xmlns="http://www.w3.org/2000/svg">
<g clip-path="url(#clip0_19381_189480)">
<rect width="50" height="50" rx="10" fill="#248657"/>
<path fill-rule="evenodd" clip-rule="evenodd" d="M32.9294 12.9625L32.4718 12.975L30.3043 16.1875L24.5244 12.5L22.8987 17.125L17.3596 12.9625H17.0706C15.3848 12.9625 14 14.5 14 16.3875V34.075C14 35.9625 15.3727 37.5 17.0706 37.5H32.9294C34.6152 37.5 36 35.9625 36 34.075V16.3875C36 14.5 34.6273 12.9625 32.9294 12.9625ZM31 29.25C31.5523 29.25 32 29.6977 32 30.25C32 30.8023 31.5523 31.25 31 31.25H19C18.4477 31.25 18 30.8023 18 30.25C18 29.6977 18.4477 29.25 19 29.25H31ZM32 25.25C32 24.6977 31.5523 24.25 31 24.25H19C18.4477 24.25 18 24.6977 18 25.25C18 25.8023 18.4477 26.25 19 26.25H31C31.5523 26.25 32 25.8023 32 25.25Z" fill="white"/>
</g>
<defs>
<clipPath id="clip0_19381_189480">
<rect width="50" height="50" fill="white"/>
</clipPath>
</defs>
</svg>
