<svg width="360" height="150" viewBox="0 0 360 150" fill="none" xmlns="http://www.w3.org/2000/svg">
<g clip-path="url(#clip0_17030_189882)">
<rect width="360" height="150" fill="#8FE3B9"/>
<g clip-path="url(#clip1_17030_189882)">
<path d="M41 40H62V35L58.9961 32L59 37H38L41 40Z" fill="#BCEED5"/>
<path d="M38 37H59V32H38V37Z" fill="#E9F9F1"/>
<path d="M31 50H62V45L59 42V47H28L31 50Z" fill="#BCEED5"/>
<path d="M28 47H59V42H28V47Z" fill="#E9F9F1"/>
<path d="M31 60H47V55L44 52L44.0039 57H28L31 60Z" fill="#BCEED5"/>
<path d="M28 57H44.0039V52H28V57Z" fill="#E9F9F1"/>
<path d="M31 70.0003L64.0039 70V65L61 62L61.0039 67L28 67.0003L31 70.0003Z" fill="#BCEED5"/>
<path d="M28 67.0003L61.0039 67L61 62L28 62.0003V67.0003Z" fill="#E9F9F1"/>
<path d="M31 80L47.0039 80V75L44 72L44.0039 77H28L31 80Z" fill="#BCEED5"/>
<path d="M28 77H44.0039V72H28V77Z" fill="#E9F9F1"/>
<path d="M41 90L47 90.0002V85.0002L43.9961 82.0002L44 87.0002L38 87L41 90Z" fill="#BCEED5"/>
<path d="M38 87L44 87.0002V82.0002L38 82V87Z" fill="#E9F9F1"/>
<path d="M41 100H69.0039V95L66 92L66.0039 97H38L41 100Z" fill="#BCEED5"/>
<path d="M38 97H66.0039V92H38V97Z" fill="#E9F9F1"/>
<path d="M41 110H60.0039V105L57 102L57.0039 107H38L41 110Z" fill="#BCEED5"/>
<path d="M38 107H57.0039V102H38V107Z" fill="#E9F9F1"/>
<path d="M41 120H52.0039V115L49 112L49.0039 117H38L41 120Z" fill="#BCEED5"/>
<path d="M38 117H49.0039V112H38V117Z" fill="#E9F9F1"/>
<path d="M26 130H52.0039V125L49 122L49.0039 127H23L26 130Z" fill="#BCEED5"/>
<path d="M23 127H49.0039V122H23V127Z" fill="#E9F9F1"/>
<path d="M26 140H72.0039V135L69 132L69.0039 137H23L26 140Z" fill="#BCEED5"/>
<path d="M23 137H69.0039V132H23V137Z" fill="#E9F9F1"/>
<path d="M26 150H42.0039V145L39 142L39.0039 147H23L26 150Z" fill="#BCEED5"/>
<path d="M23 147H39.0039V142H23V147Z" fill="#E9F9F1"/>
<path d="M41 30H70.0039V25L67 22L67.0039 27H38L41 30Z" fill="#BCEED5"/>
<path d="M38 27H67.0039V22H38V27Z" fill="#E9F9F1"/>
<path d="M41 20.0002L57 20V15L53.9961 12L54 17L38 17.0002L41 20.0002Z" fill="#BCEED5"/>
<path d="M38 17.0002L54 17V12L38 12.0002V17.0002Z" fill="#E9F9F1"/>
<path d="M41 10L57 10.0001V5.00014L53.9961 2.00014L54 7.00014L38 7L41 10Z" fill="#BCEED5"/>
<path d="M38 7L54 7.00014V2.00014L38 2V7Z" fill="#E9F9F1"/>
<path d="M57.5 130H52V127H54.5C58.6421 127 62 123.642 62 119.5C62 117.43 61.1612 115.555 59.805 114.198L62.8062 117.198C64.1621 118.555 65 120.43 65 122.5C65 126.642 61.6421 130 57.5 130Z" fill="#BCEED5"/>
<path fill-rule="evenodd" clip-rule="evenodd" d="M52 120V117H54.5C55.8807 117 57 118.119 57 119.5C57 119.671 56.9828 119.838 56.95 120H52Z" fill="#BCEED5"/>
<path d="M49 127H52H54.5C58.6421 127 62 123.642 62 119.5C62 117.43 61.1612 115.555 59.805 114.198C58.4476 112.84 56.5719 112 54.5 112H49V117H52H54.5C55.8807 117 57 118.119 57 119.5C57 119.671 56.9828 119.838 56.95 120C56.7184 121.141 55.7095 122 54.5 122H49V127Z" fill="#E9F9F1"/>
<path d="M62.5 10H57V7H59.5C63.6421 7 67 3.64214 67 -0.5C67 -2.57022 66.1612 -4.44453 64.805 -5.80163L67.8062 -2.80162C69.1621 -1.44457 70 0.430094 70 2.5C70 6.64213 66.6421 10 62.5 10Z" fill="#BCEED5"/>
<path fill-rule="evenodd" clip-rule="evenodd" d="M57 0V-3H59.5C60.8807 -3 62 -1.88071 62 -0.5C62 -0.328767 61.9828 -0.161555 61.95 0H57Z" fill="#BCEED5"/>
<path d="M54 7H57H59.5C63.6421 7 67 3.64214 67 -0.5C67 -2.57022 66.1612 -4.44453 64.805 -5.80163C63.4476 -7.15985 61.5719 -8 59.5 -8H54V-3H57H59.5C60.8807 -3 62 -1.88071 62 -0.5C62 -0.328767 61.9828 -0.161555 61.95 0C61.7184 1.14112 60.7095 2 59.5 2H54V7Z" fill="#E9F9F1"/>
<path d="M52.5 90H47V87H49.5C53.6421 87 57 83.6421 57 79.5C57 77.4298 56.1612 75.5555 54.805 74.1984L57.8062 77.1984C59.1621 78.5554 60 80.4301 60 82.5C60 86.6421 56.6421 90 52.5 90Z" fill="#BCEED5"/>
<path fill-rule="evenodd" clip-rule="evenodd" d="M47 80V77H49.5C50.8807 77 52 78.1193 52 79.5C52 79.6712 51.9828 79.8384 51.95 80H47Z" fill="#BCEED5"/>
<path d="M44 87H47H49.5C53.6421 87 57 83.6421 57 79.5C57 77.4298 56.1612 75.5555 54.805 74.1984C53.4476 72.8402 51.5719 72 49.5 72H44V77H47H49.5C50.8807 77 52 78.1193 52 79.5C52 79.6712 51.9828 79.8384 51.95 80C51.7184 81.1411 50.7095 82 49.5 82H44V87Z" fill="#E9F9F1"/>
<path d="M67.5 50H62V47H64.5C68.6421 47 72 43.6421 72 39.5C72 37.4298 71.1612 35.5555 69.805 34.1984L72.8062 37.1984C74.1621 38.5554 75 40.4301 75 42.5C75 46.6421 71.6421 50 67.5 50Z" fill="#BCEED5"/>
<path fill-rule="evenodd" clip-rule="evenodd" d="M62 40V37H64.5C65.8807 37 67 38.1193 67 39.5C67 39.6712 66.9828 39.8384 66.95 40H62Z" fill="#BCEED5"/>
<path d="M59 47H62H64.5C68.6421 47 72 43.6421 72 39.5C72 37.4298 71.1612 35.5555 69.805 34.1984C68.4476 32.8402 66.5719 32 64.5 32H59V37H62H64.5C65.8807 37 67 38.1193 67 39.5C67 39.6712 66.9828 39.8384 66.95 40C66.7184 41.1411 65.7095 42 64.5 42H59V47Z" fill="#E9F9F1"/>
<path d="M33 5L30 2H0V40H33V5Z" fill="#BCEED5"/>
<path d="M0 2H30V37H0V2Z" fill="#E9F9F1"/>
<path d="M23 45L20 42H0V80H23V45Z" fill="#BCEED5"/>
<path d="M0 42H20V77H0V42Z" fill="#E9F9F1"/>
<path d="M18 125L15 122H0V160H18V125Z" fill="#BCEED5"/>
<path d="M0 122H15V157H0V122Z" fill="#E9F9F1"/>
<path d="M33 85L30 82H0V120H33V85Z" fill="#BCEED5"/>
<path d="M0 82H30V117H0V82Z" fill="#E9F9F1"/>
</g>
<g clip-path="url(#clip2_17030_189882)">
<path d="M319 40H298V35L301.004 32L301 37H322L319 40Z" fill="#BCEED5"/>
<path d="M322 37H301V32H322V37Z" fill="#E9F9F1"/>
<path d="M329 50H298V45L301 42V47H332L329 50Z" fill="#BCEED5"/>
<path d="M332 47H301V42H332V47Z" fill="#E9F9F1"/>
<path d="M329 60H313V55L316 52L315.996 57H332L329 60Z" fill="#BCEED5"/>
<path d="M332 57H315.996V52H332V57Z" fill="#E9F9F1"/>
<path d="M329 70.0003L295.996 70V65L299 62L298.996 67L332 67.0003L329 70.0003Z" fill="#BCEED5"/>
<path d="M332 67.0003L298.996 67L299 62L332 62.0003V67.0003Z" fill="#E9F9F1"/>
<path d="M329 80L312.996 80V75L316 72L315.996 77H332L329 80Z" fill="#BCEED5"/>
<path d="M332 77H315.996V72H332V77Z" fill="#E9F9F1"/>
<path d="M319 90L313 90.0002V85.0002L316.004 82.0002L316 87.0002L322 87L319 90Z" fill="#BCEED5"/>
<path d="M322 87L316 87.0002V82.0002L322 82V87Z" fill="#E9F9F1"/>
<path d="M319 100H290.996V95L294 92L293.996 97H322L319 100Z" fill="#BCEED5"/>
<path d="M322 97H293.996V92H322V97Z" fill="#E9F9F1"/>
<path d="M319 110H299.996V105L303 102L302.996 107H322L319 110Z" fill="#BCEED5"/>
<path d="M322 107H302.996V102H322V107Z" fill="#E9F9F1"/>
<path d="M319 120H307.996V115L311 112L310.996 117H322L319 120Z" fill="#BCEED5"/>
<path d="M322 117H310.996V112H322V117Z" fill="#E9F9F1"/>
<path d="M334 130H307.996V125L311 122L310.996 127H337L334 130Z" fill="#BCEED5"/>
<path d="M337 127H310.996V122H337V127Z" fill="#E9F9F1"/>
<path d="M334 140H287.996V135L291 132L290.996 137H337L334 140Z" fill="#BCEED5"/>
<path d="M337 137H290.996V132H337V137Z" fill="#E9F9F1"/>
<path d="M334 150H317.996V145L321 142L320.996 147H337L334 150Z" fill="#BCEED5"/>
<path d="M337 147H320.996V142H337V147Z" fill="#E9F9F1"/>
<path d="M319 30H289.996V25L293 22L292.996 27H322L319 30Z" fill="#BCEED5"/>
<path d="M322 27H292.996V22H322V27Z" fill="#E9F9F1"/>
<path d="M319 20.0002L303 20V15L306.004 12L306 17L322 17.0002L319 20.0002Z" fill="#BCEED5"/>
<path d="M322 17.0002L306 17V12L322 12.0002V17.0002Z" fill="#E9F9F1"/>
<path d="M319 10L303 10.0001V5.00014L306.004 2.00014L306 7.00014L322 7L319 10Z" fill="#BCEED5"/>
<path d="M322 7L306 7.00014V2.00014L322 2V7Z" fill="#E9F9F1"/>
<path d="M302.5 130H308V127H305.5C301.358 127 298 123.642 298 119.5C298 117.43 298.839 115.555 300.195 114.198L297.194 117.198C295.838 118.555 295 120.43 295 122.5C295 126.642 298.358 130 302.5 130Z" fill="#BCEED5"/>
<path fill-rule="evenodd" clip-rule="evenodd" d="M308 120V117H305.5C304.119 117 303 118.119 303 119.5C303 119.671 303.017 119.838 303.05 120H308Z" fill="#BCEED5"/>
<path d="M311 127H308H305.5C301.358 127 298 123.642 298 119.5C298 117.43 298.839 115.555 300.195 114.198C301.552 112.84 303.428 112 305.5 112H311V117H308H305.5C304.119 117 303 118.119 303 119.5C303 119.671 303.017 119.838 303.05 120C303.282 121.141 304.291 122 305.5 122H311V127Z" fill="#E9F9F1"/>
<path d="M297.5 10H303V7H300.5C296.358 7 293 3.64214 293 -0.5C293 -2.57022 293.839 -4.44453 295.195 -5.80163L292.194 -2.80162C290.838 -1.44457 290 0.430094 290 2.5C290 6.64213 293.358 10 297.5 10Z" fill="#BCEED5"/>
<path fill-rule="evenodd" clip-rule="evenodd" d="M303 0V-3H300.5C299.119 -3 298 -1.88071 298 -0.5C298 -0.328767 298.017 -0.161555 298.05 0H303Z" fill="#BCEED5"/>
<path d="M306 7H303H300.5C296.358 7 293 3.64214 293 -0.5C293 -2.57022 293.839 -4.44453 295.195 -5.80163C296.552 -7.15985 298.428 -8 300.5 -8H306V-3H303H300.5C299.119 -3 298 -1.88071 298 -0.5C298 -0.328767 298.017 -0.161555 298.05 0C298.282 1.14112 299.291 2 300.5 2H306V7Z" fill="#E9F9F1"/>
<path d="M307.5 90H313V87H310.5C306.358 87 303 83.6421 303 79.5C303 77.4298 303.839 75.5555 305.195 74.1984L302.194 77.1984C300.838 78.5554 300 80.4301 300 82.5C300 86.6421 303.358 90 307.5 90Z" fill="#BCEED5"/>
<path fill-rule="evenodd" clip-rule="evenodd" d="M313 80V77H310.5C309.119 77 308 78.1193 308 79.5C308 79.6712 308.017 79.8384 308.05 80H313Z" fill="#BCEED5"/>
<path d="M316 87H313H310.5C306.358 87 303 83.6421 303 79.5C303 77.4298 303.839 75.5555 305.195 74.1984C306.552 72.8402 308.428 72 310.5 72H316V77H313H310.5C309.119 77 308 78.1193 308 79.5C308 79.6712 308.017 79.8384 308.05 80C308.282 81.1411 309.291 82 310.5 82H316V87Z" fill="#E9F9F1"/>
<path d="M292.5 50H298V47H295.5C291.358 47 288 43.6421 288 39.5C288 37.4298 288.839 35.5555 290.195 34.1984L287.194 37.1984C285.838 38.5554 285 40.4301 285 42.5C285 46.6421 288.358 50 292.5 50Z" fill="#BCEED5"/>
<path fill-rule="evenodd" clip-rule="evenodd" d="M298 40V37H295.5C294.119 37 293 38.1193 293 39.5C293 39.6712 293.017 39.8384 293.05 40H298Z" fill="#BCEED5"/>
<path d="M301 47H298H295.5C291.358 47 288 43.6421 288 39.5C288 37.4298 288.839 35.5555 290.195 34.1984C291.552 32.8402 293.428 32 295.5 32H301V37H298H295.5C294.119 37 293 38.1193 293 39.5C293 39.6712 293.017 39.8384 293.05 40C293.282 41.1411 294.291 42 295.5 42H301V47Z" fill="#E9F9F1"/>
<path d="M327 5L330 2H360V40H327V5Z" fill="#BCEED5"/>
<path d="M360 2H330V37H360V2Z" fill="#E9F9F1"/>
<path d="M337 45L340 42H360V80H337V45Z" fill="#BCEED5"/>
<path d="M360 42H340V77H360V42Z" fill="#E9F9F1"/>
<path d="M342 125L345 122H360V160H342V125Z" fill="#BCEED5"/>
<path d="M360 122H345V157H360V122Z" fill="#E9F9F1"/>
<path d="M327 85L330 82H360V120H327V85Z" fill="#BCEED5"/>
<path d="M360 82H330V117H360V82Z" fill="#E9F9F1"/>
</g>
</g>
<defs>
<filter id="filter0_d_17030_189882" x="121.465" y="46.1094" width="118.707" height="54.3438" filterUnits="userSpaceOnUse" color-interpolation-filters="sRGB">
<feFlood flood-opacity="0" result="BackgroundImageFix"/>
<feColorMatrix in="SourceAlpha" type="matrix" values="0 0 0 0 0 0 0 0 0 0 0 0 0 0 0 0 0 0 127 0" result="hardAlpha"/>
<feOffset dx="3.5" dy="1.75"/>
<feComposite in2="hardAlpha" operator="out"/>
<feColorMatrix type="matrix" values="0 0 0 0 0 0 0 0 0 0 0 0 0 0 0 0 0 0 0.4 0"/>
<feBlend mode="normal" in2="BackgroundImageFix" result="effect1_dropShadow_17030_189882"/>
<feBlend mode="normal" in="SourceGraphic" in2="effect1_dropShadow_17030_189882" result="shape"/>
</filter>
<clipPath id="clip0_17030_189882">
<rect width="360" height="150" fill="white"/>
</clipPath>
<clipPath id="clip1_17030_189882">
<rect width="119.5" height="150" fill="white"/>
</clipPath>
<clipPath id="clip2_17030_189882">
<rect width="119.5" height="150" fill="white" transform="translate(240.5)"/>
</clipPath>
</defs>
</svg>
