<svg width="360" height="150" viewBox="0 0 360 150" fill="none" xmlns="http://www.w3.org/2000/svg">
<g clip-path="url(#clip0_17030_192101)">
<rect width="360" height="150" fill="#8CDBF8"/>
<g clip-path="url(#clip1_17030_192101)">
<g clip-path="url(#clip2_17030_192101)">
<path d="M41.0004 52L11.0004 2L14.9999 0L45 50L41.0004 52Z" fill="#D1F1FC"/>
<path d="M45 50L14.9999 0H75L45 50Z" fill="#E8F8FE"/>
<path d="M-0.4 2L-22.8 39.3346H22.0003L26 37.3341L3.59994 0L-0.4 2Z" fill="#BAE9FB"/>
<path d="M3.59994 0L-18.8005 37.3341H26L3.59994 0Z" fill="#D1F1FC"/>
<path d="M57.0004 37.9999L45.0004 57.9999H69.0003L73 56L61 36L57.0004 37.9999Z" fill="#D1F1FC"/>
<path d="M61 36L49 55.9999L73 56L61 36Z" fill="#E8F8FE"/>
<path d="M1.19997 44H30L15.6014 68L1.19997 44ZM25.5849 46.5H5.61504L6.81518 48.5L14.1689 60.7549L15.6005 63.1406L25.5849 46.5Z" fill="#D1F1FC"/>
<path d="M21.5853 48.5H6.81518L5.61504 46.5H25.5849L15.6005 63.1406L14.1689 60.7549L21.5853 48.5Z" fill="#BAE9FB"/>
<path d="M11.5998 70L-2.79969 46L1.19997 44L15.6014 68L11.5998 70Z" fill="#BAE9FB"/>
<path d="M25.2 146H54L39.6014 170L25.2 146ZM49.5849 148.5H29.615L30.8152 150.5L38.1689 162.755L39.6005 165.141L49.5849 148.5Z" fill="#D1F1FC"/>
<path d="M45.5853 150.5H30.8152L29.615 148.5H49.5849L39.6005 165.141L38.1689 162.755L45.5853 150.5Z" fill="#BAE9FB"/>
<path d="M35.5998 172L21.2003 148L25.2 146L39.6014 170L35.5998 172Z" fill="#BAE9FB"/>
<path d="M30.3503 52L8.70038 88.0833H52.0003L56 86.0841L34.35 50.0041L30.3503 52Z" fill="#C6EDFC"/>
<path d="M34.35 50L12.7 86.0833L56 86.0841L34.35 50Z" fill="#DCF4FD"/>
<path d="M18.0004 143L-11.9996 93L-8.00006 91L22 141L18.0004 143Z" fill="#D1F1FC"/>
<path d="M22 141L-8.00006 91H52L22 141Z" fill="#E8F8FE"/>
<path d="M44 116H73.9992L59 90.9998L44 116ZM68.1897 112.711H65.4173H49.8088L51.0087 110.711L57.5999 99.7247L58.9992 97.3924L68.1897 112.711Z" fill="#E8F8FE"/>
<path d="M55 92L39.9996 117.999L44 116L59 90.9998L55 92Z" fill="#D1F1FC"/>
<path d="M57.5999 99.7247L58.9992 97.3924L68.1897 112.711H65.4173L57.5999 99.7247Z" fill="#D1F1FC"/>
<path fill-rule="evenodd" clip-rule="evenodd" d="M65.4173 112.711L64.19 110.711L57.5999 99.7247L65.4173 112.711Z" fill="#D1F1FC"/>
<path d="M44 116L39.9996 117.999H70.0003L74 115.999L44 116Z" fill="#D1F1FC"/>
<path d="M33.8503 128L24.7003 143.25H43.0003L46.9983 141.25L37.8483 126L33.8503 128Z" fill="#AEE6FA"/>
<path d="M37.85 126L28.7 141.25H47L37.85 126Z" fill="#C6EDFC"/>
<path d="M48.8503 138.25L39.7003 123L43.7 121H62L52.85 136.25L48.8503 138.25Z" fill="#AEE6FA"/>
<path d="M52.85 136.25L43.7 121H62L52.85 136.25Z" fill="#C6EDFC"/>
<path d="M-4.99969 120L-43.9997 185L-40 183L-1.00002 118L-4.99969 120Z" fill="#C6EDFC"/>
<path d="M-1.00002 118L-40 183H38L-1.00002 118Z" fill="#DCF4FD"/>
<path d="M-43.9997 185L-40 183H38L34 185H-43.9997Z" fill="#C6EDFC"/>
</g>
</g>
<g clip-path="url(#clip3_17030_192101)">
<g clip-path="url(#clip4_17030_192101)">
<path d="M319 52L349 2L345 0L315 50L319 52Z" fill="#D1F1FC"/>
<path d="M315 50L345 0H285L315 50Z" fill="#E8F8FE"/>
<path d="M360.4 2L382.8 39.3346H338L334 37.3341L356.4 0L360.4 2Z" fill="#BAE9FB"/>
<path d="M356.4 0L378.8 37.3341H334L356.4 0Z" fill="#D1F1FC"/>
<path d="M303 37.9999L315 57.9999H291L287 56L299 36L303 37.9999Z" fill="#D1F1FC"/>
<path d="M299 36L311 55.9999L287 56L299 36Z" fill="#E8F8FE"/>
<path d="M358.8 44H330L344.399 68L358.8 44ZM334.415 46.5H354.385L353.185 48.5L345.831 60.7549L344.4 63.1406L334.415 46.5Z" fill="#D1F1FC"/>
<path d="M338.415 48.5H353.185L354.385 46.5H334.415L344.4 63.1406L345.831 60.7549L338.415 48.5Z" fill="#BAE9FB"/>
<path d="M348.4 70L362.8 46L358.8 44L344.399 68L348.4 70Z" fill="#BAE9FB"/>
<path d="M334.8 146H306L320.399 170L334.8 146ZM310.415 148.5H330.385L329.185 150.5L321.831 162.755L320.4 165.141L310.415 148.5Z" fill="#D1F1FC"/>
<path d="M314.415 150.5H329.185L330.385 148.5H310.415L320.4 165.141L321.831 162.755L314.415 150.5Z" fill="#BAE9FB"/>
<path d="M324.4 172L338.8 148L334.8 146L320.399 170L324.4 172Z" fill="#BAE9FB"/>
<path d="M329.65 52L351.3 88.0833H308L304 86.0841L325.65 50.0041L329.65 52Z" fill="#C6EDFC"/>
<path d="M325.65 50L347.3 86.0833L304 86.0841L325.65 50Z" fill="#DCF4FD"/>
<path d="M342 143L372 93L368 91L338 141L342 143Z" fill="#D1F1FC"/>
<path d="M338 141L368 91H308L338 141Z" fill="#E8F8FE"/>
<path d="M316 116H286.001L301 90.9998L316 116ZM291.81 112.711H294.583H310.191L308.991 110.711L302.4 99.7247L301.001 97.3924L291.81 112.711Z" fill="#E8F8FE"/>
<path d="M305 92L320 117.999L316 116L301 90.9998L305 92Z" fill="#D1F1FC"/>
<path d="M302.4 99.7247L301.001 97.3924L291.81 112.711H294.583L302.4 99.7247Z" fill="#D1F1FC"/>
<path fill-rule="evenodd" clip-rule="evenodd" d="M294.583 112.711L295.81 110.711L302.4 99.7247L294.583 112.711Z" fill="#D1F1FC"/>
<path d="M316 116L320 117.999H290L286 115.999L316 116Z" fill="#D1F1FC"/>
<path d="M326.15 128L335.3 143.25H317L313.002 141.25L322.152 126L326.15 128Z" fill="#AEE6FA"/>
<path d="M322.15 126L331.3 141.25H313L322.15 126Z" fill="#C6EDFC"/>
<path d="M311.15 138.25L320.3 123L316.3 121H298L307.15 136.25L311.15 138.25Z" fill="#AEE6FA"/>
<path d="M307.15 136.25L316.3 121H298L307.15 136.25Z" fill="#C6EDFC"/>
<path d="M365 120L404 185L400 183L361 118L365 120Z" fill="#C6EDFC"/>
<path d="M361 118L400 183H322L361 118Z" fill="#DCF4FD"/>
<path d="M404 185L400 183H322L326 185H404Z" fill="#C6EDFC"/>
</g>
</g>
</g>
<defs>
<filter id="filter0_d_17030_192101" x="109.594" y="49.375" width="142.656" height="48.5" filterUnits="userSpaceOnUse" color-interpolation-filters="sRGB">
<feFlood flood-opacity="0" result="BackgroundImageFix"/>
<feColorMatrix in="SourceAlpha" type="matrix" values="0 0 0 0 0 0 0 0 0 0 0 0 0 0 0 0 0 0 127 0" result="hardAlpha"/>
<feOffset dx="3.5" dy="1.75"/>
<feComposite in2="hardAlpha" operator="out"/>
<feColorMatrix type="matrix" values="0 0 0 0 0 0 0 0 0 0 0 0 0 0 0 0 0 0 0.4 0"/>
<feBlend mode="normal" in2="BackgroundImageFix" result="effect1_dropShadow_17030_192101"/>
<feBlend mode="normal" in="SourceGraphic" in2="effect1_dropShadow_17030_192101" result="shape"/>
</filter>
<clipPath id="clip0_17030_192101">
<rect width="360" height="150" fill="white"/>
</clipPath>
<clipPath id="clip1_17030_192101">
<rect width="108" height="150" fill="white"/>
</clipPath>
<clipPath id="clip2_17030_192101">
<rect width="75" height="188" fill="white" transform="matrix(-1 0 0 1 75 0)"/>
</clipPath>
<clipPath id="clip3_17030_192101">
<rect width="108" height="150" fill="white" transform="translate(252)"/>
</clipPath>
<clipPath id="clip4_17030_192101">
<rect width="75" height="188" fill="white" transform="translate(285)"/>
</clipPath>
</defs>
</svg>
