<svg width="360" height="150" viewBox="0 0 360 150" fill="none" xmlns="http://www.w3.org/2000/svg">
<g clip-path="url(#clip0_17030_190843)">
<rect width="360" height="150" fill="#F99B9B"/>
<g clip-path="url(#clip1_17030_190843)">
<path d="M67.7929 77.5L37.482 60L19.982 90.3109L27.1422 97.909L44.6422 67.5981L74.9531 85.0981L67.7929 77.5Z" fill="#FBC3C3"/>
<path d="M74.9531 85.0981L44.6422 67.5981L27.1422 97.909L57.4531 115.409L74.9531 85.0981Z" fill="#FEEBEB"/>
<path d="M15.443 75.0819C15.1347 76.735 14.5903 78.3296 13.8346 79.8168C11.8057 83.8095 8.25363 87.0282 3.65928 88.5265C-5.5294 91.5232 -15.4076 86.5035 -18.4042 77.3148C-20.4607 71.0092 -18.742 64.3789 -14.4916 59.8705C-12.5482 57.8092 -10.0756 56.1916 -7.19257 55.2513C1.99612 52.2547 11.8743 57.2743 14.8709 66.463C15.8112 69.346 15.9622 72.297 15.443 75.0819Z" fill="#FEEBEB"/>
<path d="M18.3193 70.9914L13.8346 79.8168C14.5903 78.3296 15.1347 76.735 15.443 75.0819C15.9622 72.297 15.8112 69.346 14.8709 66.463C11.8743 57.2743 1.99612 52.2547 -7.19257 55.2513C-10.0756 56.1916 -12.5482 57.8092 -14.4916 59.8705C-13.3559 53.7795 -9.01354 48.4823 -2.7079 46.4259C6.48078 43.4293 16.359 48.4489 19.3556 57.6376C20.8539 62.2319 20.3482 66.9986 18.3193 70.9914Z" fill="#FBC3C3"/>
<path d="M37.7735 12.8407L24.698 47.1486L60.3031 41.8307L37.7735 12.8407Z" fill="#FEEBEB"/>
<path fill-rule="evenodd" clip-rule="evenodd" d="M46.4244 16.6041L37.7735 12.8407L60.3031 41.8307L24.698 47.1486L33.3488 50.912L68.9539 45.5941L46.4244 16.6041Z" fill="#FBC3C3"/>
<path d="M9.44992 100L3.9187 101.483L5.39707 107.02L2.01304 107.926L-0.139235 108.503L1.34421 114.04L6.88052 112.556L8.36397 118.092L13.9003 116.609L12.9433 113.03L12.4168 111.073L17.9531 109.589L16.4697 104.053L10.9334 105.536L9.44992 100Z" fill="#FEEBEB"/>
<path fill-rule="evenodd" clip-rule="evenodd" d="M11.0409 119.474L5.50456 120.957L4.02111 115.421L-1.51523 116.904L-2.99868 111.368L-0.139235 108.503L1.34421 114.04L6.88052 112.556L8.36397 118.092L13.9003 116.609L11.0409 119.474Z" fill="#FBC3C3"/>
<path fill-rule="evenodd" clip-rule="evenodd" d="M3.9187 101.483L1.05704 104.347L2.01304 107.926L5.39707 107.02L3.9187 101.483Z" fill="#FBC3C3"/>
<path d="M17.9531 109.589L12.4168 111.073L12.9433 113.03L15.0937 112.454L17.9531 109.589Z" fill="#FBC3C3"/>
<path fill-rule="evenodd" clip-rule="evenodd" d="M3.10583 12.2925L5.04336 23.1205L-5.78466 25.058L-4.72783 30.9642L-0.438092 32.2284L-1.49492 26.3222L9.33309 24.3847L7.39557 13.5567L18.2236 11.6191L16.2861 0.791108L27.1141 -1.14642L25.1766 -11.9744L31.0827 -13.0313L26.793 -14.2954L20.8868 -13.2386L22.8243 -2.41059L11.9963 -0.473068L13.9338 10.355L3.10583 12.2925Z" fill="#FBC3C3"/>
<path fill-rule="evenodd" clip-rule="evenodd" d="M7.39557 13.5567L9.33309 24.3847L-1.49492 26.3222L-0.438092 32.2284L16.2961 29.234L14.3586 18.406L25.1866 16.4685L23.2491 5.64047L34.0771 3.70294L31.0827 -13.0313L25.1766 -11.9744L27.1141 -1.14642L16.2861 0.791108L18.2236 11.6191L7.39557 13.5567Z" fill="#FEEBEB"/>
<path d="M21.3507 133.848C25.613 126.319 34.4449 123.259 41.0774 127.014C41.7594 127.4 42.3915 127.843 42.9723 128.335C48.0397 132.632 49.1931 140.69 45.3691 147.445L51.3737 150.844C57.3324 140.318 55.2341 127.684 46.8671 121.455C46.2566 121.001 45.6128 120.58 44.9362 120.197C34.9875 114.565 21.7395 119.155 15.346 130.449L21.3507 133.848Z" fill="#FEEBEB"/>
<path fill-rule="evenodd" clip-rule="evenodd" d="M25.3537 136.114C29.1778 129.359 36.6801 126.202 42.9723 128.335C42.3915 127.843 41.7594 127.4 41.0774 127.014C34.4449 123.259 25.613 126.319 21.3507 133.848L25.3537 136.114Z" fill="#FBC3C3"/>
<path d="M51.3737 150.844C57.3324 140.318 55.2341 127.684 46.8671 121.455C46.2566 121.001 45.6128 120.58 44.9362 120.197L48.9393 122.463C58.8881 128.095 61.7702 141.817 55.3768 153.11L51.3737 150.844Z" fill="#FBC3C3"/>
<path fill-rule="evenodd" clip-rule="evenodd" d="M3.10583 174.292L5.04336 185.12L-5.78466 187.058L-4.72783 192.964L-0.438092 194.228L-1.49492 188.322L9.33309 186.385L7.39557 175.557L18.2236 173.619L16.2861 162.791L27.1141 160.854L25.1766 150.026L31.0827 148.969L26.793 147.705L20.8868 148.761L22.8243 159.589L11.9963 161.527L13.9338 172.355L3.10583 174.292Z" fill="#FBC3C3"/>
<path fill-rule="evenodd" clip-rule="evenodd" d="M7.39557 175.557L9.33309 186.385L-1.49492 188.322L-0.438092 194.228L16.2961 191.234L14.3586 180.406L25.1866 178.468L23.2491 167.64L34.0771 165.703L31.0827 148.969L25.1766 150.026L27.1141 160.854L16.2861 162.791L18.2236 173.619L7.39557 175.557Z" fill="#FEEBEB"/>
</g>
<g clip-path="url(#clip2_17030_190843)">
<path d="M292.16 77.5L322.471 60L339.971 90.3109L332.811 97.909L315.311 67.5981L285 85.0981L292.16 77.5Z" fill="#FBC3C3"/>
<path d="M285 85.0981L315.311 67.5981L332.811 97.909L302.5 115.409L285 85.0981Z" fill="#FEEBEB"/>
<path d="M344.51 75.0819C344.818 76.735 345.363 78.3296 346.119 79.8168C348.147 83.8095 351.699 87.0282 356.294 88.5265C365.483 91.5232 375.361 86.5035 378.357 77.3148C380.414 71.0092 378.695 64.3789 374.445 59.8705C372.501 57.8092 370.029 56.1916 367.146 55.2513C357.957 52.2547 348.079 57.2743 345.082 66.463C344.142 69.346 343.991 72.297 344.51 75.0819Z" fill="#FEEBEB"/>
<path d="M341.634 70.9914L346.119 79.8168C345.363 78.3296 344.818 76.735 344.51 75.0819C343.991 72.297 344.142 69.346 345.082 66.463C348.079 57.2743 357.957 52.2547 367.146 55.2513C370.029 56.1916 372.501 57.8092 374.445 59.8705C373.309 53.7795 368.967 48.4823 362.661 46.4259C353.472 43.4293 343.594 48.4489 340.598 57.6376C339.099 62.2319 339.605 66.9986 341.634 70.9914Z" fill="#FBC3C3"/>
<path d="M322.18 12.8407L335.255 47.1486L299.65 41.8307L322.18 12.8407Z" fill="#FEEBEB"/>
<path fill-rule="evenodd" clip-rule="evenodd" d="M313.529 16.6041L322.18 12.8407L299.65 41.8307L335.255 47.1486L326.604 50.912L290.999 45.5941L313.529 16.6041Z" fill="#FBC3C3"/>
<path d="M350.503 100L356.034 101.483L354.556 107.02L357.94 107.926L360.092 108.503L358.609 114.04L353.073 112.556L351.589 118.092L346.053 116.609L347.01 113.03L347.536 111.073L342 109.589L343.483 104.053L349.02 105.536L350.503 100Z" fill="#FEEBEB"/>
<path fill-rule="evenodd" clip-rule="evenodd" d="M348.912 119.474L354.449 120.957L355.932 115.421L361.468 116.904L362.952 111.368L360.092 108.503L358.609 114.04L353.073 112.556L351.589 118.092L346.053 116.609L348.912 119.474Z" fill="#FBC3C3"/>
<path fill-rule="evenodd" clip-rule="evenodd" d="M356.034 101.483L358.896 104.347L357.94 107.926L354.556 107.02L356.034 101.483Z" fill="#FBC3C3"/>
<path d="M342 109.589L347.536 111.073L347.01 113.03L344.859 112.454L342 109.589Z" fill="#FBC3C3"/>
<path fill-rule="evenodd" clip-rule="evenodd" d="M356.847 12.2925L354.91 23.1205L365.738 25.058L364.681 30.9642L360.391 32.2284L361.448 26.3222L350.62 24.3847L352.558 13.5567L341.73 11.6191L343.667 0.791108L332.839 -1.14642L334.777 -11.9744L328.87 -13.0313L333.16 -14.2954L339.066 -13.2386L337.129 -2.41059L347.957 -0.473068L346.019 10.355L356.847 12.2925Z" fill="#FBC3C3"/>
<path fill-rule="evenodd" clip-rule="evenodd" d="M352.558 13.5567L350.62 24.3847L361.448 26.3222L360.391 32.2284L343.657 29.234L345.595 18.406L334.767 16.4685L336.704 5.64047L325.876 3.70294L328.87 -13.0313L334.777 -11.9744L332.839 -1.14642L343.667 0.791108L341.73 11.6191L352.558 13.5567Z" fill="#FEEBEB"/>
<path d="M338.602 133.848C334.34 126.319 325.508 123.259 318.876 127.014C318.194 127.4 317.562 127.843 316.981 128.335C311.913 132.632 310.76 140.69 314.584 147.445L308.579 150.844C302.621 140.318 304.719 127.684 313.086 121.455C313.697 121.001 314.34 120.58 315.017 120.197C324.966 114.565 338.214 119.155 344.607 130.449L338.602 133.848Z" fill="#FEEBEB"/>
<path fill-rule="evenodd" clip-rule="evenodd" d="M334.599 136.114C330.775 129.359 323.273 126.202 316.981 128.335C317.562 127.843 318.194 127.4 318.876 127.014C325.508 123.259 334.34 126.319 338.602 133.848L334.599 136.114Z" fill="#FBC3C3"/>
<path d="M308.579 150.844C302.621 140.318 304.719 127.684 313.086 121.455C313.697 121.001 314.34 120.58 315.017 120.197L311.014 122.463C301.065 128.095 298.183 141.817 304.576 153.11L308.579 150.844Z" fill="#FBC3C3"/>
<path fill-rule="evenodd" clip-rule="evenodd" d="M356.847 174.292L354.91 185.12L365.738 187.058L364.681 192.964L360.391 194.228L361.448 188.322L350.62 186.385L352.558 175.557L341.73 173.619L343.667 162.791L332.839 160.854L334.777 150.026L328.87 148.969L333.16 147.705L339.066 148.761L337.129 159.589L347.957 161.527L346.019 172.355L356.847 174.292Z" fill="#FBC3C3"/>
<path fill-rule="evenodd" clip-rule="evenodd" d="M352.558 175.557L350.62 186.385L361.448 188.322L360.391 194.228L343.657 191.234L345.595 180.406L334.767 178.468L336.704 167.64L325.876 165.703L328.87 148.969L334.777 150.026L332.839 160.854L343.667 162.791L341.73 173.619L352.558 175.557Z" fill="#FEEBEB"/>
</g>
</g>
<defs>
<filter id="filter0_d_17030_190843" x="121.465" y="46.1094" width="119.094" height="54.3438" filterUnits="userSpaceOnUse" color-interpolation-filters="sRGB">
<feFlood flood-opacity="0" result="BackgroundImageFix"/>
<feColorMatrix in="SourceAlpha" type="matrix" values="0 0 0 0 0 0 0 0 0 0 0 0 0 0 0 0 0 0 127 0" result="hardAlpha"/>
<feOffset dx="3.5" dy="1.75"/>
<feComposite in2="hardAlpha" operator="out"/>
<feColorMatrix type="matrix" values="0 0 0 0 0 0 0 0 0 0 0 0 0 0 0 0 0 0 0.4 0"/>
<feBlend mode="normal" in2="BackgroundImageFix" result="effect1_dropShadow_17030_190843"/>
<feBlend mode="normal" in="SourceGraphic" in2="effect1_dropShadow_17030_190843" result="shape"/>
</filter>
<clipPath id="clip0_17030_190843">
<rect width="360" height="150" fill="white"/>
</clipPath>
<clipPath id="clip1_17030_190843">
<rect width="119.5" height="150" fill="white"/>
</clipPath>
<clipPath id="clip2_17030_190843">
<rect width="119.5" height="150" fill="white" transform="translate(240.5)"/>
</clipPath>
</defs>
</svg>
