<svg width="360" height="150" viewBox="0 0 360 150" fill="none" xmlns="http://www.w3.org/2000/svg">
<g clip-path="url(#clip0_17030_191952)">
<rect width="360" height="150" fill="#F9D397"/>
<g clip-path="url(#clip1_17030_191952)">
<path fill-rule="evenodd" clip-rule="evenodd" d="M-1.96622 15.0964C0.237422 15.4246 2.42532 15.9231 4.57709 16.5946L-45.529 81.3087C-46.7179 79.3937 -47.7484 77.4003 -48.6179 75.349L-1.96622 15.0964ZM15.8162 21.977C14.0892 20.8206 12.3051 19.803 10.4779 18.9226L-41.7976 86.4386C-40.4877 87.9871 -39.0558 89.4597 -37.5038 90.8421L15.8162 21.977ZM20.6323 25.7059C22.1843 27.0883 23.6162 28.5608 24.9261 30.1094L-27.3494 97.6254C-29.1766 96.7449 -30.9608 95.7274 -32.6877 94.571L20.6323 25.7059ZM28.6575 35.2392C29.8464 37.1543 30.8769 39.1477 31.7463 41.199L-14.9053 101.452C-17.109 101.123 -19.2969 100.625 -21.4486 99.9534L28.6575 35.2392ZM26.0794 84.998C30.0736 79.8394 32.7314 74.0688 34.1058 68.1028L11.7322 96.9993C17.164 94.1747 22.0853 90.1567 26.0794 84.998ZM34.0367 48.1899C34.6943 50.9669 35.0795 53.8026 35.1869 56.6535L0.918382 100.913C-1.86855 101.523 -4.71043 101.86 -7.56359 101.918L34.0367 48.1899Z" fill="#FBE5C1"/>
<path fill-rule="evenodd" clip-rule="evenodd" d="M-28.4695 19.4792C-33.9396 22.2995 -38.8971 26.327 -42.9183 31.5078L-44.0461 39.597L-28.4695 19.4792Z" fill="#FBE5C1"/>
<path fill-rule="evenodd" clip-rule="evenodd" d="M-9.30794 14.6295C-12.1611 14.6883 -15.003 15.0253 -17.7899 15.6352L-45.6887 51.6677L-47.2985 63.696L-9.30794 14.6295Z" fill="#FBE5C1"/>
<path fill-rule="evenodd" clip-rule="evenodd" d="M4.57617 16.5953L4.2664 20.9759L-45.8397 85.6901C-47.0286 83.775 -48.0591 81.7816 -48.9286 79.7303L-48.6191 75.3501L-45.5303 81.3098L4.57617 16.5953ZM15.5055 26.3583L15.815 21.9775L-37.5035 90.8407L-41.7974 86.4373L-42.1083 90.8199C-40.7984 92.3685 -39.3665 93.841 -37.8145 95.2234L15.5055 26.3583ZM24.9262 30.1079L24.6154 34.4907L-27.6601 102.007C-29.4873 101.126 -31.2715 100.109 -32.9984 98.9523L-32.6877 94.5695L-27.3493 97.6239L24.9262 30.1079ZM31.7447 41.1991L31.4356 45.5803L-15.216 105.833C-17.4197 105.505 -19.6076 105.006 -21.7593 104.335L-21.4502 99.9536L-14.9069 101.452L31.7447 41.1991ZM25.7688 89.3793C29.7629 84.2207 32.4207 78.4501 33.7951 72.4841L34.107 68.0995L11.7334 96.9959L11.4215 101.381C16.8534 98.556 21.7746 94.5379 25.7688 89.3793ZM35.1887 56.6527L34.8762 61.0348L0.607697 105.294C-2.17923 105.904 -5.02113 106.241 -7.87429 106.3L-7.56178 101.918L0.920186 100.912L35.1887 56.6527Z" fill="#FADCAC"/>
<path d="M-28.4703 19.48L-44.0095 39.5496L-44.6667 44.3786L-28.7801 23.8605L-28.4703 19.48Z" fill="#FADCAC"/>
<path fill-rule="evenodd" clip-rule="evenodd" d="M-9.61863 19.0108L-9.3072 14.6285L-47.2948 63.6911L-47.9519 68.5199L-9.61863 19.0108Z" fill="#FADCAC"/>
<path d="M52.6537 75.2834L46.0824 73.8316L55.9731 103.382L26.4226 113.273L32.9939 114.725L62.5444 104.834L52.6537 75.2834Z" fill="#FCE9CB"/>
<path d="M65.1087 112.495L58.5374 111.043L68.4282 140.594L38.8777 150.485L45.449 151.936L74.9995 142.046L65.1087 112.495Z" fill="#FCE9CB"/>
<path d="M15.4419 87.7384L8.87061 86.2867L18.7614 115.837L-10.7891 125.728L-4.21785 127.18L25.3327 117.289L15.4419 87.7384Z" fill="#FCE9CB"/>
<path d="M27.8969 124.95L21.3256 123.498L31.2164 153.049L1.6659 162.94L8.23719 164.391L37.7877 154.501L27.8969 124.95Z" fill="#FCE9CB"/>
<path d="M46.0824 73.8316L16.5319 83.7224L26.4226 113.273L55.9731 103.382L46.0824 73.8316Z" fill="#FDF2E0"/>
<path d="M58.5374 111.043L28.9869 120.934L38.8777 150.485L68.4282 140.594L58.5374 111.043Z" fill="#FDF2E0"/>
<path d="M8.87061 86.2867L-20.6799 96.1774L-10.7891 125.728L18.7614 115.837L8.87061 86.2867Z" fill="#FDF2E0"/>
<path d="M21.3256 123.498L-8.22487 133.389L1.6659 162.94L31.2164 153.049L21.3256 123.498Z" fill="#FDF2E0"/>
<path fill-rule="evenodd" clip-rule="evenodd" d="M63.0012 19.2293L11.2633 -32L8.45165 -27.0913L60.1896 24.1379L63.0012 19.2293Z" fill="#FCE9CB"/>
<path fill-rule="evenodd" clip-rule="evenodd" d="M-10.2578 43.2735L60.1896 24.1379L8.45165 -27.0913L-10.2578 43.2735ZM9.63799 13.5177C8.68038 9.99222 9.83895 6.39103 12.3402 4.06448C13.4313 3.04964 14.7778 2.27733 16.3156 1.85962C21.3788 0.484303 26.5983 3.47395 27.9736 8.53719C28.3913 10.075 28.4064 11.6272 28.083 13.0817C27.3416 16.4163 24.8215 19.2376 21.296 20.1952C16.2328 21.5706 11.0133 18.5809 9.63799 13.5177Z" fill="#FDF2E0"/>
<path d="M12.3402 4.06448C9.83895 6.39103 8.68038 9.99222 9.63799 13.5177C11.0133 18.5809 16.2328 21.5706 21.296 20.1952C24.8215 19.2376 27.3416 16.4163 28.083 13.0817C26.992 14.0966 25.6454 14.8689 24.1077 15.2866C19.0444 16.6619 13.8249 13.6723 12.4496 8.60902C12.0319 7.07123 12.0168 5.51902 12.3402 4.06448Z" fill="#FCE9CB"/>
</g>
<g clip-path="url(#clip2_17030_191952)">
<path fill-rule="evenodd" clip-rule="evenodd" d="M361.966 15.0964C359.763 15.4246 357.575 15.9231 355.423 16.5946L405.529 81.3087C406.718 79.3937 407.748 77.4003 408.618 75.349L361.966 15.0964ZM344.184 21.977C345.911 20.8206 347.695 19.803 349.522 18.9226L401.798 86.4386C400.488 87.9871 399.056 89.4597 397.504 90.8421L344.184 21.977ZM339.368 25.7059C337.816 27.0883 336.384 28.5608 335.074 30.1094L387.349 97.6254C389.177 96.7449 390.961 95.7274 392.688 94.571L339.368 25.7059ZM331.343 35.2392C330.154 37.1543 329.123 39.1477 328.254 41.199L374.905 101.452C377.109 101.123 379.297 100.625 381.449 99.9534L331.343 35.2392ZM333.921 84.998C329.926 79.8394 327.269 74.0688 325.894 68.1028L348.268 96.9993C342.836 94.1747 337.915 90.1567 333.921 84.998ZM325.963 48.1899C325.306 50.9669 324.92 53.8026 324.813 56.6535L359.082 100.913C361.869 101.523 364.71 101.86 367.564 101.918L325.963 48.1899Z" fill="#FBE5C1"/>
<path fill-rule="evenodd" clip-rule="evenodd" d="M388.469 19.4792C393.94 22.2995 398.897 26.327 402.918 31.5078L404.046 39.597L388.469 19.4792Z" fill="#FBE5C1"/>
<path fill-rule="evenodd" clip-rule="evenodd" d="M369.308 14.6295C372.161 14.6883 375.003 15.0253 377.79 15.6352L405.689 51.6677L407.299 63.696L369.308 14.6295Z" fill="#FBE5C1"/>
<path fill-rule="evenodd" clip-rule="evenodd" d="M355.424 16.5953L355.734 20.9759L405.84 85.6901C407.029 83.775 408.059 81.7816 408.929 79.7303L408.619 75.3501L405.53 81.3098L355.424 16.5953ZM344.494 26.3583L344.185 21.9775L397.504 90.8407L401.797 86.4373L402.108 90.8199C400.798 92.3685 399.367 93.841 397.815 95.2234L344.494 26.3583ZM335.074 30.1079L335.385 34.4907L387.66 102.007C389.487 101.126 391.271 100.109 392.998 98.9523L392.688 94.5695L387.349 97.6239L335.074 30.1079ZM328.255 41.1991L328.564 45.5803L375.216 105.833C377.42 105.505 379.608 105.006 381.759 104.335L381.45 99.9536L374.907 101.452L328.255 41.1991ZM334.231 89.3793C330.237 84.2207 327.579 78.4501 326.205 72.4841L325.893 68.0995L348.267 96.9959L348.578 101.381C343.147 98.556 338.225 94.5379 334.231 89.3793ZM324.811 56.6527L325.124 61.0348L359.392 105.294C362.179 105.904 365.021 106.241 367.874 106.3L367.562 101.918L359.08 100.912L324.811 56.6527Z" fill="#FADCAC"/>
<path d="M388.47 19.48L404.01 39.5496L404.667 44.3786L388.78 23.8605L388.47 19.48Z" fill="#FADCAC"/>
<path fill-rule="evenodd" clip-rule="evenodd" d="M369.619 19.0108L369.307 14.6285L407.295 63.6911L407.952 68.5199L369.619 19.0108Z" fill="#FADCAC"/>
<path d="M307.346 75.2834L313.918 73.8316L304.027 103.382L333.577 113.273L327.006 114.725L297.456 104.834L307.346 75.2834Z" fill="#FCE9CB"/>
<path d="M294.891 112.495L301.463 111.043L291.572 140.594L321.122 150.485L314.551 151.936L285.001 142.046L294.891 112.495Z" fill="#FCE9CB"/>
<path d="M344.558 87.7384L351.129 86.2867L341.239 115.837L370.789 125.728L364.218 127.18L334.667 117.289L344.558 87.7384Z" fill="#FCE9CB"/>
<path d="M332.103 124.95L338.674 123.498L328.784 153.049L358.334 162.94L351.763 164.391L322.212 154.501L332.103 124.95Z" fill="#FCE9CB"/>
<path d="M313.918 73.8316L343.468 83.7224L333.577 113.273L304.027 103.382L313.918 73.8316Z" fill="#FDF2E0"/>
<path d="M301.463 111.043L331.013 120.934L321.122 150.485L291.572 140.594L301.463 111.043Z" fill="#FDF2E0"/>
<path d="M351.129 86.2867L380.68 96.1774L370.789 125.728L341.239 115.837L351.129 86.2867Z" fill="#FDF2E0"/>
<path d="M338.674 123.498L368.225 133.389L358.334 162.94L328.784 153.049L338.674 123.498Z" fill="#FDF2E0"/>
<path fill-rule="evenodd" clip-rule="evenodd" d="M296.999 19.2293L348.737 -32L351.548 -27.0913L299.81 24.1379L296.999 19.2293Z" fill="#FCE9CB"/>
<path fill-rule="evenodd" clip-rule="evenodd" d="M370.258 43.2735L299.81 24.1379L351.548 -27.0913L370.258 43.2735ZM350.362 13.5177C351.32 9.99222 350.161 6.39103 347.66 4.06448C346.569 3.04964 345.222 2.27733 343.684 1.85962C338.621 0.484303 333.402 3.47395 332.026 8.53719C331.609 10.075 331.594 11.6272 331.917 13.0817C332.658 16.4163 335.179 19.2376 338.704 20.1952C343.767 21.5706 348.987 18.5809 350.362 13.5177Z" fill="#FDF2E0"/>
<path d="M347.66 4.06448C350.161 6.39103 351.32 9.99222 350.362 13.5177C348.987 18.5809 343.767 21.5706 338.704 20.1952C335.179 19.2376 332.658 16.4163 331.917 13.0817C333.008 14.0966 334.355 14.8689 335.892 15.2866C340.956 16.6619 346.175 13.6723 347.55 8.60902C347.968 7.07123 347.983 5.51902 347.66 4.06448Z" fill="#FCE9CB"/>
</g>
</g>
<defs>
<filter id="filter0_d_17030_191952" x="127.969" y="49.375" width="105.906" height="48.5" filterUnits="userSpaceOnUse" color-interpolation-filters="sRGB">
<feFlood flood-opacity="0" result="BackgroundImageFix"/>
<feColorMatrix in="SourceAlpha" type="matrix" values="0 0 0 0 0 0 0 0 0 0 0 0 0 0 0 0 0 0 127 0" result="hardAlpha"/>
<feOffset dx="3.5" dy="1.75"/>
<feComposite in2="hardAlpha" operator="out"/>
<feColorMatrix type="matrix" values="0 0 0 0 0 0 0 0 0 0 0 0 0 0 0 0 0 0 0.4 0"/>
<feBlend mode="normal" in2="BackgroundImageFix" result="effect1_dropShadow_17030_191952"/>
<feBlend mode="normal" in="SourceGraphic" in2="effect1_dropShadow_17030_191952" result="shape"/>
</filter>
<clipPath id="clip0_17030_191952">
<rect width="360" height="150" fill="white"/>
</clipPath>
<clipPath id="clip1_17030_191952">
<rect width="75" height="150" fill="white" transform="matrix(-1 0 0 1 75 0)"/>
</clipPath>
<clipPath id="clip2_17030_191952">
<rect width="75" height="150" fill="white" transform="translate(285)"/>
</clipPath>
</defs>
</svg>
