<svg width="16" height="16" viewBox="0 0 16 16" fill="none" xmlns="http://www.w3.org/2000/svg">
<path d="M8.79165 15.1115V13.5328H10.3703V15.1115H8.79165ZM7.21298 13.5328V9.57903H8.79165V13.5328H7.21298ZM13.5348 11.1577V8.00036H15.1134V11.1577H13.5348ZM11.9561 8.00036V6.4217H13.5348V8.00036H11.9561ZM2.46987 9.57903V8.00036H4.04854V9.57903H2.46987ZM0.891205 8.00036V6.4217H2.46987V8.00036H0.891205ZM8.00232 2.46792V0.889252H9.58098V2.46792H8.00232ZM1.87965 4.64392H4.64587V1.8777H1.87965V4.64392ZM1.48143 5.63236C1.16143 5.63236 0.898317 5.37636 0.891205 5.05636V1.50081C0.876983 1.18081 1.12587 0.903475 1.44587 0.889252C1.45298 0.889252 1.46009 0.889252 1.46721 0.889252H5.02276C5.34276 0.882141 5.61298 1.13814 5.62009 1.45814V5.0137C5.62721 5.3337 5.37121 5.60392 5.05121 5.61103H1.49565L1.48143 5.63236ZM1.87965 14.123H4.64587V11.3568H1.87965V14.123ZM1.48143 15.1115C1.16143 15.1115 0.898317 14.8555 0.891205 14.5355V10.9799C0.884094 10.6599 1.14009 10.3897 1.46009 10.3826H5.01565C5.33565 10.3755 5.60587 10.6315 5.61298 10.9515V14.507C5.61298 14.827 5.35698 15.0901 5.03698 15.0973H1.48143V15.1115ZM11.3588 4.64392H14.125V1.8777H11.3588V4.64392ZM10.9677 5.63236C10.6477 5.63947 10.3774 5.38347 10.3703 5.06347V1.50792C10.349 1.18792 10.5979 0.910586 10.9179 0.889252C10.925 0.889252 10.9392 0.889252 10.9463 0.889252H14.5019C14.8219 0.87503 15.0992 1.12392 15.1134 1.44392C15.1134 1.45103 15.1134 1.45814 15.1134 1.46525V5.02081C15.1205 5.34081 14.8645 5.61103 14.5445 5.61814H10.989L10.9677 5.63236ZM11.9561 15.1115V12.7435H10.3703V11.1577H13.5348V13.5328H15.1134V15.1115H11.9561ZM8.79165 9.57903V8.00036H11.9561V9.57903H8.79165ZM5.63432 9.57903V8.00036H4.04854V6.4217H8.79165V8.00036H7.21298V9.57903H5.63432ZM6.42365 5.63236V2.46792H8.00232V4.04659H9.58098V5.63236H6.42365ZM2.66898 3.85459V2.66703H3.85654V3.85459H2.66898ZM2.66898 13.3337V12.1461H3.85654V13.3337H2.66898ZM12.1481 3.85459V2.66703H13.3357V3.85459H12.1481Z" fill="#63B4FF"/>
</svg>
