<svg width="16" height="16" viewBox="0 0 16 16" fill="none" xmlns="http://www.w3.org/2000/svg">
<path d="M5.37771 3.15744V1.48633M3.15549 5.37966H1.48438M3.82215 3.82411L2.71354 2.71376" stroke="#F44336" stroke-width="1.18222" stroke-linecap="round"/>
<path d="M10.6223 12.8426V14.5137M12.8445 10.6203H14.5156M12.1778 12.1759L13.289 13.287" stroke="#F44336" stroke-width="1.18222" stroke-linecap="round"/>
<path fill-rule="evenodd" clip-rule="evenodd" d="M8.92364 1.95035C10.3394 0.534794 12.6355 0.534762 14.0513 1.95035C15.4671 3.36615 15.4671 5.66302 14.0513 7.07881L11.4019 9.72812L10.5656 8.89174L13.2153 6.24201C14.1693 5.28788 14.1694 3.74033 13.2153 2.78629C12.2613 1.83238 10.7137 1.83241 9.75958 2.78629L7.10984 5.43601L6.69187 5.01804L6.2739 4.60007L8.92364 1.95035ZM4.60202 6.27194L1.95225 8.92169L1.82377 9.0571C0.538188 10.4803 0.580895 12.6778 1.95225 14.0493C3.32389 15.4209 5.52213 15.4638 6.94533 14.1777L7.08075 14.0493L9.73006 11.4L8.89369 10.5636L6.24394 13.2133C5.28981 14.1673 3.74224 14.1674 2.78819 13.2133C1.83428 12.2593 1.83431 10.7117 2.78819 9.75762L5.43796 7.10788L4.60202 6.27194ZM7.16493 7.99978L5.36111 9.8036C5.13027 10.0344 5.13027 10.4096 5.36111 10.6404C5.59195 10.8713 5.96707 10.8713 6.19792 10.6404L8.00174 8.83659L7.16493 7.99978ZM8.83854 7.99978L8.00174 7.16298L9.80556 5.35916C10.0364 5.12831 10.4115 5.12831 10.6424 5.35916C10.8732 5.59 10.8732 5.96512 10.6424 6.19596L8.83854 7.99978Z" fill="#F44336"/>
</svg>
