<svg width="21" height="17" viewBox="0 0 21 17" fill="none" xmlns="http://www.w3.org/2000/svg">
<path d="M0.80756 2.8603H20.0352V3.93997H0.80756V2.8603ZM2.67806 16.167C1.79324 16.167 1.12619 15.9447 0.676899 15.5C0.227612 15.0598 0.00296786 14.3997 0.00296786 13.5194V2.654C0.00296786 1.77376 0.227612 1.11129 0.676899 0.666587C1.12619 0.221884 1.79324 -0.000467942 2.67806 -0.000467942H18.1579C19.0473 -0.000467942 19.7166 0.224176 20.1659 0.673464C20.6152 1.11817 20.8398 1.77834 20.8398 2.654V13.5194C20.8398 14.3951 20.6152 15.0553 20.1659 15.5C19.7166 15.9447 19.0473 16.167 18.1579 16.167H2.67806ZM2.70557 14.9498H18.1372C18.6094 14.9498 18.9739 14.8237 19.2306 14.5716C19.4874 14.3194 19.6158 13.9458 19.6158 13.4507V2.71589C19.6158 2.22076 19.4874 1.84711 19.2306 1.59496C18.9739 1.34281 18.6094 1.21674 18.1372 1.21674H2.70557C2.22419 1.21674 1.85513 1.34281 1.5984 1.59496C1.34625 1.84711 1.22017 2.22076 1.22017 2.71589V13.4507C1.22017 13.9458 1.34625 14.3194 1.5984 14.5716C1.85513 14.8237 2.22419 14.9498 2.70557 14.9498ZM3.71647 12.7286V11.4495C3.71647 11.2203 3.78753 11.0346 3.92965 10.8925C4.07636 10.7503 4.26891 10.6793 4.50731 10.6793H16.3561C16.5945 10.6793 16.7871 10.7503 16.9338 10.8925C17.0805 11.0346 17.1538 11.2203 17.1538 11.4495V12.7286C17.1538 12.9578 17.0805 13.1435 16.9338 13.2856C16.7871 13.4277 16.5945 13.4988 16.3561 13.4988H4.50731C4.26891 13.4988 4.07636 13.4277 3.92965 13.2856C3.78753 13.1435 3.71647 12.9578 3.71647 12.7286Z" fill="black"/>
</svg>
