<svg width="17" height="17" viewBox="0 0 17 17" fill="none" xmlns="http://www.w3.org/2000/svg">
<path d="M15.1324 1.01739C15.4166 1.29705 15.6298 1.61797 15.7719 1.98015C15.9186 2.33774 16.0149 2.7366 16.0607 3.17672C16.1112 3.61225 16.1364 4.09363 16.1364 4.62086V11.5046C16.1364 12.0318 16.1112 12.5155 16.0607 12.9556C16.0149 13.3911 15.9186 13.7877 15.7719 14.1453C15.6298 14.5075 15.4166 14.8307 15.1324 15.1149C14.8481 15.3992 14.5249 15.6124 14.1627 15.7545C13.8005 15.9012 13.3994 15.9998 12.9593 16.0502C12.5192 16.1052 12.0355 16.1327 11.5083 16.1327H4.63141C4.10419 16.1327 3.62051 16.1052 3.1804 16.0502C2.74028 15.9998 2.33913 15.9012 1.97695 15.7545C1.61935 15.6124 1.29614 15.3992 1.00731 15.1149C0.723067 14.8307 0.509884 14.5098 0.367762 14.1522C0.225641 13.7946 0.129365 13.3957 0.0789346 12.9556C0.0285044 12.5155 0.00328925 12.0318 0.00328925 11.5046V4.5796C0.00328925 3.81397 0.0651809 3.13546 0.188964 2.54405C0.312748 1.95264 0.587822 1.44375 1.01419 1.01739C1.44055 0.591023 1.95173 0.315949 2.54772 0.192166C3.14372 0.0637978 3.82223 -0.000386111 4.58327 -0.000386111H11.5083C12.0355 -0.000386111 12.5192 0.024829 12.9593 0.0752593C13.3994 0.12569 13.8005 0.224258 14.1627 0.370964C14.5249 0.51767 14.8481 0.733145 15.1324 1.01739ZM14.9192 4.38017C14.9192 3.88045 14.8733 3.41283 14.7816 2.97729C14.69 2.53717 14.5089 2.18187 14.2384 1.91138C13.9679 1.64089 13.6103 1.45751 13.1656 1.36123C12.7209 1.26495 12.2487 1.21682 11.749 1.21682H4.43198C3.91851 1.21682 3.43484 1.26266 2.98097 1.35435C2.53168 1.44605 2.17179 1.62943 1.9013 1.9045C1.63081 2.17499 1.44972 2.53488 1.35803 2.98417C1.26634 3.42887 1.22049 3.91025 1.22049 4.42831V11.7453C1.22049 12.245 1.26634 12.7149 1.35803 13.155C1.44972 13.5952 1.63081 13.9505 1.9013 14.2209C2.17179 14.4914 2.52939 14.6748 2.97409 14.7711C3.41879 14.8674 3.891 14.9155 4.39072 14.9155H11.749C12.2487 14.9155 12.7209 14.8674 13.1656 14.7711C13.6103 14.6748 13.9679 14.4914 14.2384 14.2209C14.5043 13.9505 14.6831 13.5952 14.7748 13.155C14.871 12.7149 14.9192 12.245 14.9192 11.7453V4.38017ZM4.01249 8.06616C4.01249 7.87361 4.07209 7.71774 4.19129 7.59854C4.31049 7.47934 4.46637 7.41974 4.65892 7.41974H7.43717V4.64149C7.43717 4.44894 7.49447 4.29306 7.60909 4.17386C7.72829 4.05008 7.87958 3.98819 8.06296 3.98819C8.25093 3.98819 8.40451 4.05008 8.52371 4.17386C8.64749 4.29306 8.70938 4.44894 8.70938 4.64149V7.41974H11.4945C11.6825 7.41974 11.8361 7.47934 11.9553 7.59854C12.0745 7.71774 12.1341 7.87361 12.1341 8.06616C12.1341 8.24496 12.0745 8.39396 11.9553 8.51316C11.8361 8.62777 11.6825 8.68508 11.4945 8.68508H8.70938V11.4702C8.70938 11.6628 8.64749 11.8186 8.52371 11.9378C8.40451 12.057 8.25093 12.1166 8.06296 12.1166C7.87958 12.1166 7.72829 12.057 7.60909 11.9378C7.49447 11.814 7.43717 11.6582 7.43717 11.4702V8.68508H4.65892C4.47095 8.68508 4.31508 8.62777 4.19129 8.51316C4.07209 8.39396 4.01249 8.24496 4.01249 8.06616Z" fill="black"/>
</svg>
