<svg width="270" height="209" viewBox="0 0 270 209" fill="none" xmlns="http://www.w3.org/2000/svg">
<path fill-rule="evenodd" clip-rule="evenodd" d="M65.9874 70.3064L66.2131 68.9032C66.7014 66.1177 67.1897 63.3078 67.678 60.4735C68.1663 57.6392 68.6546 54.8538 69.1429 52.1172C69.6311 49.3317 70.0462 46.7662 70.388 44.4205H91.7552C92.6521 43.8463 93.5604 43.2901 94.48 42.7518L96.3898 31.6661H34.7179L32.5206 44.4205H54.7869C54.3963 46.7662 53.9568 49.3317 53.4685 52.1172C53.0291 54.8538 52.5652 57.6636 52.0769 60.5468C51.5886 63.3811 51.1003 66.191 50.612 68.9765C50.1237 71.7619 49.6842 74.3519 49.2936 76.7464C48.9029 79.1409 48.5856 81.2666 48.3414 83.1236C48.1461 84.9806 48.0484 86.3977 48.0484 87.3751C48.0484 89.965 48.4635 92.4084 49.2936 94.7052C50.096 96.7574 51.2444 98.5856 52.7387 100.19C54.177 94.9113 55.96 89.8056 58.0957 84.8818L58.1162 84.834L58.1377 84.7871C60.3844 79.711 63.0004 74.8806 65.9874 70.3064ZM116.605 31.8127C116.835 32.3939 117.056 32.9796 117.268 33.5698C115.472 34.0098 113.698 34.5079 111.948 35.0654L111.937 35.0692C111.929 35.0719 111.921 35.0747 111.913 35.0771L111.897 35.0826L111.881 35.0879C109.615 35.8014 107.396 36.5969 105.227 37.4754C103.515 32.6464 100.936 28.3888 97.4885 24.7025C93.9239 20.842 89.3828 17.7633 83.865 15.4666C78.3473 13.1209 71.8041 11.9481 64.2355 11.9481C58.4247 11.9481 53.1511 12.7788 48.4146 14.4403C43.6782 16.1018 39.4544 18.3986 35.7433 21.3307C32.0811 24.2627 28.8828 27.7323 26.1483 31.7394C23.4627 35.6977 21.2409 39.998 19.4831 44.6404C17.774 49.2829 16.48 54.1452 15.6011 59.2274C14.771 64.3096 14.3559 69.4163 14.3559 74.5473C14.3559 81.9752 15.2349 88.7434 16.9927 94.8518C18.7994 100.911 21.5339 106.116 25.1961 110.465C28.9072 114.814 33.5948 118.186 39.2591 120.581C42.1315 121.795 45.2802 122.701 48.7052 123.3C48.4014 126.976 48.25 130.681 48.25 134.415C48.25 135.057 48.2543 135.696 48.2628 136.333C42.8378 135.636 37.859 134.393 33.3263 132.602C25.953 129.719 19.8004 125.565 14.8686 120.141C9.93684 114.716 6.22579 108.168 3.73547 100.496C1.24516 92.8238 0 84.2231 0 74.694C0 68.1946 0.610371 61.8418 1.83111 55.6356C3.05186 49.3806 4.85856 43.4921 7.25121 37.97C9.6927 32.448 12.7201 27.3658 16.3335 22.7234C19.9469 18.081 24.1463 14.0738 28.9316 10.702C33.7169 7.33012 39.0638 4.71571 44.9722 2.85875C50.9294 0.952916 57.4481 0 64.5285 0C69.5091 0 74.3676 0.488675 79.1041 1.46602C83.8406 2.39451 88.3085 3.88496 92.5079 5.9374C96.7072 7.94097 100.589 10.5309 104.154 13.7073C107.718 16.8837 110.795 20.6954 113.383 25.1423C114.603 27.1948 115.678 29.4182 116.605 31.8127Z" fill="white"/>
<path fill-rule="evenodd" clip-rule="evenodd" d="M214.108 75.7415C214.457 73.595 214.826 71.3155 215.213 68.9032C215.701 66.1177 216.19 63.3078 216.678 60.4735C217.166 57.6392 217.655 54.8538 218.143 52.1172C218.631 49.3317 219.046 46.7662 219.388 44.4205H243.192L245.39 31.6661H183.718L182.114 40.978C184.093 42.036 186.019 43.184 187.89 44.4205H203.787C203.396 46.7662 202.957 49.3317 202.469 52.1172C202.245 53.5119 202.014 54.9258 201.778 56.3586C204.915 59.8791 207.702 63.7489 210.15 67.9355C211.631 70.422 212.947 73.0281 214.108 75.7415ZM221.439 92.5061C220.75 92.5061 220.062 92.4861 219.373 92.4459C219.835 94.5607 220.213 96.6841 220.506 98.8154C220.822 101.117 221.04 103.403 221.155 105.672C224.315 105.464 227.462 104.936 230.594 104.088C234.794 102.915 238.822 101.18 242.68 98.8834C246.537 96.5377 250.126 93.7523 253.447 90.527C256.767 87.3018 259.648 83.7589 262.09 79.8983C264.58 75.9889 266.509 71.8352 267.876 67.4371C269.292 63.0391 270 58.4944 270 53.8031C270 51.4575 269.829 49.0385 269.487 46.5463C269.145 44.054 268.633 41.5618 267.949 39.0696C267.314 36.5773 266.533 34.1584 265.605 31.8127C264.678 29.4182 263.603 27.1948 262.383 25.1423C259.795 20.6954 256.718 16.8837 253.154 13.7073C249.589 10.5309 245.707 7.94097 241.508 5.9374C237.309 3.88496 232.841 2.39451 228.104 1.46602C223.368 0.488675 218.509 0 213.528 0C206.448 0 199.929 0.952916 193.972 2.85875C188.064 4.71571 182.717 7.33012 177.932 10.702C173.146 14.0738 168.947 18.081 165.334 22.7234C162.872 25.886 160.682 29.2526 158.765 32.8234C159.088 32.8862 159.411 32.9506 159.733 33.0166C159.754 33.0205 159.775 33.0244 159.795 33.0283C159.807 33.0309 159.82 33.0332 159.832 33.0356C159.845 33.038 159.857 33.0404 159.87 33.043C164.112 33.881 168.233 35.0383 172.222 36.519C173.127 34.8739 174.103 33.2807 175.148 31.7394C177.883 27.7323 181.081 24.2627 184.743 21.3307C188.454 18.3986 192.678 16.1018 197.415 14.4403C202.151 12.7788 207.425 11.9481 213.235 11.9481C220.804 11.9481 227.347 13.1209 232.865 15.4666C238.383 17.7633 242.924 20.842 246.488 24.7025C250.053 28.5142 252.69 32.9367 254.399 37.97C256.108 43.0034 256.962 48.2322 256.962 53.6565C256.962 57.175 256.425 60.5957 255.351 63.9187C254.277 67.1928 252.812 70.2959 250.956 73.2279C249.15 76.1111 247.05 78.7744 244.657 81.2178C242.265 83.6123 239.75 85.6891 237.113 87.4484C234.476 89.1587 231.815 90.4293 229.13 91.26C226.444 92.0908 223.88 92.5061 221.439 92.5061ZM220.853 122.853C220.524 122.922 220.195 122.988 219.867 123.05C219.391 125.352 218.793 127.632 218.071 129.887C217.365 132.157 216.556 134.384 215.645 136.565C217.87 136.318 220.094 135.95 222.318 135.461C224.759 134.972 227.128 134.312 229.423 133.482C231.718 132.651 233.744 131.649 235.502 130.476L232.719 119.188C230.961 120.019 229.056 120.727 227.005 121.314C225.003 121.949 222.953 122.462 220.853 122.853Z" fill="white"/>
<path d="M138.7 148.893C138.7 150.472 138.992 151.73 139.577 152.666C140.163 153.544 140.923 154.216 141.86 154.684C142.854 155.152 143.966 155.445 145.195 155.562C146.482 155.679 147.77 155.737 149.057 155.737C151.983 155.737 155.055 155.24 158.273 154.246C161.491 153.251 164.68 151.73 167.84 149.683C171 147.577 174.014 145.091 176.881 142.224C179.748 139.299 182.264 136.111 184.429 132.66C186.653 129.15 188.408 125.435 189.696 121.516C190.983 117.538 191.627 113.443 191.627 109.231C191.627 102.738 190.603 96.4785 188.554 90.4532C186.506 84.4279 183.347 79.1338 179.075 74.5709C174.803 69.9495 169.362 66.2641 162.749 63.5147C156.137 60.7068 148.296 59.3028 139.226 59.3028C132.263 59.3028 125.944 60.2973 120.268 62.2862C114.592 64.2752 109.53 67.0246 105.083 70.5345C100.694 74.0444 96.8616 78.1978 93.5847 82.9946C90.3664 87.733 87.704 92.8809 85.5975 98.4382C83.5494 103.996 81.9988 109.816 80.9455 115.9C79.9508 121.984 79.4534 128.097 79.4534 134.239C79.4534 143.131 80.5067 151.233 82.6132 158.545C84.7782 165.799 88.0551 172.029 92.4437 177.235C96.8908 182.442 102.508 186.478 109.296 189.345C116.084 192.211 124.159 193.644 133.521 193.644C135.862 193.644 138.29 193.498 140.806 193.205C143.322 192.971 145.839 192.591 148.355 192.065C150.871 191.597 153.328 190.983 155.728 190.222C158.185 189.52 160.467 188.672 162.574 187.677L165.909 201.19C163.803 202.594 161.374 203.794 158.624 204.788C155.874 205.783 153.036 206.572 150.11 207.157C147.184 207.801 144.259 208.269 141.333 208.561C138.407 208.854 135.686 209 133.17 209C121.409 209 111.081 207.245 102.186 203.735C93.3507 200.284 85.9778 195.311 80.0678 188.818C74.1578 182.325 69.7107 174.486 66.7264 165.302C63.7421 156.118 62.25 145.822 62.25 134.415C62.25 126.634 62.9814 119.03 64.4443 111.6C65.9072 104.113 68.0722 97.0635 70.9395 90.4532C73.8652 83.8429 77.4931 77.759 81.8232 72.2017C86.1533 66.6444 91.1856 61.8475 96.9201 57.8111C102.655 53.7747 109.062 50.6451 116.142 48.4222C123.281 46.1407 131.093 45 139.577 45C145.546 45 151.368 45.585 157.044 46.7549C162.72 47.8664 168.074 49.6506 173.107 52.1075C178.139 54.506 182.791 57.6064 187.062 61.4088C191.334 65.2112 195.02 69.774 198.122 75.0974C199.585 77.5543 200.872 80.216 201.984 83.0824C203.095 85.8903 204.032 88.786 204.792 91.7694C205.612 94.7528 206.226 97.7362 206.636 100.72C207.045 103.703 207.25 106.599 207.25 109.407C207.25 115.022 206.402 120.463 204.705 125.728C203.066 130.993 200.755 135.965 197.771 140.645C194.845 145.266 191.392 149.507 187.413 153.368C183.434 157.229 179.134 160.563 174.511 163.371C169.888 166.121 165.061 168.197 160.028 169.601C155.055 170.947 150.052 171.62 145.019 171.62C140.748 171.62 137.032 171.122 133.872 170.128C130.712 169.075 128.079 167.525 125.973 165.477C123.925 163.43 122.374 161.061 121.321 158.37C120.326 155.62 119.829 152.695 119.829 149.595C119.829 148.425 119.946 146.729 120.18 144.506C120.472 142.283 120.853 139.738 121.321 136.872C121.789 134.005 122.316 130.905 122.901 127.57C123.486 124.236 124.071 120.872 124.656 117.479C125.241 114.028 125.797 110.664 126.324 107.388C126.909 104.054 127.436 100.983 127.904 98.175H101.221L103.854 82.9069H177.758L175.125 98.175H146.599C146.19 100.983 145.692 104.054 145.107 107.388C144.522 110.664 143.937 113.999 143.352 117.392C142.767 120.785 142.181 124.148 141.596 127.483C141.07 130.759 140.572 133.83 140.104 136.696C139.695 139.504 139.343 141.99 139.051 144.155C138.817 146.261 138.7 147.84 138.7 148.893Z" fill="white"/>
</svg>
