<svg width="18" height="18" viewBox="0 0 18 18" fill="none" xmlns="http://www.w3.org/2000/svg">
<path d="M3.32031 7.16406H14.6761V15.3665C14.6761 15.8892 14.2524 16.3128 13.7298 16.3128H4.26663C3.74399 16.3128 3.32031 15.8892 3.32031 15.3665V7.16406Z" stroke="#63B4FF" stroke-width="1.33"/>
<path d="M2 5.90725C2 5.38462 2.42368 4.96094 2.94632 4.96094H15.0537C15.5763 4.96094 16 5.38462 16 5.90725V6.21871C16 6.74134 15.5763 7.16502 15.0537 7.16502H2.94632C2.42368 7.16502 2 6.74134 2 6.21871V5.90725Z" stroke="#63B4FF" stroke-width="1.33"/>
<path d="M9.00169 4.96222C9.00169 4.96222 6.63585 0.236273 5.21449 2.12558C3.79312 4.01489 9.00169 4.96222 9.00169 4.96222ZM9.00169 4.96222C9.00169 4.96222 11.3661 0.237296 12.7856 2.12814C14.2051 4.01898 9.00169 4.96222 9.00169 4.96222Z" stroke="#63B4FF" stroke-width="1.33"/>
<path fill-rule="evenodd" clip-rule="evenodd" d="M8.75932 8.64844H9.24773H9.35029V9.13686C9.62145 9.1733 9.85968 9.25711 10.065 9.38254C10.158 9.43939 10.2443 9.50479 10.3239 9.5782C10.5971 9.83866 10.7469 10.1645 10.7682 10.5452C10.769 10.5602 10.7696 10.5752 10.7701 10.5903V10.7316H9.93559V10.6021C9.924 10.4256 9.86026 10.2785 9.73276 10.1549C9.63425 10.0549 9.50676 9.99012 9.35029 9.94893V11.3553L9.53573 11.4024C9.97036 11.5201 10.3007 11.6966 10.5209 11.932C10.7411 12.1733 10.857 12.4852 10.857 12.8618C10.857 13.3031 10.7121 13.6621 10.4166 13.9328C10.3833 13.9644 10.3484 13.9943 10.3119 14.0226L10.3075 14.026C10.0588 14.2175 9.73725 14.3349 9.35029 14.3859V14.8626L8.75932 14.8684H8.6375V14.3977C8.26227 14.3513 7.93317 14.2241 7.68107 14.0336C7.65863 14.0174 7.64154 14.0028 7.62383 13.9872C7.61192 13.9771 7.60018 13.9668 7.5886 13.9563C7.29526 13.6922 7.13936 13.3636 7.12595 12.9655C7.12532 12.9468 7.125 12.9279 7.125 12.9089V12.7735H7.95369L7.96528 12.8971C7.98266 13.0913 8.058 13.2443 8.19129 13.3679C8.30139 13.4679 8.45206 13.5385 8.63171 13.5797V12.0615L8.45786 12.0144C8.07539 11.9144 7.77404 11.7378 7.55963 11.5025C7.34521 11.2612 7.23511 10.9552 7.23511 10.608C7.23511 10.1961 7.37419 9.85478 7.65235 9.58997C7.89574 9.35459 8.22606 9.20159 8.63171 9.14274V8.64844H8.75932ZM8.6375 9.94893C8.49842 9.97835 8.37673 10.0372 8.27821 10.1372C8.15072 10.2608 8.08698 10.402 8.08698 10.5786C8.08698 10.6963 8.08698 11.0258 8.6375 11.1965V9.94893ZM9.35609 13.6091V12.2321C9.5705 12.2969 9.72697 12.3734 9.83128 12.4734C9.95298 12.5852 10.0109 12.7323 10.0109 12.9206C10.0109 13.1325 9.94718 13.2973 9.81389 13.4149C9.70379 13.515 9.54732 13.5797 9.35609 13.6091Z" fill="#63B4FF"/>
</svg>
