<svg width="22" height="22" viewBox="0 0 22 22" fill="none" xmlns="http://www.w3.org/2000/svg">
<path d="M4.36 8.72C6.76796 8.72 8.72 6.76796 8.72 4.36C8.72 1.95204 6.76796 0 4.36 0C1.95204 0 0 1.95204 0 4.36C0 6.76796 1.95204 8.72 4.36 8.72Z" fill="#C4C4C4"/>
<path d="M17.6412 8.72C20.0492 8.72 22.0012 6.76796 22.0012 4.36C22.0012 1.95204 20.0492 0 17.6412 0C15.2333 0 13.2812 1.95204 13.2812 4.36C13.2812 6.76796 15.2333 8.72 17.6412 8.72Z" fill="#C4C4C4"/>
<path d="M4.36 22.0012C6.76796 22.0012 8.72 20.0492 8.72 17.6412C8.72 15.2333 6.76796 13.2812 4.36 13.2812C1.95204 13.2812 0 15.2333 0 17.6412C0 20.0492 1.95204 22.0012 4.36 22.0012Z" fill="#C4C4C4"/>
<path d="M17.6412 22.0012C20.0492 22.0012 22.0012 20.0492 22.0012 17.6412C22.0012 15.2333 20.0492 13.2812 17.6412 13.2812C15.2333 13.2812 13.2812 15.2333 13.2812 17.6412C13.2812 20.0492 15.2333 22.0012 17.6412 22.0012Z" fill="#C4C4C4"/>
</svg>
