<svg width="18" height="18" viewBox="0 0 18 18" fill="none" xmlns="http://www.w3.org/2000/svg">
<path fill-rule="evenodd" clip-rule="evenodd" d="M14.8727 5.57798C16.4376 7.16687 16.9907 8.96898 17 8.99951C16.9846 9.05013 15.2225 14.81 9 14.81L8.7314 14.8064C2.6997 14.643 1 8.99951 1 8.99951C1.01667 8.94475 2.78303 3.19 9 3.19C9.87284 3.19 10.658 3.30343 11.3628 3.4986C12.8795 3.91856 14.0247 4.71696 14.8727 5.57798ZM7.67835 13.3718C8.08871 13.4417 8.52857 13.4799 9 13.4799C11.6482 13.4799 13.2999 12.2722 14.3252 11.0503C14.8468 10.4287 15.2036 9.80207 15.4297 9.33154C15.489 9.208 15.5383 9.09614 15.5791 8.99951C15.5383 8.90313 15.4889 8.79153 15.4297 8.66846C15.2033 8.19788 14.846 7.57135 14.3242 6.94973C14.2135 6.81785 14.0955 6.68614 13.9698 6.5561C13.1376 5.69544 11.9658 4.90795 10.3203 4.62804C9.91032 4.5583 9.47091 4.52006 9 4.52006C6.35365 4.52006 4.70168 5.72749 3.67578 6.94973C3.15402 7.57135 2.79666 8.19788 2.57031 8.66846C2.51105 8.79168 2.46074 8.90305 2.41992 8.99951C2.46077 9.09622 2.51088 9.20785 2.57031 9.33154C2.7964 9.80207 3.15322 10.4287 3.6748 11.0503C3.78548 11.1822 3.90345 11.3139 4.02918 11.444C4.86091 12.3043 6.03241 13.0918 7.67835 13.3718Z" fill="white"/>
<path d="M8.99805 5.70605C10.6216 5.70609 11.971 6.8803 12.2432 8.42578C12.276 8.61245 12.293 8.80489 12.293 9.00098C12.293 9.02904 12.2927 9.05706 12.292 9.08496C12.2473 10.8658 10.7897 12.2959 8.99805 12.2959C8.95009 12.2959 8.90195 12.295 8.85449 12.293C7.12564 12.2188 5.74219 10.8122 5.7041 9.07422C5.70357 9.04997 5.70313 9.02535 5.70312 9.00098C5.70317 7.18124 7.17832 5.70614 8.99805 5.70605ZM8.99805 7.03516C7.91285 7.03524 7.03323 7.91577 7.0332 9.00098C7.03321 9.01567 7.03289 9.03035 7.0332 9.04492C7.05581 10.0806 7.88209 10.9198 8.91211 10.9639C8.94052 10.9651 8.96917 10.9658 8.99805 10.9658C10.0663 10.9658 10.9361 10.113 10.9629 9.05176C10.9633 9.03498 10.9629 9.01791 10.9629 9.00098C10.9629 8.8825 10.9531 8.76716 10.9336 8.65625C10.7714 7.73549 9.96488 7.03518 8.99805 7.03516Z" fill="white"/>
</svg>
