<svg width="18" height="18" viewBox="0 0 18 18" fill="none" xmlns="http://www.w3.org/2000/svg">
<path fill-rule="evenodd" clip-rule="evenodd" d="M14.8727 5.57866C16.4376 7.16756 16.9907 8.96967 17 9.0002C17 9.0002 15.25 14.8107 9 14.8107L8.70996 14.8068C7.95159 14.7846 7.26188 14.6756 6.63558 14.5022L7.67835 13.3725C8.08871 13.4423 8.52857 13.4806 9 13.4806C11.6482 13.4806 13.2999 12.2729 14.3252 11.051C14.8468 10.4293 15.2036 9.80275 15.4297 9.33223C15.489 9.20869 15.5383 9.09683 15.5791 9.0002C15.5383 8.90382 15.4889 8.79222 15.4297 8.66915C15.2033 8.19857 14.846 7.57204 14.3242 6.95041C14.2135 6.81853 14.0955 6.68683 13.9698 6.55679L14.8727 5.57866ZM9 3.19069C9.87284 3.19069 10.658 3.30412 11.3628 3.49929L10.3203 4.62873C9.91032 4.55898 9.47091 4.52075 9 4.52075C6.35365 4.52075 4.70168 5.72818 3.67578 6.95041C3.15402 7.57204 2.79666 8.19857 2.57031 8.66915C2.51105 8.79237 2.46074 8.90374 2.41992 9.0002C2.46077 9.09691 2.51088 9.20854 2.57031 9.33223C2.7964 9.80275 3.15322 10.4293 3.6748 11.051C3.78548 11.1829 3.90345 11.3146 4.02918 11.4447L3.12623 12.4229C1.54808 10.8201 1 9.0002 1 9.0002C1.01667 8.94544 2.78303 3.19069 9 3.19069Z" fill="white"/>
<path fill-rule="evenodd" clip-rule="evenodd" d="M5.75488 9.57501L9.31277 5.72034C9.20982 5.71064 9.10549 5.70569 9 5.70569C7.18024 5.70573 5.70504 7.18093 5.705 9.00069C5.705 9.19659 5.7221 9.3885 5.75488 9.57501ZM9 11.9407L8.686 12.2809C8.78935 12.2907 8.89409 12.2957 9 12.2957C10.8198 12.2957 12.295 10.8205 12.295 9.00069C12.295 8.80444 12.2778 8.6122 12.2449 8.42539L9 11.9407Z" fill="white"/>
<path d="M14.5117 2.04951C14.7609 1.77988 15.1814 1.76337 15.4512 2.01241C15.7208 2.26154 15.7373 2.68207 15.4883 2.95186L13.8666 4.70872L12.9578 5.69326L11.6776 7.08005L10.7429 8.09264L8.234 10.8107L7.2992 11.8234L6.24575 12.9646L5.29477 13.9948L3.48828 15.9519C3.23914 16.2215 2.81862 16.238 2.54883 15.989C2.27919 15.7398 2.26268 15.3193 2.51172 15.0495L4.1328 13.2933L5.04177 12.3086L6.32235 10.9213L7.25705 9.90874L9.76601 7.19069L10.7008 6.17801L11.7539 5.0371L12.7047 4.00714L14.5117 2.04951Z" fill="white"/>
<path fill-rule="evenodd" clip-rule="evenodd" d="M3.48828 15.9519L3.38701 16.041C3.13605 16.2211 2.78481 16.2065 2.54883 15.989C2.81862 16.238 3.23914 16.2215 3.48828 15.9519Z" fill="white"/>
</svg>
