<svg width="17" height="16" viewBox="0 0 17 16" fill="none" xmlns="http://www.w3.org/2000/svg">
<path d="M5.66406 10L12.6641 13.5V1.5L5.66406 5V10Z" stroke="black" stroke-width="1.33" stroke-linejoin="round"/>
<path d="M14.6641 9.81726V5.17969C15.4705 5.63788 16.0145 6.50466 16.0145 7.49848C16.0145 8.49229 15.4705 9.35907 14.6641 9.81726Z" fill="black"/>
<path d="M3.66406 10.5V5H1.66406C1.11178 5 0.664062 5.44772 0.664062 6V9.5C0.664062 10.0523 1.11178 10.5 1.66406 10.5M3.66406 10.5V13.5C3.66406 14.0523 3.21635 14.5 2.66406 14.5C2.11178 14.5 1.66406 14.0523 1.66406 13.5V10.5M3.66406 10.5H1.66406" stroke="black" stroke-width="1.33" stroke-linejoin="round"/>
</svg>
