<svg width="17" height="16" viewBox="0 0 17 16" fill="none" xmlns="http://www.w3.org/2000/svg">
<path d="M7.47787 3.42969C5.87587 3.42969 4.27387 5.29869 2.67188 5.29869V10.6387C3.73988 10.6387 5.87587 13.5757 7.47787 13.5757C9.61387 13.5757 12.2839 11.1727 12.2839 10.9057M7.47787 3.42969C10.6819 3.42969 10.6819 5.29869 13.3519 5.29869V10.6387C12.2839 10.6387 12.2839 10.6387 12.2839 10.9057M7.47787 3.42969C5.87587 3.42969 3.31268 5.52184 3.31268 6.36669C3.20587 7.43469 5.34187 8.50269 7.74487 6.09969L12.2839 10.9057" stroke="black" stroke-width="1.33" stroke-linejoin="round"/>
<path d="M15.3478 5.00006V11.0001M0.664062 11.0001V5" stroke="black" stroke-width="1.33" stroke-linecap="round" stroke-linejoin="round"/>
</svg>
