<svg width="23" height="29" viewBox="0 0 23 29" fill="none" xmlns="http://www.w3.org/2000/svg">
<path d="M4.02065 28.7502C2.69993 28.7502 1.69789 28.4151 1.01453 27.7449C0.337748 27.0746 -0.000645963 26.0825 -0.000645963 24.7683V12.2215C-0.000645963 10.9139 0.337748 9.9217 1.01453 9.24491C1.69789 8.56812 2.69993 8.22973 4.02065 8.22973H8.04195V10.4178H4.14878C3.50485 10.4178 3.01533 10.5853 2.68022 10.9205C2.34511 11.249 2.17756 11.7418 2.17756 12.3989V24.581C2.17756 25.2447 2.34511 25.7441 2.68022 26.0792C3.01533 26.4143 3.50485 26.5818 4.14878 26.5818H18.5387C19.1695 26.5818 19.6557 26.4143 19.9974 26.0792C20.3457 25.7441 20.5198 25.2447 20.5198 24.581V12.3989C20.5198 11.7418 20.3457 11.249 19.9974 10.9205C19.6557 10.5853 19.1695 10.4178 18.5387 10.4178H14.6456V8.22973H18.6767C19.9974 8.22973 20.9962 8.56812 21.673 9.24491C22.3498 9.9217 22.6881 10.9139 22.6881 12.2215V24.7683C22.6881 26.0759 22.3498 27.0648 21.673 27.735C20.9962 28.4118 19.9974 28.7502 18.6767 28.7502H4.02065ZM11.3438 18.6378C11.0612 18.6378 10.8181 18.5392 10.6144 18.3421C10.4107 18.1384 10.3089 17.8986 10.3089 17.6226V4.60268L10.3976 2.73002L9.66821 3.5875L7.67727 5.66714C7.49329 5.87083 7.26003 5.97268 6.97749 5.97268C6.7278 5.97268 6.51425 5.89054 6.33684 5.72628C6.15943 5.55544 6.07072 5.3386 6.07072 5.07577C6.07072 4.94436 6.09372 4.82608 6.13972 4.72095C6.19228 4.61582 6.26456 4.51397 6.35655 4.41541L10.5651 0.344834C10.6965 0.213419 10.8247 0.124714 10.9495 0.0787186C11.0809 0.0261526 11.2123 -0.000130396 11.3438 -0.000130396C11.4817 -0.000130396 11.6132 0.0261526 11.738 0.0787186C11.8628 0.124714 11.991 0.213419 12.1224 0.344834L16.3309 4.41541C16.4229 4.51397 16.4952 4.61582 16.5478 4.72095C16.6003 4.82608 16.6266 4.94436 16.6266 5.07577C16.6266 5.3386 16.5346 5.55544 16.3507 5.72628C16.1667 5.89054 15.9466 5.97268 15.6903 5.97268C15.4143 5.97268 15.1844 5.87083 15.0004 5.66714L13.0193 3.5875L12.2899 2.73987L12.3786 4.60268V17.6226C12.3786 17.8986 12.2768 18.1384 12.0731 18.3421C11.876 18.5392 11.6329 18.6378 11.3438 18.6378Z" fill="#4C4C4C"/>
</svg>
