<svg width="23" height="23" viewBox="0 0 23 23" fill="none" xmlns="http://www.w3.org/2000/svg">
<path d="M11.5 23C17.8513 23 23 17.8513 23 11.5C23 5.14873 17.8513 0 11.5 0C5.14873 0 0 5.14873 0 11.5C0 17.8513 5.14873 23 11.5 23Z" fill="#ECEFF0"/>
<path d="M11.5 0.25C17.7132 0.25 22.75 5.2868 22.75 11.5C22.75 17.7132 17.7132 22.75 11.5 22.75C5.2868 22.75 0.25 17.7132 0.25 11.5C0.25 5.2868 5.2868 0.25 11.5 0.25Z" stroke="white" stroke-opacity="0.5" stroke-width="0.5"/>
<path opacity="0.6" d="M11.4972 9.38281L6.51172 11.6493L11.4972 14.5964L16.4836 11.6493L11.4972 9.38281Z" fill="black"/>
<path opacity="0.45" d="M6.51172 11.6475L11.4972 14.5947V9.38105V3.375L6.51172 11.6475Z" fill="black"/>
<path opacity="0.8" d="M11.5 3.375V9.38105V14.5947L16.4855 11.6475L11.5 3.375Z" fill="black"/>
<path opacity="0.45" d="M6.51172 12.5938L11.4972 19.6194V15.5391L6.51172 12.5938Z" fill="black"/>
<path opacity="0.8" d="M11.5 15.5391V19.6194L16.4892 12.5938L11.5 15.5391Z" fill="black"/>
<path d="M11.5021 3.375L6.51562 11.6498L11.5021 9.38339V3.375Z" fill="#8A92B2"/>
<path d="M11.5021 9.38281L6.51562 11.6492L11.5021 14.5975V9.38281Z" fill="#62688F"/>
<path d="M16.4913 11.6498L11.5039 3.375V9.38339L16.4913 11.6498Z" fill="#62688F"/>
<path d="M11.5039 14.5975L16.4913 11.6492L11.5039 9.38281V14.5975Z" fill="#454A75"/>
<path d="M6.51562 12.6016L11.5021 19.6291V15.548L6.51562 12.6016Z" fill="#8A92B2"/>
<path d="M11.5039 15.548V19.6291L16.4941 12.6016L11.5039 15.548Z" fill="#62688F"/>
</svg>
