<svg width="23" height="23" viewBox="0 0 23 23" fill="none" xmlns="http://www.w3.org/2000/svg">
<path d="M11.5 23C17.8513 23 23 17.8513 23 11.5C23 5.14873 17.8513 0 11.5 0C5.14873 0 0 5.14873 0 11.5C0 17.8513 5.14873 23 11.5 23Z" fill="#4DB8FF"/>
<path d="M11.5 0.25C17.7132 0.25 22.75 5.2868 22.75 11.5C22.75 17.7132 17.7132 22.75 11.5 22.75C5.2868 22.75 0.25 17.7132 0.25 11.5C0.25 5.2868 5.2868 0.25 11.5 0.25Z" stroke="white" stroke-opacity="0.5" stroke-width="0.5"/>
<path fill-rule="evenodd" clip-rule="evenodd" d="M7.2204 6.03906C5.62654 6.03906 4.61594 7.75856 5.41794 9.14874L10.7013 18.3062C11.0561 18.9216 11.9453 18.9216 12.3001 18.3062L17.5845 9.14874C18.3855 7.76072 17.3749 6.03907 15.7821 6.03906H7.2204ZM16.1839 8.34049C16.3571 8.04004 16.1433 7.65462 15.78 7.65462H12.3069V15.4394L13.4086 13.3084L16.1839 8.34049ZM10.6924 15.4373V7.65564H7.21932C6.86165 7.65564 6.64893 8.02914 6.80747 8.32739L6.81549 8.34185L9.59225 13.3081L10.6924 15.4373Z" fill="white"/>
</svg>
