<svg width="23" height="23" viewBox="0 0 23 23" fill="none" xmlns="http://www.w3.org/2000/svg">
<path d="M11.5 23C17.8513 23 23 17.8513 23 11.5C23 5.14873 17.8513 0 11.5 0C5.14873 0 0 5.14873 0 11.5C0 17.8513 5.14873 23 11.5 23Z" fill="#6C00F6"/>
<path d="M11.5 0.25C17.7132 0.25 22.75 5.2868 22.75 11.5C22.75 17.7132 17.7132 22.75 11.5 22.75C5.2868 22.75 0.25 17.7132 0.25 11.5C0.25 5.2868 5.2868 0.25 11.5 0.25Z" stroke="white" stroke-opacity="0.5" stroke-width="0.5"/>
<path d="M10.5718 8.92688L10.5541 7.38775L14.5794 5.125L18.6437 7.47154L18.6897 12.0849L14.6714 14.3517L8.35071 10.7024L6.12043 11.9599L6.14655 14.5201L8.40295 15.8229L10.6332 14.5654L10.6156 13.0262L12.4235 14.07L12.4412 15.6092L8.42287 17.876L4.35854 15.5294L4.3125 10.9161L8.33079 8.64929L14.6515 12.2986L16.8818 11.0411L16.8557 8.48085L14.5923 7.17407L12.362 8.43156L12.3797 9.97069L10.5718 8.92688Z" fill="white"/>
</svg>
