<svg width="23" height="23" viewBox="0 0 23 23" fill="none" xmlns="http://www.w3.org/2000/svg">
<path d="M11.4986 1.42714C11.5539 1.42714 11.6091 1.44556 11.6552 1.47318L20.1075 6.35308C20.2088 6.40833 20.264 6.51882 20.264 6.6293V16.3891C20.264 16.4996 20.1996 16.6101 20.1075 16.6653L11.6552 21.5452C11.6091 21.5729 11.5539 21.5913 11.4986 21.5913C11.4434 21.5913 11.3881 21.5729 11.3421 21.5452L2.88975 16.6653C2.78847 16.6101 2.73322 16.4996 2.73322 16.3891V6.6201C2.73322 6.50961 2.79768 6.39912 2.88975 6.34388L11.3421 1.46397C11.3881 1.43635 11.4434 1.41793 11.4986 1.41793V1.42714ZM11.4986 0C11.1948 0 10.9002 0.0736589 10.6239 0.230184L2.17157 5.11009C1.62834 5.42314 1.29688 5.994 1.29688 6.6201V16.3799C1.29688 17.006 1.62834 17.5769 2.17157 17.8899L10.6239 22.7698C10.891 22.9263 11.1948 23 11.4986 23C11.8025 23 12.0971 22.9263 12.3733 22.7698L20.8257 17.8899C21.3689 17.5769 21.7004 17.006 21.7004 16.3799V6.6201C21.7004 5.994 21.3689 5.42314 20.8257 5.11009L12.3641 0.230184C12.0971 0.0736589 11.7933 0 11.4894 0H11.4986Z" fill="#9DCCED"/>
<path d="M2.07812 6.99239V16.0156C2.07812 16.5957 2.38197 17.1205 2.88837 17.4151L10.7054 21.9267C11.2026 22.2122 11.8195 22.2122 12.3167 21.9267L20.1338 17.4151C20.631 17.1297 20.944 16.5957 20.944 16.0156V6.99239C20.944 6.41232 20.6402 5.8875 20.1338 5.59287L12.3167 1.08126C11.8195 0.79583 11.2026 0.79583 10.7054 1.08126L2.88837 5.59287C2.39118 5.8783 2.08733 6.41232 2.08733 6.99239H2.07812Z" fill="#213147"/>
<path d="M13.2051 13.2493L12.091 16.3061C12.0634 16.389 12.0634 16.4811 12.091 16.5732L14.0062 21.8306L16.2251 20.5507L13.5642 13.2493C13.4998 13.0836 13.2696 13.0836 13.2051 13.2493Z" fill="#12AAFF"/>
<path d="M15.447 8.10867C15.3826 7.94294 15.1524 7.94294 15.0879 8.10867L13.9738 11.1655C13.9462 11.2484 13.9462 11.3405 13.9738 11.4325L17.1136 20.0414L19.3325 18.7616L15.447 8.11788V8.10867Z" fill="#12AAFF"/>
<path d="M11.4986 1.42714C11.5539 1.42714 11.6091 1.44556 11.6552 1.47318L20.1075 6.35308C20.2088 6.40833 20.264 6.51882 20.264 6.6293V16.3891C20.264 16.4996 20.1996 16.6101 20.1075 16.6653L11.6552 21.5452C11.6091 21.5729 11.5539 21.5913 11.4986 21.5913C11.4434 21.5913 11.3881 21.5729 11.3421 21.5452L2.88975 16.6653C2.78847 16.6101 2.73322 16.4996 2.73322 16.3891V6.6201C2.73322 6.50961 2.79768 6.39912 2.88975 6.34388L11.3421 1.46397C11.3881 1.43635 11.4434 1.41793 11.4986 1.41793V1.42714ZM11.4986 0C11.1948 0 10.9002 0.0736589 10.6239 0.230184L2.17157 5.11009C1.62834 5.42314 1.29688 5.994 1.29688 6.6201V16.3799C1.29688 17.006 1.62834 17.5769 2.17157 17.8899L10.6239 22.7698C10.891 22.9263 11.1948 23 11.4986 23C11.8025 23 12.0971 22.9263 12.3733 22.7698L20.8257 17.8899C21.3689 17.5769 21.7004 17.006 21.7004 16.3799V6.6201C21.7004 5.994 21.3689 5.42314 20.8257 5.11009L12.3641 0.230184C12.0971 0.0736589 11.7933 0 11.4894 0H11.4986Z" fill="#9DCCED"/>
<path d="M5.90625 20.058L6.68888 17.9219L8.25413 19.2201L6.79016 20.5644L5.90625 20.058Z" fill="#213147"/>
<path d="M10.7786 5.93108H8.63325C8.47673 5.93108 8.32941 6.03236 8.27416 6.17968L3.67969 18.7754L5.89866 20.0552L10.9627 6.17968C11.0088 6.05078 10.9167 5.92188 10.7878 5.92188L10.7786 5.93108Z" fill="white"/>
<path d="M14.5417 5.93108H12.3963C12.2398 5.93108 12.0925 6.03236 12.0373 6.17968L6.78906 20.5616L9.00804 21.8414L14.7166 6.17968C14.7626 6.05078 14.6706 5.92188 14.5417 5.92188V5.93108Z" fill="white"/>
</svg>
