<svg width="23" height="23" viewBox="0 0 23 23" fill="none" xmlns="http://www.w3.org/2000/svg">
<path d="M11.5 23C17.8513 23 23 17.8513 23 11.5C23 5.14873 17.8513 0 11.5 0C5.14873 0 0 5.14873 0 11.5C0 17.8513 5.14873 23 11.5 23Z" fill="#EA0029"/>
<path d="M11.5 0.25C17.7132 0.25 22.75 5.2868 22.75 11.5C22.75 17.7132 17.7132 22.75 11.5 22.75C5.2868 22.75 0.25 17.7132 0.25 11.5C0.25 5.2868 5.2868 0.25 11.5 0.25Z" stroke="white" stroke-opacity="0.5" stroke-width="0.5"/>
<path d="M15.1645 6.64964L4.26172 5.11719L10.3512 20.1901L18.745 9.44679L15.1645 6.64964ZM16.715 9.25025L13.1716 10.0084L15.0145 7.92194L16.7146 9.25025H16.715ZM13.8628 7.57205L11.5883 10.147L7.07074 6.61783L13.8628 7.57253V7.57205ZM10.2458 17.007L6.39709 7.48043L11.0718 11.1326L10.2463 17.007H10.2458ZM11.3301 17.1589L12.1471 11.3467L16.6187 10.3901L11.3306 17.1589H11.3301Z" fill="white"/>
</svg>
