<svg width="23" height="23" viewBox="0 0 23 23" fill="none" xmlns="http://www.w3.org/2000/svg">
<path d="M11.5 23C17.8513 23 23 17.8513 23 11.5C23 5.14873 17.8513 0 11.5 0C5.14873 0 0 5.14873 0 11.5C0 17.8513 5.14873 23 11.5 23Z" fill="#222222"/>
<path d="M11.5 0.25C17.7132 0.25 22.75 5.2868 22.75 11.5C22.75 17.7132 17.7132 22.75 11.5 22.75C5.2868 22.75 0.25 17.7132 0.25 11.5C0.25 5.2868 5.2868 0.25 11.5 0.25Z" stroke="white" stroke-opacity="0.5" stroke-width="0.5"/>
<path d="M18.193 14.8971L15.9584 17.229C15.9098 17.2797 15.8511 17.32 15.7858 17.3476C15.7205 17.3752 15.65 17.3895 15.5788 17.3894H4.98598C4.93543 17.3894 4.88599 17.3751 4.84372 17.3481C4.80146 17.3211 4.76821 17.2827 4.74806 17.2376C4.72792 17.1925 4.72175 17.1427 4.73032 17.0942C4.73889 17.0457 4.76183 17.0007 4.79631 16.9648L7.03254 14.6329C7.08099 14.5824 7.13957 14.5421 7.20466 14.5145C7.26977 14.4869 7.33999 14.4726 7.41101 14.4725H18.0033C18.0538 14.4725 18.1032 14.4868 18.1455 14.5138C18.1877 14.5408 18.221 14.5792 18.2412 14.6243C18.2613 14.6694 18.2675 14.7192 18.2589 14.7677C18.2503 14.8162 18.2274 14.8612 18.193 14.8971ZM15.9584 10.2014C15.9098 10.1507 15.8511 10.1103 15.7858 10.0827C15.7205 10.0551 15.65 10.0409 15.5788 10.0409H4.98598C4.93543 10.0409 4.88599 10.0553 4.84372 10.0823C4.80146 10.1092 4.76821 10.1476 4.74806 10.1927C4.72792 10.2378 4.72175 10.2877 4.73032 10.3362C4.73889 10.3846 4.76183 10.4296 4.79631 10.4656L7.03254 12.7975C7.08099 12.848 7.13957 12.8883 7.20466 12.9159C7.26977 12.9435 7.33999 12.9578 7.41101 12.9579H18.0033C18.0538 12.9579 18.1032 12.9435 18.1455 12.9165C18.1877 12.8896 18.221 12.8512 18.2412 12.8061C18.2613 12.761 18.2675 12.7111 18.2589 12.6626C18.2503 12.6142 18.2274 12.5692 18.193 12.5332L15.9584 10.2014ZM4.98598 8.52635H15.5788C15.65 8.52637 15.7205 8.51216 15.7858 8.48455C15.8511 8.45695 15.9098 8.41656 15.9584 8.36591L18.193 6.03402C18.2274 5.99806 18.2503 5.95308 18.2589 5.90461C18.2675 5.85614 18.2613 5.80629 18.2412 5.76119C18.221 5.71608 18.1877 5.67769 18.1455 5.65072C18.1032 5.62375 18.0538 5.60938 18.0033 5.60938H7.41101C7.33999 5.60949 7.26977 5.62379 7.20466 5.65139C7.13957 5.67898 7.08099 5.71929 7.03254 5.76981L4.79689 8.1017C4.76244 8.13762 4.73951 8.18256 4.73092 8.23096C4.72233 8.27938 4.72845 8.32919 4.74852 8.37428C4.7686 8.41936 4.80176 8.45775 4.84394 8.48477C4.88612 8.51178 4.93548 8.52623 4.98598 8.52635Z" fill="url(#paint0_linear_14412_77923)"/>
<defs>
<linearGradient id="paint0_linear_14412_77923" x1="5.86917" y1="17.6702" x2="16.6391" y2="5.19316" gradientUnits="userSpaceOnUse">
<stop offset="0.08" stop-color="#9945FF"/>
<stop offset="0.3" stop-color="#8752F3"/>
<stop offset="0.5" stop-color="#5497D5"/>
<stop offset="0.6" stop-color="#43B4CA"/>
<stop offset="0.72" stop-color="#28E0B9"/>
<stop offset="0.97" stop-color="#19FB9B"/>
</linearGradient>
</defs>
</svg>
