<svg width="23" height="23" viewBox="0 0 23 23" fill="none" xmlns="http://www.w3.org/2000/svg">
<path d="M11.5 23C17.8513 23 23 17.8513 23 11.5C23 5.14873 17.8513 0 11.5 0C5.14873 0 0 5.14873 0 11.5C0 17.8513 5.14873 23 11.5 23Z" fill="#FF0421"/>
<path d="M11.5 0.25C17.7132 0.25 22.75 5.2868 22.75 11.5C22.75 17.7132 17.7132 22.75 11.5 22.75C5.2868 22.75 0.25 17.7132 0.25 11.5C0.25 5.2868 5.2868 0.25 11.5 0.25Z" stroke="white" stroke-opacity="0.5" stroke-width="0.5"/>
<path d="M16.898 8.1062H12.7827L11.8143 14.9742H13.7845L14.0185 13.3108H16.2591C18.2831 13.3108 19.2917 12.4993 19.5203 10.7622C19.7557 8.9714 18.9085 8.1062 16.8978 8.1062H16.898ZM17.5234 10.6415C17.4427 11.3793 17.019 11.7012 16.1718 11.7012H14.2451L14.5244 9.71594H16.5416C17.3082 9.71594 17.5974 9.97757 17.5234 10.6415ZM7.92764 7.94531C5.24474 7.94531 3.83935 9.07211 3.50978 11.4867C3.17355 13.9549 4.33016 15.1353 7.08035 15.1353C9.83055 15.1353 11.162 14.0085 11.4915 11.5939C11.8278 9.12575 10.678 7.94531 7.92764 7.94531ZM9.48774 11.4867C9.3061 12.8483 8.62032 13.4586 7.18807 13.4586C5.84323 13.4586 5.33893 12.922 5.51364 11.5939C5.69525 10.2258 6.39456 9.62202 7.81331 9.62202C9.23206 9.62202 9.66245 10.1653 9.48774 11.4867Z" fill="#FAFAF9"/>
</svg>
