<svg width="165" height="40" viewBox="0 0 165 40" fill="none" xmlns="http://www.w3.org/2000/svg">
<g clip-path="url(#clip0_14656_101133)">
<g clip-path="url(#clip1_14656_101133)">
<path d="M19.7502 -0.000564575C19.3661 0.0182686 18.8967 0.0484047 18.6148 0.0728874C14.6747 0.430717 10.9693 1.9242 7.85619 4.41208C6.62231 5.39706 5.43007 6.61557 4.48574 7.85292C2.48163 10.482 1.18531 13.4464 0.647851 16.6273C0.458606 17.7517 0.392371 18.5107 0.377231 19.716C0.362091 21.0117 0.42265 21.9195 0.60054 23.0778C1.15124 26.6429 2.67277 29.9952 5.01562 32.7957C5.14052 32.9464 5.25218 33.0782 5.26353 33.0895C5.27299 33.1008 5.33734 33.1724 5.40547 33.2496C5.9978 33.9201 6.80209 34.7035 7.50608 35.293C11.7035 38.8073 17.0705 40.4496 22.551 39.894C25.755 39.5701 28.8434 38.4702 31.5307 36.6999C32.3823 36.1386 33.0352 35.6396 33.8244 34.9484C34.1877 34.6339 34.956 33.8786 35.3099 33.4926C37.4257 31.1836 38.9756 28.4132 39.8196 25.4338C40.1376 24.3076 40.3741 23.0363 40.4801 21.8724C40.5463 21.1511 40.5577 20.8987 40.5577 19.9891C40.5577 18.9062 40.5255 18.3675 40.4044 17.4278C39.9143 13.5877 38.2811 9.93211 35.732 6.97528C33.9606 4.91869 31.8127 3.25948 29.3639 2.05227C27.0021 0.888367 24.5419 0.229198 21.8319 0.0352173C21.4515 0.00696564 20.0757 -0.0156288 19.7502 -0.000564575ZM16.3968 5.93004C16.5104 5.9903 16.5879 6.07882 16.6523 6.2163C16.6939 6.30482 16.6939 6.31989 16.6939 7.08075V7.8548L16.6144 8.013C16.4763 8.28797 16.3552 8.38778 15.9899 8.52715C14.5573 9.07708 13.3348 9.81723 12.1237 10.8681C11.942 11.0263 11.2475 11.7194 11.0828 11.9077C11.0147 11.9849 10.9503 12.0565 10.9409 12.0678C10.8633 12.1488 10.5454 12.5462 10.3883 12.7571C9.18658 14.3674 8.39175 16.23 8.07571 18.1811C7.95459 18.9156 7.91675 19.4071 7.91675 20.1963C7.91485 21.3281 8.02461 22.2095 8.3047 23.3132C8.72293 24.9648 9.5575 26.6316 10.6381 27.9744C11.0601 28.4961 11.643 29.1119 12.0858 29.5018C12.1842 29.5884 12.2694 29.6638 12.2751 29.6694C12.2978 29.692 12.5059 29.8634 12.6441 29.9726C13.6565 30.773 14.8374 31.4473 15.9824 31.8767C16.0902 31.9162 16.2095 31.9652 16.2473 31.9859C16.4233 32.0763 16.5804 32.2722 16.6599 32.4982C16.7053 32.6281 16.7053 32.6281 16.6996 33.3664L16.6939 34.1046L16.6447 34.2082C16.5387 34.4286 16.3476 34.5472 16.1016 34.5472C15.9994 34.5472 15.918 34.5284 15.672 34.4455C14.1505 33.937 12.6971 33.1762 11.4235 32.2251C11.1472 32.0179 10.6873 31.6507 10.6286 31.5904C10.6229 31.5848 10.5472 31.517 10.4583 31.4397C10.0533 31.0857 9.52343 30.5583 9.17144 30.161C9.10331 30.0837 9.03897 30.0122 9.0295 30.0009C9.01815 29.9896 8.95002 29.9086 8.87811 29.8201C8.8062 29.7316 8.74185 29.6562 8.73618 29.6506C8.68319 29.5997 8.30091 29.0931 8.10031 28.8087C5.87858 25.6523 4.96831 21.7764 5.54929 17.9381C5.77449 16.4484 6.22111 15.0171 6.89104 13.6479C7.82591 11.7345 9.10899 10.0997 10.7706 8.69853C11.5332 8.05632 12.4643 7.43105 13.4048 6.93009C14.1107 6.55531 15.0153 6.17299 15.7193 5.94887C15.7263 5.94665 15.7333 5.94444 15.7403 5.94225C15.8509 5.90731 15.947 5.87697 15.9559 5.87165C15.9672 5.86789 16.0467 5.86789 16.1356 5.86977C16.2719 5.87542 16.3116 5.88295 16.3968 5.93004ZM25.3235 5.98466C26.5593 6.39899 27.7799 7.00165 28.8813 7.73803C32.5015 10.1619 34.905 14.0434 35.4367 18.3223C35.5314 19.0851 35.5597 19.635 35.5465 20.4599C35.5351 21.1568 35.52 21.3752 35.4462 21.9986C35.1018 24.9102 33.8774 27.6976 31.9584 29.9331C31.6499 30.2928 31.6026 30.3418 31.1049 30.8371C30.3423 31.5979 29.6704 32.146 28.7867 32.7298C27.6853 33.4549 26.6009 33.986 25.2951 34.4361C25.0207 34.5322 24.9904 34.5378 24.822 34.5378C24.6725 34.5378 24.629 34.5303 24.5627 34.4945C24.4378 34.4286 24.3621 34.3514 24.2997 34.2327L24.2448 34.1235L24.2391 33.3701C24.2315 32.517 24.2372 32.4718 24.3697 32.2684C24.4738 32.1083 24.6176 32.0047 24.8674 31.9087C27.8915 30.7617 30.3423 28.5469 31.7484 25.6862C32.4353 24.2868 32.8308 22.8725 32.9822 21.2603C33.0163 20.9044 33.0163 19.507 32.9822 19.151C32.7778 16.9908 32.106 15.0698 30.9441 13.3315C30.4085 12.5311 29.9997 12.0339 29.3071 11.3446C28.0902 10.1336 26.6747 9.21268 25.051 8.57047C24.6157 8.39908 24.5287 8.34258 24.3943 8.15048C24.3508 8.08645 24.2978 7.9791 24.2751 7.9113C24.2353 7.79265 24.2334 7.76628 24.2391 7.03932L24.2448 6.28787L24.2978 6.18052C24.3602 6.05622 24.487 5.93569 24.6006 5.89425C24.6441 5.87919 24.7444 5.866 24.822 5.866C24.9488 5.86412 25.0037 5.87731 25.3235 5.98466ZM21.3683 10.2504C21.4742 10.3031 21.6048 10.4255 21.654 10.5178C21.7335 10.6723 21.7373 10.7269 21.7373 11.7891V12.808L21.8565 12.8306C22.2861 12.9115 22.816 13.0867 23.2039 13.275C24.3394 13.8268 25.0604 14.7214 25.4124 16.0153C25.5089 16.3712 25.4862 16.552 25.3159 16.7366C25.227 16.8307 25.1134 16.8929 24.9734 16.9193C24.8371 16.9456 23.5919 16.9438 23.45 16.9174C23.3175 16.8929 23.2285 16.8496 23.1358 16.7648C23.0298 16.6669 22.9901 16.5972 22.9106 16.3637C22.57 15.3862 21.9474 14.9135 20.8005 14.7704C20.5394 14.7384 19.8751 14.744 19.6272 14.7798C18.5977 14.9342 17.9751 15.3994 17.7669 16.1641C17.7234 16.326 17.7177 16.3806 17.7177 16.6838C17.7158 17.2714 17.8218 17.5916 18.117 17.8929C18.5447 18.3261 19.3093 18.5822 20.8668 18.812C22.5681 19.0625 23.6184 19.3827 24.4056 19.8893C24.6441 20.0437 24.8106 20.1793 25.0207 20.3921C25.5127 20.8893 25.7928 21.4901 25.931 22.3357C25.9707 22.5843 25.9896 23.4036 25.9593 23.6541C25.8893 24.2567 25.6793 24.8707 25.3708 25.3754C25.0623 25.8783 24.5703 26.3849 24.0423 26.7389C23.4197 27.1552 22.7422 27.4207 21.8471 27.5977L21.7373 27.6185V28.6223C21.7373 29.4641 21.7335 29.6412 21.7089 29.7353C21.6597 29.9255 21.5367 30.0724 21.3588 30.1572L21.2547 30.2062L20.5072 30.2118C19.6651 30.2193 19.6253 30.2137 19.4531 30.0856C19.3585 30.0141 19.2525 29.8577 19.2203 29.7447C19.209 29.7052 19.2014 29.2607 19.2014 28.6468C19.2014 28.0799 19.1957 27.6166 19.1863 27.6166C19.1787 27.6166 19.05 27.5959 18.9005 27.5695C16.6182 27.1702 15.2083 25.8858 14.7901 23.8198C14.739 23.5674 14.7333 23.5222 14.7523 23.4337C14.7977 23.2209 14.9339 23.0608 15.144 22.9798C15.2216 22.9497 15.3068 22.9459 16.0846 22.9516C16.9134 22.9553 16.9418 22.9572 17.027 22.9949C17.1386 23.0457 17.2598 23.155 17.3184 23.2567C17.3449 23.3 17.3903 23.4337 17.4206 23.5524C17.5323 23.9855 17.642 24.2492 17.8313 24.5317C18.3101 25.2473 19.1181 25.5995 20.3653 25.6334C20.9652 25.6504 21.3967 25.592 21.813 25.4376C22.8671 25.0477 23.4083 24.236 23.3251 23.1682C23.2683 22.4224 22.9806 22.0137 22.2804 21.6841C21.8073 21.4619 21.1696 21.3018 20.0473 21.1285C18.2798 20.8554 17.22 20.5032 16.446 19.9269C15.6039 19.3017 15.1913 18.4692 15.1099 17.23C15.0721 16.6481 15.1289 16.1603 15.2954 15.6593C15.6379 14.6235 16.3779 13.808 17.4509 13.2844C17.9316 13.049 18.3309 12.9172 18.8929 12.808L19.1995 12.7477L19.2052 11.7024L19.2109 10.6572L19.2677 10.548C19.3358 10.4124 19.472 10.2862 19.6045 10.2353C19.6972 10.1995 19.7408 10.1977 20.4883 10.2014L21.2736 10.2052L21.3683 10.2504Z" fill="#2775CA"/>
<path d="M21.3683 10.2504C21.4742 10.3031 21.6048 10.4255 21.654 10.5178C21.7335 10.6723 21.7373 10.7269 21.7373 11.7891V12.808L21.8565 12.8306C22.2861 12.9115 22.816 13.0867 23.2039 13.275C24.3394 13.8268 25.0604 14.7214 25.4124 16.0153C25.5089 16.3712 25.4862 16.552 25.3159 16.7366C25.227 16.8307 25.1134 16.8929 24.9734 16.9193C24.8371 16.9456 23.5919 16.9438 23.45 16.9174C23.3175 16.8929 23.2285 16.8496 23.1358 16.7648C23.0298 16.6669 22.9901 16.5972 22.9106 16.3637C22.57 15.3862 21.9474 14.9135 20.8005 14.7704C20.5394 14.7384 19.8751 14.744 19.6272 14.7798C18.5977 14.9342 17.9751 15.3994 17.7669 16.1641C17.7234 16.326 17.7177 16.3806 17.7177 16.6838C17.7158 17.2714 17.8218 17.5916 18.117 17.8929C18.5447 18.3261 19.3093 18.5822 20.8668 18.812C22.5681 19.0625 23.6184 19.3827 24.4056 19.8893C24.6441 20.0437 24.8106 20.1793 25.0207 20.3921C25.5127 20.8893 25.7928 21.4901 25.931 22.3357C25.9707 22.5843 25.9896 23.4036 25.9593 23.6541C25.8893 24.2567 25.6793 24.8707 25.3708 25.3754C25.0623 25.8783 24.5703 26.3849 24.0423 26.7389C23.4197 27.1552 22.7422 27.4207 21.8471 27.5977L21.7373 27.6185V28.6223C21.7373 29.4641 21.7335 29.6412 21.7089 29.7353C21.6597 29.9255 21.5367 30.0724 21.3588 30.1572L21.2547 30.2062L20.5072 30.2118C19.6651 30.2193 19.6253 30.2137 19.4531 30.0856C19.3585 30.0141 19.2525 29.8577 19.2203 29.7447C19.209 29.7052 19.2014 29.2607 19.2014 28.6468C19.2014 28.0799 19.1957 27.6166 19.1863 27.6166C19.1787 27.6166 19.05 27.5959 18.9005 27.5695C16.6182 27.1702 15.2083 25.8858 14.7901 23.8198C14.739 23.5674 14.7333 23.5222 14.7523 23.4337C14.7977 23.2209 14.9339 23.0608 15.144 22.9798C15.2216 22.9497 15.3068 22.9459 16.0846 22.9516C16.9134 22.9553 16.9418 22.9572 17.027 22.9949C17.1386 23.0457 17.2598 23.155 17.3184 23.2567C17.3449 23.3 17.3903 23.4337 17.4206 23.5524C17.5323 23.9855 17.642 24.2492 17.8313 24.5317C18.3101 25.2473 19.1181 25.5995 20.3653 25.6334C20.9652 25.6504 21.3967 25.592 21.813 25.4376C22.8671 25.0477 23.4083 24.236 23.3251 23.1682C23.2683 22.4224 22.9806 22.0137 22.2804 21.6841C21.8073 21.4619 21.1696 21.3018 20.0473 21.1285C18.2798 20.8554 17.22 20.5032 16.446 19.9269C15.6039 19.3017 15.1913 18.4692 15.1099 17.23C15.0721 16.6481 15.1289 16.1603 15.2954 15.6593C15.6379 14.6235 16.3779 13.808 17.4509 13.2844C17.9316 13.049 18.3309 12.9172 18.8929 12.808L19.1995 12.7477L19.2052 11.7024L19.2109 10.6572L19.2677 10.548C19.3358 10.4124 19.472 10.2862 19.6045 10.2353C19.6972 10.1995 19.7408 10.1977 20.4883 10.2014L21.2736 10.2052L21.3683 10.2504Z" fill="white"/>
<path d="M25.3235 5.98466C26.5593 6.39899 27.7799 7.00165 28.8813 7.73803C32.5015 10.1619 34.905 14.0434 35.4367 18.3223C35.5314 19.0851 35.5597 19.635 35.5465 20.4599C35.5351 21.1568 35.52 21.3752 35.4462 21.9986C35.1018 24.9102 33.8774 27.6976 31.9584 29.9331C31.6499 30.2928 31.6026 30.3418 31.1049 30.8371C30.3423 31.5979 29.6704 32.146 28.7867 32.7298C27.6853 33.4549 26.6009 33.986 25.2951 34.4361C25.0207 34.5322 24.9904 34.5378 24.822 34.5378C24.6725 34.5378 24.629 34.5303 24.5627 34.4945C24.4378 34.4286 24.3621 34.3514 24.2997 34.2327L24.2448 34.1235L24.2391 33.3701C24.2315 32.517 24.2372 32.4718 24.3697 32.2684C24.4738 32.1083 24.6176 32.0047 24.8674 31.9087C27.8915 30.7617 30.3423 28.5469 31.7484 25.6862C32.4353 24.2868 32.8308 22.8725 32.9822 21.2603C33.0163 20.9044 33.0163 19.507 32.9822 19.151C32.7778 16.9908 32.106 15.0698 30.9441 13.3315C30.4085 12.5311 29.9997 12.0339 29.3071 11.3446C28.0902 10.1336 26.6747 9.21268 25.051 8.57047C24.6157 8.39908 24.5287 8.34258 24.3943 8.15048C24.3508 8.08645 24.2978 7.9791 24.2751 7.9113C24.2353 7.79265 24.2334 7.76628 24.2391 7.03932L24.2448 6.28787L24.2978 6.18052C24.3602 6.05622 24.487 5.93569 24.6006 5.89425C24.6441 5.87919 24.7444 5.866 24.822 5.866C24.9488 5.86412 25.0037 5.87731 25.3235 5.98466Z" fill="white"/>
<path d="M16.3968 5.93004C16.5104 5.9903 16.5879 6.07882 16.6523 6.2163C16.6939 6.30482 16.6939 6.31989 16.6939 7.08075V7.8548L16.6144 8.013C16.4763 8.28797 16.3552 8.38778 15.9899 8.52715C14.5573 9.07708 13.3348 9.81723 12.1237 10.8681C11.942 11.0263 11.2475 11.7194 11.0828 11.9077C11.0147 11.9849 10.9503 12.0565 10.9409 12.0678C10.8633 12.1488 10.5454 12.5462 10.3883 12.7571C9.18658 14.3674 8.39175 16.23 8.07571 18.1811C7.95459 18.9156 7.91675 19.4071 7.91675 20.1963C7.91485 21.3281 8.02461 22.2095 8.3047 23.3132C8.72293 24.9648 9.5575 26.6316 10.6381 27.9744C11.0601 28.4961 11.643 29.1119 12.0858 29.5018C12.1842 29.5884 12.2694 29.6638 12.2751 29.6694C12.2978 29.692 12.5059 29.8634 12.6441 29.9726C13.6565 30.773 14.8374 31.4473 15.9824 31.8767C16.0902 31.9162 16.2095 31.9652 16.2473 31.9859C16.4233 32.0763 16.5804 32.2722 16.6599 32.4982C16.7053 32.6281 16.7053 32.6281 16.6996 33.3664L16.6939 34.1046L16.6447 34.2082C16.5387 34.4286 16.3476 34.5472 16.1016 34.5472C15.9994 34.5472 15.918 34.5284 15.672 34.4455C14.1505 33.937 12.6971 33.1762 11.4235 32.2251C11.1472 32.0179 10.6873 31.6507 10.6286 31.5904C10.6229 31.5848 10.5472 31.517 10.4583 31.4397C10.0533 31.0857 9.52343 30.5583 9.17144 30.161C9.10331 30.0837 9.03897 30.0122 9.0295 30.0009C9.01815 29.9896 8.95002 29.9086 8.87811 29.8201C8.8062 29.7316 8.74185 29.6562 8.73618 29.6506C8.68319 29.5997 8.30091 29.0931 8.10031 28.8087C5.87858 25.6523 4.96831 21.7764 5.54929 17.9381C5.77449 16.4484 6.22111 15.0171 6.89104 13.6479C7.82591 11.7345 9.10899 10.0997 10.7706 8.69853C11.5332 8.05632 12.4643 7.43105 13.4048 6.93009C14.1107 6.55531 15.0153 6.17299 15.7193 5.94887L15.7403 5.94225C15.8509 5.90731 15.947 5.87697 15.9559 5.87165C15.9672 5.86789 16.0467 5.86789 16.1356 5.86977C16.2719 5.87542 16.3116 5.88295 16.3968 5.93004Z" fill="white"/>
<path d="M119.205 9.40887C116.923 9.55766 114.796 10.3863 113.131 11.7706C111.096 13.4618 109.838 15.863 109.527 18.6447C109.414 19.6448 109.431 20.7352 109.575 21.724C109.834 23.5188 110.5 25.161 111.526 26.5359C111.814 26.9238 112.075 27.2176 112.478 27.6188C113.32 28.4588 114.105 29.0143 115.192 29.5398C115.665 29.7695 116.009 29.9089 116.49 30.0671C118.125 30.6039 120.002 30.7489 121.713 30.472C123.463 30.1876 124.974 29.4739 126.304 28.3062C126.798 27.8712 127.485 27.1329 127.578 26.9389C127.665 26.7506 127.621 26.4926 127.477 26.3494C127.424 26.2967 127.209 26.1686 126.813 25.952C126.03 25.5245 126.064 25.5396 125.905 25.5396C125.64 25.5377 125.539 25.6036 125.22 25.9822C125.144 26.0707 124.97 26.2515 124.832 26.3871C123.901 27.2892 122.697 27.922 121.414 28.1838C119.684 28.5341 117.782 28.2516 116.244 27.4116C114.105 26.2458 112.671 24.1666 112.243 21.611C112.154 21.0836 112.133 20.8388 112.124 20.1815C112.113 19.5167 112.13 19.1909 112.196 18.6824C112.518 16.2623 113.744 14.2114 115.619 12.9552C116.664 12.2565 117.807 11.8478 119.13 11.7009C119.272 11.6858 119.582 11.6764 119.953 11.6764C120.576 11.6764 120.788 11.6934 121.259 11.7819C122.822 12.0776 124.249 12.8968 125.286 14.0946C125.536 14.3827 125.621 14.4374 125.839 14.4505C125.929 14.4562 126.013 14.4505 126.058 14.4355C126.175 14.3978 127.373 13.7236 127.443 13.6577C127.608 13.5013 127.651 13.2452 127.549 13.0324C127.455 12.8328 126.554 11.8873 126.103 11.5144C125.432 10.957 124.73 10.52 123.976 10.1886C122.96 9.74222 121.898 9.49174 120.672 9.40699C120.358 9.38627 119.542 9.38627 119.205 9.40887Z" fill="#4D4E50"/>
<path d="M74.7139 9.4287C72.4183 9.51533 70.4142 10.3911 69.2314 11.8281C68.2663 12.9976 67.8802 14.4949 68.1395 16.0561C68.3874 17.5402 69.2371 18.6438 70.7587 19.4593C71.6651 19.9452 72.6076 20.2748 74.6344 20.8134C75.8304 21.1298 76.4171 21.2993 76.9886 21.4895C77.579 21.6854 77.8591 21.7965 78.2717 21.998C79.409 22.5555 80.0241 23.2505 80.2152 24.1959C80.2777 24.501 80.2777 25.0848 80.2171 25.388C80.1036 25.9436 79.8689 26.4295 79.5018 26.8646C78.9302 27.5426 77.9765 28.0285 76.8391 28.2224C76.084 28.3505 75.1435 28.3675 74.3448 28.2676C72.5432 28.0435 70.8571 27.245 69.4737 25.9643C69.2579 25.7628 69.1747 25.7157 69.0176 25.7044C68.8813 25.6931 68.7754 25.7176 68.6694 25.7892C68.5653 25.8589 67.7005 26.9606 67.6513 27.0868C67.6285 27.1452 67.6172 27.2262 67.6172 27.3184C67.6172 27.4409 67.6266 27.4785 67.6796 27.5859C67.7326 27.6932 67.7818 27.7497 68.0108 27.9607C68.7129 28.6066 69.3999 29.0775 70.2572 29.5012C71.2488 29.9909 72.3029 30.3129 73.4649 30.4806C74.676 30.6557 76.0613 30.6519 77.2592 30.4711C79.4242 30.1434 81.0649 29.2074 82.0149 27.761C82.5013 27.019 82.7965 26.1677 82.9006 25.1997C82.9328 24.8946 82.929 24.1789 82.8911 23.8625C82.7303 22.5216 82.1872 21.4801 81.222 20.6533C80.1736 19.7588 78.777 19.1504 76.1994 18.4649C74.4679 18.0035 73.6522 17.7605 73.0296 17.5176C72.4619 17.2954 71.8752 16.9658 71.5364 16.6776C71.0558 16.2746 70.7795 15.7492 70.7322 15.1616C70.6281 13.83 71.4078 12.6737 72.8006 12.0917C73.4573 11.8186 74.1329 11.6981 75.0072 11.7C75.4936 11.7 75.7982 11.7207 76.2562 11.7829C77.7929 11.9938 79.1744 12.5946 80.2587 13.5231C80.5956 13.8112 80.6221 13.8319 80.7356 13.8639C80.87 13.9035 80.9968 13.8903 81.1331 13.8225C81.2239 13.7792 81.2788 13.7189 81.6554 13.2632C81.8863 12.9807 82.1001 12.7208 82.1285 12.6831C82.2042 12.5833 82.2401 12.4665 82.242 12.314C82.242 12.1972 82.2345 12.1614 82.1815 12.0541C82.1285 11.9486 82.085 11.8996 81.9033 11.7377C80.8965 10.8506 79.6569 10.1915 78.3057 9.82232C77.1892 9.51722 75.9553 9.38162 74.7139 9.4287Z" fill="#4D4E50"/>
<path d="M48.1996 9.76624C48.0577 9.81898 47.9404 9.93197 47.8666 10.0808L47.8041 10.2069L47.7984 16.0923C47.7927 22.0437 47.8003 22.8836 47.8609 23.4844C48.0728 25.5467 48.7768 27.1908 49.9634 28.383C50.2586 28.6805 50.4024 28.8048 50.7242 29.044C51.4111 29.5563 52.2324 29.9518 53.1541 30.2154C54.7683 30.675 56.8765 30.7371 58.6176 30.3774C60.9755 29.8877 62.692 28.6353 63.6723 26.6936C64.2211 25.6069 64.5239 24.3677 64.5996 22.9006C64.6147 22.6294 64.6185 20.5784 64.6147 16.3466L64.609 10.1881L64.5598 10.0826C64.4993 9.95457 64.4047 9.85664 64.2722 9.78696L64.1738 9.73611L63.3676 9.73046C62.5879 9.72481 62.5576 9.72669 62.4554 9.76436C62.3078 9.81898 62.1772 9.94139 62.1091 10.0883L62.0542 10.2069L62.0429 16.6197C62.0372 20.1472 62.0259 23.0663 62.0183 23.1077C62.0107 23.1492 61.988 23.3093 61.9672 23.4656C61.6398 25.9064 60.2432 27.5675 58.0612 28.1155C56.9125 28.4037 55.4969 28.4037 54.3614 28.1174C53.6423 27.9366 52.8853 27.5656 52.3441 27.1287C51.3865 26.3565 50.7317 25.1493 50.4914 23.7142C50.3703 22.9872 50.3797 23.5145 50.3684 16.5349L50.3589 10.1881L50.3097 10.0826C50.2491 9.95457 50.1545 9.85664 50.0221 9.78696L49.9236 9.73611L49.1099 9.73234C48.3359 9.72857 48.2905 9.73046 48.1996 9.76624Z" fill="#4D4E50"/>
<path d="M86.378 9.76447C86.2361 9.81909 86.1055 9.94339 86.0393 10.0865L85.9844 10.2052V19.9796V29.7541L86.0393 29.8728C86.1074 30.0178 86.238 30.1421 86.3837 30.1948C86.4878 30.2344 86.5029 30.2344 89.9926 30.2344C92.1292 30.2344 93.6185 30.2268 93.8096 30.2155C96.2869 30.0649 98.414 29.2663 100.13 27.8407C100.433 27.5902 101.012 27.0139 101.264 26.7125C102.449 25.3001 103.196 23.6032 103.478 21.6935C103.569 21.0776 103.582 20.8497 103.582 19.9891C103.582 19.1303 103.571 18.9325 103.478 18.3035C103.06 15.4484 101.559 13.0207 99.2788 11.5047C97.7914 10.5159 96.2225 9.97917 94.1976 9.76824C93.927 9.73999 93.5012 9.73622 90.1856 9.73057C86.5029 9.7268 86.4764 9.7268 86.378 9.76447ZM94.1598 12.0565C95.5299 12.2297 96.5934 12.597 97.5908 13.2411C98.8682 14.0641 99.8541 15.3203 100.399 16.8157C101.099 18.7348 101.124 21.0117 100.467 22.9233C100.166 23.799 99.7633 24.5373 99.1899 25.2549C98.9798 25.5185 98.4007 26.0929 98.1415 26.2963C97.3296 26.931 96.514 27.3472 95.5356 27.626C95.0019 27.7785 94.3698 27.8896 93.7548 27.9367C93.5977 27.948 92.5512 27.9555 91.024 27.9555H88.5486V19.9796V12.0019L91.1943 12.0094C93.7718 12.0151 93.8456 12.0169 94.1598 12.0565Z" fill="#4D4E50"/>
<path d="M147.462 9.82419C146.955 9.93154 146.514 10.312 146.336 10.796C146.061 11.5474 146.409 12.3968 147.136 12.7434C147.378 12.8582 147.498 12.8846 147.791 12.8827C148.099 12.8827 148.213 12.8564 148.487 12.7208C148.643 12.6454 148.714 12.5965 148.845 12.474C149.087 12.2443 149.208 12.0503 149.295 11.7508C149.621 10.6378 148.616 9.58313 147.462 9.82419Z" fill="#4D4E50"/>
<path d="M135.958 15.0407C134.981 15.1236 134.111 15.359 133.299 15.7545C132.582 16.1048 132.041 16.489 131.492 17.0352C130.201 18.3159 129.438 20.0523 129.278 22.0712C129.236 22.6061 129.262 23.5477 129.334 24.06C129.675 26.4876 130.899 28.45 132.781 29.5895C134.253 30.4803 136.177 30.8099 138.04 30.4897C139.306 30.2731 140.468 29.7345 141.399 28.9359C141.65 28.7194 142.084 28.2768 142.271 28.0451C143.223 26.8605 143.776 25.48 143.976 23.7869C144.024 23.3839 144.024 22.2143 143.976 21.8094C143.713 19.572 142.778 17.7772 141.232 16.5399C140.152 15.6754 138.785 15.1556 137.285 15.0389C136.993 15.0181 136.225 15.0181 135.958 15.0407ZM137.385 17.1294C137.68 17.1746 138.066 17.2668 138.305 17.3535C138.554 17.4439 139.012 17.6774 139.232 17.8224C140.343 18.5645 141.113 19.7811 141.429 21.2896C141.599 22.1108 141.626 23.0731 141.501 23.9093C141.175 26.0771 139.978 27.6873 138.248 28.2881C137.758 28.4576 137.368 28.5235 136.779 28.5367C136.335 28.548 136.085 28.5329 135.752 28.4745C134.455 28.2504 133.354 27.5027 132.625 26.3483C131.702 24.8868 131.418 22.8547 131.88 21.026C132.23 19.6417 132.991 18.5117 134.039 17.8224C134.692 17.3911 135.396 17.1614 136.299 17.0842C136.505 17.0653 137.133 17.0917 137.385 17.1294Z" fill="#4D4E50"/>
<path d="M159.311 15.0394C158.523 15.1147 157.668 15.369 156.888 15.7569C156.122 16.1374 155.467 16.6063 154.877 17.1958L154.551 17.5216L154.546 16.6704L154.54 15.8191L154.489 15.723C154.423 15.5969 154.271 15.4631 154.146 15.4198C154.059 15.3897 153.978 15.3859 153.395 15.3859C152.812 15.3859 152.731 15.3897 152.644 15.4198C152.519 15.4631 152.367 15.5969 152.301 15.723L152.25 15.8191V22.8062V29.7934L152.292 29.8819C152.343 29.9949 152.483 30.1343 152.596 30.1851C152.683 30.2247 152.706 30.2266 153.395 30.2266H154.105L154.212 30.1738C154.345 30.1098 154.46 29.9836 154.511 29.848C154.549 29.7444 154.549 29.7275 154.549 24.5672V19.3899L154.667 19.2336C154.824 19.0245 155.342 18.5123 155.592 18.3183C156.705 17.4614 157.954 17.0301 159.184 17.079C160.378 17.1261 161.165 17.4557 161.671 18.1224C161.968 18.516 162.149 18.9831 162.257 19.6385L162.297 19.8871L162.308 24.8308L162.318 29.7746L162.359 29.8631C162.414 29.9817 162.541 30.1154 162.658 30.1757L162.753 30.2266H163.472H164.191L164.288 30.1757C164.415 30.1098 164.549 29.9591 164.593 29.8348C164.625 29.7407 164.627 29.5165 164.627 24.5389C164.627 18.9643 164.629 19.1262 164.53 18.5405C164.392 17.7231 164.112 17.0414 163.699 16.5159C163.635 16.4331 163.484 16.2711 163.364 16.1562C162.689 15.5065 161.765 15.143 160.52 15.0375C160.253 15.0149 159.551 15.0168 159.311 15.0394Z" fill="#4D4E50"/>
<path d="M147.135 15.3952C147.025 15.4178 146.876 15.5025 146.806 15.5816C146.773 15.6174 146.724 15.6946 146.698 15.753L146.648 15.8566V22.8061C146.648 29.6105 146.648 29.7574 146.684 29.8497C146.73 29.9665 146.864 30.1115 146.989 30.1755L147.084 30.2264L147.767 30.232C148.427 30.2377 148.454 30.2358 148.562 30.1962C148.711 30.1416 148.87 29.9834 148.921 29.8384C148.957 29.7386 148.957 29.554 148.957 22.7966V15.8566L148.908 15.7511C148.844 15.6155 148.726 15.4987 148.59 15.4347L148.484 15.3857L147.85 15.382C147.502 15.3801 147.18 15.3857 147.135 15.3952Z" fill="#4D4E50"/>
</g>
<path d="M36.7544 38.501C42.2322 38.501 46.6728 34.0603 46.6728 28.5825C46.6728 23.1047 42.2322 18.6641 36.7544 18.6641C31.2766 18.6641 26.8359 23.1047 26.8359 28.5825C26.8359 34.0603 31.2766 38.501 36.7544 38.501Z" fill="#ECEFF0" stroke="white" stroke-width="0.724636"/>
<path opacity="0.6" d="M36.753 26.7578L32.4531 28.7126L36.753 31.2544L41.0536 28.7126L36.753 26.7578Z" fill="black"/>
<path opacity="0.45" d="M32.4531 28.713L36.753 31.2548V26.7582V21.5781L32.4531 28.713Z" fill="black"/>
<path opacity="0.8" d="M36.7539 21.5781V26.7582V31.2548L41.0538 28.713L36.7539 21.5781Z" fill="black"/>
<path opacity="0.45" d="M32.4531 29.5234L36.753 35.5829V32.0637L32.4531 29.5234Z" fill="black"/>
<path opacity="0.8" d="M36.7539 32.0637V35.5829L41.057 29.5234L36.7539 32.0637Z" fill="black"/>
<path d="M36.7578 21.5781L32.457 28.7149L36.7578 26.7602V21.5781Z" fill="#8A92B2"/>
<path d="M36.7578 26.7578L32.457 28.7125L36.7578 31.2554V26.7578Z" fill="#62688F"/>
<path d="M41.0593 28.7149L36.7578 21.5781V26.7602L41.0593 28.7149Z" fill="#62688F"/>
<path d="M36.7578 31.2554L41.0593 28.7125L36.7578 26.7578V31.2554Z" fill="#454A75"/>
<path d="M32.457 29.5312L36.7578 35.5923V32.0725L32.457 29.5312Z" fill="#8A92B2"/>
<path d="M36.7578 32.0725V35.5923L41.0617 29.5312L36.7578 32.0725Z" fill="#62688F"/>
</g>
<defs>
<clipPath id="clip0_14656_101133">
<rect width="165" height="40" fill="white"/>
</clipPath>
<clipPath id="clip1_14656_101133">
<rect width="165" height="40" fill="white"/>
</clipPath>
</defs>
</svg>
