<svg width="154" height="40" viewBox="0 0 154 40" fill="none" xmlns="http://www.w3.org/2000/svg">
<g clip-path="url(#clip0_14466_80621)">
<g clip-path="url(#clip1_14466_80621)">
<path d="M104.195 16.2344C105.04 15.2188 105.949 14.4375 107.129 14.0781C109.681 13.3125 112.137 13.4375 114.337 15.0781C115.629 16.0313 116.267 17.4063 116.633 18.9063C116.889 19.9219 116.984 20.9531 116.984 22C116.984 24.9375 116.984 27.875 117 30.8281C117 31.2188 116.889 31.2969 116.506 31.2969C115.31 31.2813 114.13 31.2813 112.934 31.2969C112.615 31.2969 112.551 31.2031 112.551 30.9219C112.567 27.9375 112.551 24.9375 112.551 21.9531C112.551 21.125 112.408 20.3281 112.025 19.5781C111.387 18.2969 110 17.5781 108.389 17.6719C106.173 17.8125 104.482 19.4219 104.227 21.6406C104.179 22 104.163 22.3594 104.163 22.7188C104.163 25.4531 104.163 28.1719 104.179 30.9063C104.179 31.2031 104.115 31.3125 103.781 31.2969C102.553 31.2813 101.325 31.2813 100.097 31.2969C99.8418 31.2969 99.7461 31.2344 99.7461 30.9688V6.96875C99.7461 6.6875 99.8418 6.625 100.113 6.625C101.341 6.64063 102.569 6.64063 103.796 6.625C104.099 6.625 104.163 6.71875 104.163 7C104.147 9.92188 104.163 12.8594 104.163 15.7813C104.195 15.875 104.195 16 104.195 16.2344ZM77.7399 24.125H71.2018C70.851 24.125 70.8032 24.2031 70.8829 24.5313C71.2337 25.8906 72.0948 26.8281 73.3865 27.3125C75.8263 28.2344 78.1545 27.9063 80.3392 26.5781C80.8814 26.25 80.8495 26.2188 81.3279 26.6719C82.0136 27.3438 82.6833 28 83.385 28.6563C83.5923 28.8594 83.6082 28.9688 83.385 29.1719C81.9817 30.4219 80.3232 31.125 78.4894 31.4844C76.3685 31.9063 74.2636 31.8438 72.2065 31.1719C69.4637 30.2813 67.6139 28.4844 66.7528 25.7656C66.0352 23.5156 66.0192 21.2344 66.8484 19.0156C68.0285 15.8594 70.4364 14.1094 73.7692 13.5312C75.4117 13.25 77.0542 13.3125 78.6648 13.7344C81.6627 14.5 83.5285 16.3906 84.3418 19.2969C84.7564 20.8125 84.8042 22.3594 84.6766 23.9063C84.6447 24.2031 84.4693 24.125 84.3099 24.125H77.7399ZM75.6509 20.5469H80.0521C80.3232 20.5469 80.4349 20.5156 80.3551 20.2031C80.0681 18.9531 79.3346 18.0938 78.1386 17.6094C77.3093 17.2656 76.4323 17.1875 75.5393 17.2031C73.3706 17.2656 71.6802 18.375 70.9945 20.2031C70.8829 20.4844 70.9307 20.5625 71.2497 20.5469H75.6509ZM130.459 24.125H123.921C123.57 24.125 123.522 24.2188 123.602 24.5313C123.953 25.9063 124.83 26.8438 126.153 27.3281C128.53 28.2031 130.826 27.8906 132.995 26.6406C133.202 26.5156 133.361 26.2188 133.601 26.2656C133.808 26.3125 133.951 26.5625 134.127 26.7344C134.781 27.3594 135.418 28 136.088 28.6094C136.375 28.875 136.327 29.0156 136.056 29.2344C134.781 30.3438 133.282 31.0313 131.623 31.4063C129.375 31.9219 127.126 31.8906 124.926 31.1719C121.641 30.0938 119.775 27.7969 119.169 24.5C118.802 22.5 118.914 20.5156 119.743 18.625C121.019 15.6875 123.363 14.0625 126.536 13.5312C128.242 13.25 129.949 13.3281 131.607 13.7969C134.669 14.6563 136.471 16.6875 137.173 19.7031C137.491 21.0781 137.523 22.4688 137.412 23.875C137.396 24.1719 137.236 24.1406 137.045 24.1406C134.844 24.125 132.644 24.125 130.459 24.125ZM128.386 20.5469H132.835C133.09 20.5469 133.154 20.5 133.106 20.2344C132.819 18.9531 132.07 18.0781 130.842 17.5938C129.853 17.2031 128.817 17.125 127.78 17.25C125.914 17.4688 124.495 18.3438 123.777 20.1094C123.602 20.5469 123.602 20.5469 124.064 20.5469H128.386ZM55.2075 21.9219C55.2075 20.6875 55.1916 19.4375 55.2075 18.2031C55.2075 17.9063 55.1118 17.8281 54.8248 17.8438C53.9637 17.8594 53.1026 17.8438 52.2414 17.8594C51.9863 17.8594 51.8906 17.8125 51.8906 17.5469C51.9066 16.5156 51.9066 15.4844 51.8906 14.4531C51.8906 14.1875 51.9704 14.125 52.2255 14.125C53.1026 14.1406 53.9796 14.125 54.8407 14.1406C55.1437 14.1406 55.1916 14.0469 55.1916 13.7812C55.1756 12.5312 55.1916 11.2812 55.1756 10.0156C55.1756 9.76562 55.2075 9.65625 55.5105 9.625C56.7862 9.51562 58.046 9.375 59.3217 9.21875C59.5928 9.1875 59.6087 9.29688 59.6087 9.5C59.6087 10.9062 59.6087 12.3281 59.5928 13.7344C59.5928 14.0469 59.6885 14.125 59.9915 14.125C61.3788 14.1094 62.7502 14.125 64.1375 14.1094C64.4246 14.1094 64.5043 14.1875 64.4884 14.4688C64.4724 15.4844 64.4724 16.5 64.4884 17.5156C64.4884 17.7813 64.4086 17.8438 64.1535 17.8438C62.7661 17.8281 61.3947 17.8438 60.0074 17.8281C59.6566 17.8281 59.5449 17.8906 59.5449 18.2656C59.5609 20.5938 59.5609 22.9219 59.5609 25.2656C59.5609 27.1719 60.7409 28.1094 62.6545 27.7031C63.0213 27.625 63.3881 27.5156 63.7389 27.3594C63.9143 27.2813 63.994 27.2813 64.0578 27.4844C64.4086 28.5625 64.7754 29.6562 65.1422 30.7344C65.19 30.875 65.206 30.9531 65.0305 31.0156C62.9097 31.7656 60.7409 32.0313 58.5882 31.2188C56.7703 30.5313 55.8135 29.1094 55.3989 27.2969C55.2553 26.6406 55.2075 25.9688 55.1916 25.2969C55.2075 24.1875 55.2075 23.0625 55.2075 21.9219ZM88.153 21.8906V17.9844C88.153 17.7344 88.0892 17.6406 87.8181 17.6563C86.9251 17.6719 86.048 17.6563 85.155 17.6719C84.9158 17.6719 84.8202 17.6094 84.8202 17.3594C84.8361 16.3281 84.8361 15.2969 84.8202 14.2656C84.8202 14.0313 84.8839 13.9531 85.1391 13.9531C86.0161 13.9688 86.8932 13.9375 87.7543 13.9688C88.0892 13.9844 88.137 13.8594 88.137 13.5625C88.1211 12.2969 88.137 11.0313 88.1211 9.76562C88.1211 9.57812 88.137 9.45312 88.3922 9.42188C89.6519 9.3125 90.9117 9.1875 92.1715 9.03125C92.4745 9 92.5542 9.0625 92.5542 9.35938C92.5383 10.7813 92.5542 12.1875 92.5383 13.6094C92.5383 13.8906 92.618 13.9688 92.8891 13.9531C94.2764 13.9375 95.6797 13.9531 97.0671 13.9375C97.3541 13.9375 97.4179 14.0156 97.4179 14.2969C97.4019 15.2969 97.4019 16.3125 97.4179 17.3125C97.4179 17.5938 97.3382 17.6563 97.0511 17.6563C95.6638 17.6406 94.2605 17.6563 92.8731 17.6406C92.5702 17.6406 92.4904 17.7188 92.4904 18.0156C92.5064 20.4063 92.4904 22.7969 92.5064 25.2031C92.5064 26.4063 93.0485 27.2344 94.0053 27.5C94.8505 27.7344 95.6638 27.5625 96.4611 27.2656C96.9235 27.0938 96.9235 27.0938 97.099 27.5625C97.4338 28.5313 97.7528 29.5156 98.0717 30.4844C98.1195 30.625 98.1833 30.75 97.9601 30.8281C95.9189 31.5469 93.8459 31.7969 91.7569 31.1094C89.7157 30.4375 88.6952 28.8906 88.2965 26.8906C88.0413 25.5938 88.1689 24.2969 88.137 23C88.153 22.6406 88.153 22.2656 88.153 21.8906ZM144.237 15.8438C144.556 15.4375 144.827 15.0625 145.162 14.75C146.023 13.9688 147.059 13.5938 148.207 13.4844C149.993 13.3125 151.684 13.6094 153.199 14.6094C153.837 15.0313 153.821 15.0313 153.486 15.7031C153.007 16.625 152.497 17.5469 152.035 18.4688C151.891 18.75 151.795 18.8438 151.492 18.6094C149.898 17.4063 147.267 17.4219 145.72 18.625C144.683 19.4375 144.285 20.5625 144.269 21.8125C144.237 24.8281 144.237 27.8438 144.253 30.8594C144.253 31.2344 144.141 31.2969 143.79 31.2969C142.594 31.2813 141.382 31.2813 140.186 31.2969C139.915 31.2969 139.852 31.2188 139.852 30.9688V14.2656C139.852 13.9844 139.931 13.9219 140.218 13.9219C141.351 13.9375 142.499 13.9375 143.631 13.9219C143.87 13.9219 143.95 13.9844 143.982 14.2188C144.045 14.7344 144.141 15.2656 144.237 15.8438Z" fill="#5D5C5F"/>
</g>
<g clip-path="url(#clip2_14466_80621)">
<path d="M8.35747 0L0 17.7259L22.7827 39.7696L45.451 17.7259L36.979 0H8.35747Z" fill="#45B68D"/>
<path d="M33.7427 5.67969H11.6719V10.9681H20.0431V18.741H25.3715V10.9681H33.7427V5.67969Z" fill="white"/>
<path d="M22.7829 19.6108C15.8579 19.6108 10.2436 18.523 10.2436 17.181C10.2436 15.8393 15.8576 14.7513 22.7829 14.7513C29.7078 14.7513 35.3219 15.8393 35.3219 17.181C35.3219 18.523 29.7078 19.6108 22.7829 19.6108ZM36.8624 17.5861C36.8624 15.8557 30.5588 14.4531 22.7829 14.4531C15.0071 14.4531 8.70312 15.8557 8.70312 17.5861C8.70312 19.1099 13.5912 20.3796 20.0683 20.6608V31.8191H25.3962V20.6652C31.9233 20.3927 36.8624 19.1178 36.8624 17.5861Z" fill="white"/>
</g>
<path d="M37.0825 38.001C42.5603 38.001 47.001 33.5603 47.001 28.0825C47.001 22.6047 42.5603 18.1641 37.0825 18.1641C31.6047 18.1641 27.1641 22.6047 27.1641 28.0825C27.1641 33.5603 31.6047 38.001 37.0825 38.001Z" fill="#162F29" stroke="white" stroke-width="0.724636"/>
<path d="M44.6744 28.12C44.6744 28.1971 44.6733 28.2741 44.6711 28.3511H44.6623H40.9769V28.1828H37.4215C37.4215 28.1476 37.4226 28.1124 37.4226 28.0783C37.4226 28.0442 37.4226 28.0079 37.4215 27.9737H40.9769V27.8066H40.9825H44.6678C44.6721 27.9111 44.6744 28.0156 44.6744 28.12ZM37.3588 27.3622L40.8384 26.9342L40.8593 27.1014L44.5336 26.6492C44.4984 26.4689 44.4565 26.2906 44.4093 26.1157L40.7922 26.5613L40.8131 26.7284L37.317 27.1586C37.3324 27.2268 37.3467 27.295 37.3588 27.3643V27.3622ZM37.1773 26.6888L40.5028 25.8583L40.5435 26.0211L44.0726 25.1399C44 24.9694 43.9219 24.8011 43.8383 24.6372L40.4127 25.4931L40.4533 25.6559L37.1003 26.4942C37.1278 26.5591 37.1531 26.6239 37.1773 26.69V26.6888ZM36.8825 26.0585L39.9913 24.8847L40.0507 25.042L43.34 23.8C43.2332 23.6438 43.1211 23.492 43.0023 23.3446L39.8582 24.5316L39.9176 24.6889L36.7714 25.877C36.8099 25.9364 36.8472 25.9969 36.8825 26.0585ZM36.4743 25.4755L39.2201 24.0443L39.2972 24.1939L42.3334 22.6108C42.1937 22.4755 42.0485 22.3468 41.8988 22.2225L39.0453 23.7098L39.1222 23.8594L36.3302 25.3149C36.3786 25.3677 36.4271 25.4205 36.4733 25.4755H36.4743ZM35.8121 24.8462L38.2983 23.2654L38.3885 23.4073L41.1321 21.6626C40.9594 21.5526 40.7833 21.4503 40.6019 21.3545L38.0969 22.9475L38.1872 23.0894L35.6295 24.7153C35.6921 24.7571 35.7527 24.8011 35.8132 24.8462H35.8121ZM35.2246 24.4788L37.3082 22.7704L37.4149 22.9002L39.7614 20.975C39.5623 20.8991 39.3577 20.8309 39.1508 20.7715L37.0695 22.4788L37.1762 22.6086L35.0167 24.3798C35.0871 24.4106 35.1564 24.4436 35.2246 24.4788ZM34.4469 24.1763L36.0926 22.5382L36.2103 22.657L38.3016 20.579C38.0749 20.5416 37.845 20.5141 37.6118 20.4965L35.8285 22.2709L35.9463 22.3897L34.2081 24.1191C34.2885 24.1356 34.3677 24.1543 34.4469 24.1763ZM33.5371 24.0388L34.8495 22.448L34.9793 22.5547L36.6878 20.4844C36.4281 20.4965 36.1718 20.5218 35.9199 20.5592L34.5591 22.2082L34.6889 22.3149L33.2676 24.0377C33.3072 24.0366 33.3479 24.0355 33.3875 24.0355C33.4381 24.0355 33.4876 24.0355 33.5371 24.0377V24.0388ZM32.7505 24.0861L33.7615 22.5217L33.9023 22.613L35.1245 20.7209C34.8451 20.7935 34.5723 20.8815 34.3061 20.9838L33.4458 22.316L33.5866 22.4073L32.4667 24.1411C32.5602 24.1191 32.6548 24.1004 32.7505 24.085V24.0861ZM31.8771 24.3292L32.6042 22.9662L32.7516 23.0454L33.7142 21.2423C33.4051 21.393 33.1081 21.5636 32.8242 21.7528L32.2709 22.7891L32.4194 22.8683L31.5635 24.4722C31.6647 24.4205 31.7693 24.3732 31.876 24.3303L31.8771 24.3292ZM31.25 24.6493L31.5591 23.7714L31.7175 23.8275L32.3182 22.1224C32.0135 22.3644 31.7275 22.6284 31.4623 22.9134L31.2038 23.6471L31.3622 23.7032L30.9574 24.8517C31.052 24.7802 31.1488 24.7131 31.2489 24.6504L31.25 24.6493ZM30.4789 25.2775L30.6153 24.6394L30.7792 24.6746L31.0542 23.3897C30.7649 23.7571 30.5086 24.1521 30.2896 24.569L30.4117 24.5954L30.1609 25.6515C30.2588 25.5206 30.3655 25.3952 30.4789 25.2775ZM29.9123 26.0233V25.1784C29.7077 25.7186 29.5625 26.3907 29.4844 27.0497C29.5801 26.6845 29.7253 26.3401 29.9123 26.0233ZM29.4899 29.1288C29.5702 29.691 29.711 30.2333 29.9068 30.7493V30.1255C29.7264 29.8175 29.5845 29.4831 29.4899 29.1288ZM30.1873 30.5424L30.4062 31.5634L30.2841 31.5897C30.5031 32.0078 30.7594 32.4016 31.0487 32.7691L30.7737 31.4842L30.6098 31.5194L30.4712 30.8736C30.371 30.768 30.2753 30.658 30.1873 30.5414V30.5424ZM30.9497 31.3016L31.3567 32.4567L31.1983 32.5127L31.4568 33.2465C31.722 33.5314 32.008 33.7954 32.3127 34.0374L31.7121 32.3323L31.5536 32.3884L31.2434 31.5062C31.1433 31.4423 31.0454 31.3752 30.9508 31.3037L30.9497 31.3016ZM31.5569 31.6832L32.415 33.2916L32.2665 33.3708L32.8198 34.4071C33.1037 34.5963 33.4007 34.7668 33.7098 34.9175L32.7472 33.1144L32.5987 33.1937L31.8694 31.8274C31.7627 31.7845 31.6581 31.7361 31.5558 31.6844L31.5569 31.6832ZM32.4601 32.0155L33.5811 33.7514L33.4403 33.8427L34.3006 35.1749C34.5668 35.2772 34.8396 35.3653 35.119 35.4379L33.8968 33.5457L33.756 33.637L32.7439 32.0705C32.6482 32.0551 32.5525 32.0364 32.459 32.0144L32.4601 32.0155ZM33.261 32.1211L34.6823 33.8438L34.5525 33.9505L35.9133 35.5996C36.1652 35.637 36.4215 35.6623 36.6812 35.6744L34.9727 33.6029L34.8429 33.7096L33.5305 32.1189C33.4832 32.1211 33.4348 32.1211 33.3864 32.1211C33.3446 32.1211 33.3017 32.1211 33.2599 32.1189L33.261 32.1211ZM34.2037 32.0397L35.9408 33.7679L35.8231 33.8867L37.6063 35.6611C37.8395 35.6435 38.0695 35.6161 38.2961 35.5786L36.2059 33.4995L36.0871 33.6194L34.4425 31.9825C34.3644 32.0034 34.2841 32.0232 34.2037 32.0397ZM35.0134 31.7812L37.1707 33.5512L37.064 33.681L39.1453 35.3883C39.3521 35.3289 39.5567 35.2607 39.7559 35.1848L37.4083 33.2597L37.3016 33.3895L35.2202 31.6822C35.152 31.7174 35.0827 31.7504 35.0123 31.7812H35.0134ZM35.625 31.4446L38.1794 33.0694L38.0892 33.2112L40.5941 34.8042C40.7756 34.7085 40.9528 34.6051 41.1244 34.4962L38.3808 32.7514L38.2906 32.8934L35.8077 31.3147C35.7472 31.3598 35.6867 31.4038 35.6239 31.4456L35.625 31.4446ZM36.3291 30.8461L39.1179 32.2993L39.0408 32.4489L41.8945 33.9362C42.0441 33.8119 42.1892 33.6832 42.329 33.5479L39.2928 31.9649L39.2157 32.1145L36.4733 30.6854C36.4271 30.7405 36.3797 30.7944 36.3302 30.8461H36.3291ZM36.7703 30.2829L39.9121 31.4699L39.8527 31.6272L42.9967 32.8141C43.1145 32.6667 43.2266 32.5149 43.3344 32.3587L40.0452 31.1167L39.9858 31.274L36.8814 30.1013C36.8462 30.1629 36.8087 30.2234 36.7703 30.2829ZM37.0992 29.6668L40.4467 30.5028L40.406 30.6657L43.8317 31.5215C43.9164 31.3576 43.9945 31.1893 44.0671 31.0188L40.5381 30.1376L40.4973 30.3005L37.1762 29.471C37.152 29.537 37.1256 29.6019 37.0992 29.6668ZM37.317 29.0023L40.8076 29.4314L40.7866 29.5986L44.4037 30.0441C44.4511 29.8681 44.4928 29.6899 44.5281 29.5106L40.8538 29.0585L40.8329 29.2256L37.3588 28.7977C37.3467 28.867 37.3324 28.9352 37.317 29.0034V29.0023Z" fill="white"/>
</g>
<defs>
<clipPath id="clip0_14466_80621">
<rect width="154" height="40" fill="white"/>
</clipPath>
<clipPath id="clip1_14466_80621">
<rect width="101.824" height="25.1323" fill="white" transform="translate(51.8906 6.625)"/>
</clipPath>
<clipPath id="clip2_14466_80621">
<rect width="45.451" height="39.7696" fill="white"/>
</clipPath>
</defs>
</svg>
