<svg width="118" height="40" viewBox="0 0 118 40" fill="none" xmlns="http://www.w3.org/2000/svg">
<g clip-path="url(#clip0_19949_139158)">
<path d="M20.4981 0C16.5133 0 12.6456 1.16141 9.36399 3.3681C6.08236 5.57478 3.50394 8.71059 1.98033 12.311C0.456713 16.0275 0.10511 19.9763 0.808316 23.9251C1.51152 27.8739 3.38674 31.3581 6.19956 34.1455C9.01239 36.9329 12.6456 38.9073 16.5133 39.6042C20.3809 40.4171 24.4829 39.9526 28.1161 38.4427C31.7494 36.9329 34.9138 34.3778 37.1406 31.0097C39.3674 27.7578 40.5395 23.809 40.5395 19.8601C40.5395 14.5177 38.4298 9.40744 34.6794 5.69092C30.929 2.09054 25.7721 0 20.4981 0ZM1.74592 20.7893H7.95758C7.95758 23.5767 8.42638 26.3641 9.24679 29.0353H4.08994C2.68353 26.4802 1.86313 23.5767 1.74592 20.7893ZM21.2013 9.63972V1.50984C24.7173 1.85826 27.7645 4.99407 29.6398 9.63972H21.2013ZM30.1086 11.0334C30.929 13.7047 31.3978 16.4921 31.515 19.2794H21.2013V11.0334H30.1086ZM19.6777 1.50984V9.63972H11.2392C13.1144 4.99407 16.2788 1.85826 19.6777 1.50984ZM19.6777 11.0334V19.2794H9.36399C9.36399 16.4921 9.83279 13.7047 10.7704 11.0334H19.6777ZM7.95758 19.2794H1.74592C1.86313 16.3759 2.68353 13.5885 4.08994 11.0334H9.24679C8.42638 13.7047 8.07478 16.4921 7.95758 19.2794ZM9.36399 20.7893H19.6777V29.0353H10.7704C9.94999 26.3641 9.48119 23.5767 9.36399 20.7893ZM19.6777 30.429V38.5589C16.1616 38.2105 13.1144 35.0746 11.2392 30.429H19.6777ZM21.2013 38.5589V30.3129H29.6398C27.7645 35.0746 24.7173 38.2105 21.2013 38.5589ZM21.2013 28.9192V20.6731H31.515C31.515 23.4605 31.0462 26.2479 30.1086 28.9192H21.2013ZM32.9214 20.7893H39.133C39.0158 23.6928 38.1954 26.4802 36.789 29.0353H31.6322C32.4526 26.2479 32.9214 23.5767 32.9214 20.7893ZM32.9214 19.2794C32.9214 16.4921 32.4526 13.7047 31.6322 11.0334H36.789C38.1954 13.5885 39.0158 16.3759 39.133 19.2794H32.9214ZM35.9686 9.63972H31.1634C30.6946 8.36217 30.1086 7.20076 29.4054 6.03934C28.585 4.64565 27.6473 3.48424 26.4753 2.43897C30.343 3.71652 33.6246 6.27163 35.9686 9.63972ZM14.4036 2.43897C13.3488 3.48424 12.294 4.64565 11.4736 6.03934C10.7704 7.20076 10.1844 8.36217 9.71559 9.63972H4.91035C7.25437 6.27163 10.536 3.71652 14.4036 2.43897ZM4.91035 30.429H9.71559C10.1844 31.7066 10.7704 32.868 11.4736 34.0294C12.294 35.3069 13.2316 36.5845 14.4036 37.6298C10.536 36.3522 7.25437 33.7971 4.91035 30.429ZM26.4753 37.6298C27.6473 36.5845 28.585 35.4231 29.4054 34.0294C30.1086 32.868 30.6946 31.5904 31.1634 30.429H35.9686C33.6246 33.7971 30.343 36.3522 26.4753 37.6298ZM95.8583 14.2854H92.5767V32.1711H95.8583V14.2854ZM94.2175 11.8464C95.3895 11.8464 96.4443 10.9173 96.4443 9.63972C96.4443 8.36217 95.5067 7.43304 94.2175 7.43304C93.0455 7.43304 91.9907 8.36217 91.9907 9.63972C91.9907 10.9173 93.0455 11.8464 94.2175 11.8464ZM102.539 19.0472H107.344V16.2598H102.539V13.7047C102.539 11.8464 103.828 10.8011 106.055 10.8011H107.344V7.54918H106.055C101.836 7.54918 99.2572 9.872 99.2572 13.5885V32.2873H102.539V19.0472ZM116.251 32.2873H117.541V29.0353H116.251C114.024 29.0353 112.735 27.99 112.735 26.1318V19.0472H117.541V16.2598H112.735V7.54918H109.454V26.2479C109.454 29.8483 112.032 32.1711 116.251 32.2873ZM74.7622 32.2873L78.0438 18.931L81.3254 32.2873H85.0758L90.1155 14.4015H86.7166L83.2006 28.1062L79.8018 14.4015H76.1686L72.7697 28.1062L69.2537 14.4015H65.9721L71.0117 32.2873H74.7622ZM56.9476 29.2676C54.1348 29.2676 51.7908 27.5255 50.9703 25.7834L47.9231 27.4093C49.3295 30.5451 52.8456 32.6357 56.8304 32.6357C61.9872 32.6357 65.6205 29.7322 65.6205 25.5511C65.6205 15.9113 51.908 19.9763 51.908 14.4015C51.908 11.9625 54.0176 10.8011 56.9476 10.8011C59.2916 10.8011 61.4012 12.0787 62.6904 13.7047L65.2689 11.498C63.5109 9.05902 60.3464 7.66532 56.9476 7.66532C51.6736 7.66532 48.3919 10.9173 48.3919 14.4015C48.3919 23.809 62.2216 19.1633 62.2216 25.6672C62.2216 27.7578 60.112 29.2676 56.9476 29.2676Z" fill="#333D3E"/>
</g>
<defs>
<clipPath id="clip0_19949_139158">
<rect width="118" height="40" fill="white"/>
</clipPath>
</defs>
</svg>
