<svg width="31" height="31" viewBox="0 0 31 31" fill="none" xmlns="http://www.w3.org/2000/svg">
<path d="M15.4984 0C12.4162 0 9.42463 0.900095 6.88635 2.61027C4.34807 4.32045 2.35371 6.75071 1.17522 9.541C-0.00326749 12.4213 -0.275226 15.4816 0.268691 18.5419C0.812608 21.6023 2.26305 24.3026 4.43872 26.4628C6.61439 28.623 9.42463 30.1532 12.4162 30.6932C15.4077 31.3233 18.5806 30.9632 21.3908 29.7931C24.201 28.623 26.6487 26.6428 28.3711 24.0325C30.0935 21.5123 31 18.4519 31 15.3916C31 11.2512 29.3682 7.29077 26.4674 4.41046C23.5665 1.62017 19.5777 0 15.4984 0ZM0.993914 16.1117H5.79851C5.79851 18.2719 6.16113 20.4321 6.79569 22.5024H2.80697C1.71914 20.5222 1.08457 18.2719 0.993914 16.1117ZM16.0423 7.47078V1.17012C18.7619 1.44015 21.1188 3.87041 22.5693 7.47078H16.0423ZM22.9319 8.5509C23.5665 10.6211 23.9291 12.7813 24.0197 14.9416H16.0423V8.5509H22.9319ZM14.8638 1.17012V7.47078H8.33679C9.78724 3.87041 12.2349 1.44015 14.8638 1.17012ZM14.8638 8.5509V14.9416H6.88635C6.88635 12.7813 7.24896 10.6211 7.97418 8.5509H14.8638ZM5.79851 14.9416H0.993914C1.08457 12.6913 1.71914 10.5311 2.80697 8.5509H6.79569C6.16113 10.6211 5.88917 12.7813 5.79851 14.9416ZM6.88635 16.1117H14.8638V22.5024H7.97418C7.33961 20.4321 6.977 18.2719 6.88635 16.1117ZM14.8638 23.5825V29.8831C12.1442 29.6131 9.78724 27.1829 8.33679 23.5825H14.8638ZM16.0423 29.8831V23.4925H22.5693C21.1188 27.1829 18.7619 29.6131 16.0423 29.8831ZM16.0423 22.4124V16.0217H24.0197C24.0197 18.1819 23.6571 20.3421 22.9319 22.4124H16.0423ZM25.1076 16.1117H29.9122C29.8215 18.3619 29.1869 20.5222 28.0991 22.5024H24.1104C24.745 20.3421 25.1076 18.2719 25.1076 16.1117ZM25.1076 14.9416C25.1076 12.7813 24.745 10.6211 24.1104 8.5509H28.0991C29.1869 10.5311 29.8215 12.6913 29.9122 14.9416H25.1076ZM27.4645 7.47078H23.7478C23.3852 6.48068 22.9319 5.58059 22.388 4.68049C21.7534 3.60038 21.0282 2.70028 20.1217 1.8902C23.1132 2.8803 25.6515 4.86051 27.4645 7.47078ZM10.7844 1.8902C9.96854 2.70028 9.15267 3.60038 8.5181 4.68049C7.97418 5.58059 7.52092 6.48068 7.15831 7.47078H3.44154C5.2546 4.86051 7.79288 2.8803 10.7844 1.8902ZM3.44154 23.5825H7.15831C7.52092 24.5726 7.97418 25.4727 8.5181 26.3728C9.15267 27.3629 9.87789 28.353 10.7844 29.1631C7.79288 28.173 5.2546 26.1928 3.44154 23.5825ZM20.1217 29.1631C21.0282 28.353 21.7534 27.4529 22.388 26.3728C22.9319 25.4727 23.3852 24.4826 23.7478 23.5825H27.4645C25.6515 26.1928 23.1132 28.173 20.1217 29.1631Z" fill="#333D3E"/>
</svg>
