<svg width="37" height="37" viewBox="0 0 37 37" fill="none" xmlns="http://www.w3.org/2000/svg">
<rect width="37" height="37" rx="18.5" fill="#F2F5F8"/>
<path d="M18.5 34C27.0896 34 34 27.0896 34 18.5C34 9.91037 27.0896 3 18.5 3C9.91037 3 3 9.91037 3 18.5C3 27.0896 9.91037 34 18.5 34Z" fill="#2775CA"/>
<path d="M22.7635 20.9578C22.7635 18.6974 21.4072 17.9224 18.6947 17.5996C16.7572 17.3412 16.3697 16.8246 16.3697 15.9203C16.3697 15.016 17.0156 14.4349 18.3072 14.4349C19.4697 14.4349 20.1156 14.8224 20.4385 15.7912C20.5031 15.9849 20.6969 16.1141 20.8906 16.1141H21.9239C22.1822 16.1141 22.376 15.9203 22.376 15.6621V15.5974C22.1176 14.1766 20.9551 13.0787 19.4697 12.9496V11.3996C19.4697 11.1412 19.276 10.9474 18.9531 10.8828H17.9844C17.726 10.8828 17.5322 11.0766 17.4676 11.3996V12.8849C15.5301 13.1433 14.3031 14.4349 14.3031 16.0496C14.3031 18.1808 15.5947 19.0203 18.3072 19.3433C20.1156 19.6662 20.6969 20.0537 20.6969 21.0871C20.6969 22.1205 19.7926 22.8308 18.5656 22.8308C16.8864 22.8308 16.3051 22.1203 16.1114 21.1516C16.0469 20.8933 15.8531 20.7641 15.6594 20.7641H14.5614C14.3031 20.7641 14.1094 20.9578 14.1094 21.2162V21.2808C14.3676 22.8953 15.401 24.0578 17.5322 24.3808V25.9308C17.5322 26.1891 17.726 26.3828 18.0489 26.4474H19.0176C19.276 26.4474 19.4697 26.2537 19.5344 25.9308V24.3808C21.4719 24.0578 22.7635 22.7016 22.7635 20.9578Z" fill="white"/>
<path d="M15.2065 27.7379C10.169 25.9297 7.58565 20.3109 9.45867 15.3379C10.4274 12.6254 12.5587 10.5588 15.2065 9.59005C15.4649 9.46094 15.594 9.26719 15.594 8.94417V8.04005C15.594 7.78167 15.4649 7.58792 15.2065 7.52344C15.1419 7.52344 15.0128 7.52344 14.9481 7.58792C8.81278 9.52542 5.4544 16.0484 7.3919 22.1838C8.5544 25.8004 11.3315 28.5776 14.9481 29.7401C15.2065 29.8692 15.4649 29.7401 15.5294 29.4817C15.594 29.4172 15.594 29.3526 15.594 29.2234V28.3192C15.594 28.1254 15.4003 27.8672 15.2065 27.7379ZM22.0524 7.58792C21.794 7.4588 21.5356 7.58792 21.4712 7.8463C21.4065 7.91094 21.4065 7.97542 21.4065 8.10469V9.0088C21.4065 9.26719 21.6003 9.52542 21.794 9.65469C26.8315 11.4629 29.4149 17.0817 27.5419 22.0547C26.5731 24.7672 24.4419 26.8338 21.794 27.8026C21.5356 27.9317 21.4065 28.1254 21.4065 28.4484V29.3526C21.4065 29.6109 21.5356 29.8047 21.794 29.8692C21.8587 29.8692 21.9878 29.8692 22.0524 29.8047C28.1878 27.8672 31.5462 21.3442 29.6087 15.2088C28.4462 11.5276 25.6044 8.75042 22.0524 7.58792Z" fill="white"/>
</svg>
